<svg width="512" height="76" viewBox="0 0 512 76" fill="none" xmlns="http://www.w3.org/2000/svg">
<path d="M28.0346 75.7463C22.3924 75.7463 17.4555 74.8647 13.2239 73.1015C8.99223 71.2678 5.71271 68.6936 3.38531 65.3788C1.12844 61.9935 0 58.0792 0 53.636V51.3086C0 50.956 0.105791 50.6738 0.317373 50.4623C0.599482 50.1802 0.916855 50.0391 1.26949 50.0391H13.3297C13.6823 50.0391 13.9644 50.1802 14.176 50.4623C14.4581 50.6738 14.5991 50.956 14.5991 51.3086V52.8955C14.5991 55.7166 15.9039 58.1145 18.5134 60.0892C21.1229 61.9935 24.6493 62.9456 29.0925 62.9456C32.8304 62.9456 35.6163 62.1698 37.45 60.6182C39.2837 58.9961 40.2006 57.0213 40.2006 54.6939C40.2006 53.0013 39.6363 51.5907 38.5079 50.4623C37.3795 49.2633 35.8279 48.2407 33.8531 47.3943C31.9489 46.4775 28.8809 45.2433 24.6493 43.6917C19.924 42.0695 15.9039 40.4121 12.5891 38.7195C9.34487 37.0268 6.5943 34.7347 4.33743 31.8431C2.15108 28.8809 1.05791 25.2488 1.05791 20.9466C1.05791 16.715 2.15108 13.0123 4.33743 9.83856C6.52377 6.66483 9.55645 4.23164 13.4354 2.53898C17.3144 0.846328 21.7929 0 26.8709 0C32.231 0 36.9916 0.952117 41.1527 2.85635C45.3843 4.76059 48.6638 7.44063 50.9912 10.8965C53.3892 14.2818 54.5881 18.2313 54.5881 22.745V24.3319C54.5881 24.6845 54.4471 25.0019 54.165 25.284C53.9534 25.4956 53.6713 25.6014 53.3186 25.6014H41.1527C40.8 25.6014 40.4827 25.4956 40.2006 25.284C39.989 25.0019 39.8832 24.6845 39.8832 24.3319V23.4856C39.8832 20.5234 38.6489 18.0197 36.1805 15.9744C33.7826 13.8586 30.4678 12.8007 26.2361 12.8007C22.9214 12.8007 20.3119 13.506 18.4076 14.9165C16.5739 16.3271 15.6571 18.2666 15.6571 20.735C15.6571 22.4982 16.186 23.9793 17.2439 25.1782C18.3724 26.3772 19.9945 27.4704 22.1103 28.4578C24.2966 29.3746 27.6467 30.6441 32.1604 32.2662C37.1679 34.0999 41.0821 35.7221 43.9032 37.1326C46.7949 38.5432 49.3691 40.659 51.626 43.4801C53.9534 46.2306 55.1171 49.8275 55.1171 54.2707C55.1171 60.9003 52.6839 66.1546 47.8175 70.0336C42.9511 73.8421 36.3568 75.7463 28.0346 75.7463Z" fill="#283596"/>
<path d="M115.832 0.846324C116.185 0.846324 116.467 0.987379 116.678 1.26949C116.96 1.48107 117.101 1.76318 117.101 2.11582V12.4833C117.101 12.836 116.96 13.1533 116.678 13.4354C116.467 13.647 116.185 13.7528 115.832 13.7528H96.8954C96.5428 13.7528 96.3664 13.9291 96.3664 14.2818V73.6305C96.3664 73.9831 96.2254 74.3005 95.9433 74.5826C95.7317 74.7942 95.4496 74.9 95.097 74.9H82.7194C82.3668 74.9 82.0494 74.7942 81.7673 74.5826C81.5557 74.3005 81.4499 73.9831 81.4499 73.6305V14.2818C81.4499 13.9291 81.2736 13.7528 80.921 13.7528H62.5133C62.1607 13.7528 61.8433 13.647 61.5612 13.4354C61.3496 13.1533 61.2439 12.836 61.2439 12.4833V2.11582C61.2439 1.76318 61.3496 1.48107 61.5612 1.26949C61.8433 0.987379 62.1607 0.846324 62.5133 0.846324H115.832Z" fill="#283596"/>
<path d="M167.246 75.3239C166.541 75.3239 166.083 74.9712 165.871 74.266L158.092 51.3093L139.409 51.4275L132.547 74.266C132.335 74.9712 131.877 75.3239 131.172 75.3239H117.736C117.313 75.3239 116.996 75.2181 116.784 75.0065C116.573 74.7244 116.537 74.3365 116.678 73.8428L139.529 2.32813C139.741 1.62286 140.199 1.27022 140.904 1.27022H157.514C158.219 1.27022 158.677 1.62286 158.889 2.32813L181.74 73.8428C181.81 73.9838 181.846 74.1602 181.846 74.3717C181.846 75.0065 181.458 75.3239 180.682 75.3239H167.246ZM139.409 51.4275L158.092 51.3093L149.368 19.8894C149.297 19.6073 149.191 19.5015 149.05 19.5721C148.909 19.5721 148.803 19.6778 148.733 19.8894L139.409 51.4275Z" fill="#283596"/>
<path d="M233.303 2.11582C233.303 1.76318 233.409 1.48107 233.62 1.26949C233.902 0.987379 234.22 0.846324 234.572 0.846324H246.95C247.303 0.846324 247.585 0.987379 247.796 1.26949C248.078 1.48107 248.219 1.76318 248.219 2.11582V73.6305C248.219 73.9831 248.078 74.3005 247.796 74.5826C247.585 74.7942 247.303 74.9 246.95 74.9H234.996C234.29 74.9 233.797 74.6179 233.514 74.0536L206.115 28.7751C205.974 28.5635 205.832 28.493 205.691 28.5635C205.55 28.5635 205.48 28.7046 205.48 28.9867L205.691 73.6305C205.691 73.9831 205.55 74.3005 205.268 74.5826C205.057 74.7942 204.775 74.9 204.422 74.9H192.044C191.692 74.9 191.374 74.7942 191.092 74.5826C190.881 74.3005 190.775 73.9831 190.775 73.6305V2.11582C190.775 1.76318 190.881 1.48107 191.092 1.26949C191.374 0.987379 191.692 0.846324 192.044 0.846324H203.999C204.704 0.846324 205.198 1.12843 205.48 1.69265L232.774 46.7596C232.915 46.9712 233.056 47.077 233.197 47.077C233.338 47.0064 233.409 46.8301 233.409 46.548L233.303 2.11582Z" fill="#283596"/>
<path d="M261.78 74.9C261.427 74.9 261.11 74.7942 260.827 74.5826C260.616 74.3005 260.51 73.9831 260.51 73.6305V2.11582C260.51 1.76318 260.616 1.48107 260.827 1.26949C261.11 0.987379 261.427 0.846324 261.78 0.846324H288.227C293.517 0.846324 298.136 1.79844 302.086 3.70268C306.106 5.53639 309.209 8.1459 311.396 11.5312C313.582 14.9165 314.675 18.8308 314.675 23.274V52.4723C314.675 56.9155 313.582 60.8298 311.396 64.2151C309.209 67.6004 306.106 70.2452 302.086 72.1494C298.136 73.9831 293.517 74.9 288.227 74.9H261.78ZM275.427 61.5703C275.427 61.923 275.603 62.0993 275.956 62.0993H288.756C292.001 62.0993 294.61 61.0061 296.585 58.8198C298.63 56.6334 299.688 53.7065 299.759 50.0391V25.7072C299.759 22.0398 298.736 19.1129 296.691 16.9265C294.716 14.7402 292.036 13.647 288.651 13.647H275.956C275.603 13.647 275.427 13.8233 275.427 14.176V61.5703Z" fill="#283596"/>
<path d="M433.476 74.9C432.771 74.9 432.277 74.5826 431.995 73.9478L418.771 44.6438C418.63 44.3617 418.418 44.2206 418.136 44.2206H408.298C407.945 44.2206 407.769 44.3969 407.769 44.7496V73.6305C407.769 73.9831 407.628 74.3005 407.345 74.5826C407.134 74.7942 406.852 74.9 406.499 74.9H394.122C393.769 74.9 393.452 74.7942 393.169 74.5826C392.958 74.3005 392.852 73.9831 392.852 73.6305V2.11582C392.852 1.76318 392.958 1.48107 393.169 1.26949C393.452 0.987379 393.769 0.846324 394.122 0.846324H424.378C428.892 0.846324 432.841 1.76318 436.226 3.59689C439.682 5.4306 442.327 8.04011 444.161 11.4254C446.065 14.8107 447.017 18.725 447.017 23.1682C447.017 27.9641 445.818 32.0899 443.42 35.5457C441.022 38.9311 437.672 41.329 433.37 42.7395C433.017 42.8806 432.912 43.1274 433.053 43.4801L447.44 73.4189C447.581 73.701 447.652 73.9126 447.652 74.0536C447.652 74.6179 447.264 74.9 446.488 74.9H433.476ZM408.298 13.647C407.945 13.647 407.769 13.8233 407.769 14.176V32.2662C407.769 32.6189 407.945 32.7952 408.298 32.7952H422.156C425.118 32.7952 427.516 31.9136 429.35 30.1504C431.254 28.3872 432.206 26.0951 432.206 23.274C432.206 20.4529 431.254 18.1608 429.35 16.3976C427.516 14.5639 425.118 13.647 422.156 13.647H408.298Z" fill="#283596"/>
<path d="M459.104 74.9C458.752 74.9 458.434 74.7942 458.152 74.5826C457.941 74.3005 457.835 73.9831 457.835 73.6305V2.11582C457.835 1.76318 457.941 1.48107 458.152 1.26949C458.434 0.987379 458.752 0.846324 459.104 0.846324H485.552C490.842 0.846324 495.461 1.79844 499.411 3.70268C503.431 5.53639 506.534 8.1459 508.72 11.5312C510.907 14.9165 512 18.8308 512 23.274V52.4723C512 56.9155 510.907 60.8298 508.72 64.2151C506.534 67.6004 503.431 70.2452 499.411 72.1494C495.461 73.9831 490.842 74.9 485.552 74.9H459.104ZM472.751 61.5703C472.751 61.923 472.928 62.0993 473.28 62.0993H486.081C489.325 62.0993 491.935 61.0061 493.91 58.8198C495.955 56.6334 497.013 53.7065 497.083 50.0391V25.7072C497.083 22.0398 496.061 19.1129 494.015 16.9265C492.041 14.7402 489.361 13.647 485.975 13.647H473.28C472.928 13.647 472.751 13.8233 472.751 14.176V61.5703Z" fill="#283596"/>
<path d="M370.782 74.9C370.077 74.9 369.618 74.5473 369.407 73.8421L361.628 50.8854L342.944 51.0036L336.083 73.8421C335.871 74.5473 335.413 74.9 334.707 74.9H321.272C320.849 74.9 320.531 74.7942 320.32 74.5826C320.108 74.3005 320.073 73.9126 320.214 73.4189L343.065 1.90423C343.276 1.19896 343.735 0.846324 344.44 0.846324H361.049C361.755 0.846324 362.213 1.19896 362.425 1.90423L385.275 73.4189C385.346 73.5599 385.381 73.7363 385.381 73.9478C385.381 74.5826 384.993 74.9 384.218 74.9H370.782ZM342.944 51.0036L361.628 50.8854L352.903 19.4655C352.833 19.1834 352.727 19.0776 352.586 19.1482C352.445 19.1482 352.339 19.2539 352.269 19.4655L342.944 51.0036Z" fill="#283596"/>
</svg>
