<svg width="104" height="23" viewBox="0 0 104 23" fill="none" xmlns="http://www.w3.org/2000/svg">
<path d="M3.71 14.024C2.96333 14.024 2.31 13.9073 1.75 13.674C1.19 13.4313 0.756 13.0907 0.448 12.652C0.149333 12.204 0 11.686 0 11.098V10.79C0 10.7433 0.014 10.706 0.042 10.678C0.0793333 10.6407 0.121333 10.622 0.168 10.622H1.764C1.81067 10.622 1.848 10.6407 1.876 10.678C1.91333 10.706 1.932 10.7433 1.932 10.79V11C1.932 11.3733 2.10467 11.6907 2.45 11.952C2.79533 12.204 3.262 12.33 3.85 12.33C4.34467 12.33 4.71333 12.2273 4.956 12.022C5.19867 11.8073 5.32 11.546 5.32 11.238C5.32 11.014 5.24533 10.8273 5.096 10.678C4.94667 10.5193 4.74133 10.384 4.48 10.272C4.228 10.1507 3.822 9.98733 3.262 9.782C2.63667 9.56733 2.10467 9.348 1.666 9.124C1.23667 8.9 0.872667 8.59667 0.574 8.214C0.284667 7.822 0.14 7.34133 0.14 6.772C0.14 6.212 0.284667 5.722 0.574 5.302C0.863333 4.882 1.26467 4.56 1.778 4.336C2.29133 4.112 2.884 4 3.556 4C4.26533 4 4.89533 4.126 5.446 4.378C6.006 4.63 6.44 4.98467 6.748 5.442C7.06533 5.89 7.224 6.41267 7.224 7.01V7.22C7.224 7.26667 7.20533 7.30867 7.168 7.346C7.14 7.374 7.10267 7.388 7.056 7.388H5.446C5.39933 7.388 5.35733 7.374 5.32 7.346C5.292 7.30867 5.278 7.26667 5.278 7.22V7.108C5.278 6.716 5.11467 6.38467 4.788 6.114C4.47067 5.834 4.032 5.694 3.472 5.694C3.03333 5.694 2.688 5.78733 2.436 5.974C2.19333 6.16067 2.072 6.41733 2.072 6.744C2.072 6.97733 2.142 7.17333 2.282 7.332C2.43133 7.49067 2.646 7.63533 2.926 7.766C3.21533 7.88733 3.65867 8.05533 4.256 8.27C4.91867 8.51267 5.43667 8.72733 5.81 8.914C6.19267 9.10067 6.53333 9.38067 6.832 9.754C7.14 10.118 7.294 10.594 7.294 11.182C7.294 12.0593 6.972 12.7547 6.328 13.268C5.684 13.772 4.81133 14.024 3.71 14.024Z" fill="white"/>
<path d="M15.3288 4.112C15.3755 4.112 15.4128 4.13067 15.4408 4.168C15.4781 4.196 15.4968 4.23333 15.4968 4.28V5.652C15.4968 5.69867 15.4781 5.74067 15.4408 5.778C15.4128 5.806 15.3755 5.82 15.3288 5.82H12.8228C12.7761 5.82 12.7528 5.84333 12.7528 5.89V13.744C12.7528 13.7907 12.7341 13.8327 12.6968 13.87C12.6688 13.898 12.6315 13.912 12.5848 13.912H10.9468C10.9001 13.912 10.8581 13.898 10.8208 13.87C10.7928 13.8327 10.7788 13.7907 10.7788 13.744V5.89C10.7788 5.84333 10.7555 5.82 10.7088 5.82H8.2728C8.22613 5.82 8.18413 5.806 8.1468 5.778C8.1188 5.74067 8.1048 5.69867 8.1048 5.652V4.28C8.1048 4.23333 8.1188 4.196 8.1468 4.168C8.18413 4.13067 8.22613 4.112 8.2728 4.112H15.3288Z" fill="white"/>
<path d="M22.1328 13.9681C22.0395 13.9681 21.9788 13.9214 21.9508 13.8281L20.9213 10.7901L18.4489 10.8057L17.5408 13.8281C17.5128 13.9214 17.4521 13.9681 17.3588 13.9681H15.5808C15.5248 13.9681 15.4828 13.9541 15.4548 13.9261C15.4268 13.8888 15.4221 13.8374 15.4408 13.7721L18.4648 4.3081C18.4928 4.21476 18.5535 4.1681 18.6468 4.1681H20.8448C20.9381 4.1681 20.9988 4.21476 21.0268 4.3081L24.0508 13.7721C24.0601 13.7908 24.0648 13.8141 24.0648 13.8421C24.0648 13.9261 24.0135 13.9681 23.9108 13.9681H22.1328ZM18.4489 10.8057L20.9213 10.7901L19.7668 6.6321C19.7575 6.59476 19.7435 6.58076 19.7248 6.5901C19.7061 6.5901 19.6921 6.6041 19.6828 6.6321L18.4489 10.8057Z" fill="white"/>
<path d="M30.8745 4.28C30.8745 4.23333 30.8885 4.196 30.9165 4.168C30.9538 4.13067 30.9958 4.112 31.0425 4.112H32.6805C32.7272 4.112 32.7645 4.13067 32.7925 4.168C32.8298 4.196 32.8485 4.23333 32.8485 4.28V13.744C32.8485 13.7907 32.8298 13.8327 32.7925 13.87C32.7645 13.898 32.7272 13.912 32.6805 13.912H31.0985C31.0052 13.912 30.9398 13.8747 30.9025 13.8L27.2765 7.808C27.2578 7.78 27.2392 7.77067 27.2205 7.78C27.2018 7.78 27.1925 7.79867 27.1925 7.836L27.2205 13.744C27.2205 13.7907 27.2018 13.8327 27.1645 13.87C27.1365 13.898 27.0992 13.912 27.0525 13.912H25.4145C25.3678 13.912 25.3258 13.898 25.2885 13.87C25.2605 13.8327 25.2465 13.7907 25.2465 13.744V4.28C25.2465 4.23333 25.2605 4.196 25.2885 4.168C25.3258 4.13067 25.3678 4.112 25.4145 4.112H26.9965C27.0898 4.112 27.1552 4.14933 27.1925 4.224L30.8045 10.188C30.8232 10.216 30.8418 10.23 30.8605 10.23C30.8792 10.2207 30.8885 10.1973 30.8885 10.16L30.8745 4.28Z" fill="white"/>
<path d="M34.643 13.912C34.5963 13.912 34.5543 13.898 34.517 13.87C34.489 13.8327 34.475 13.7907 34.475 13.744V4.28C34.475 4.23333 34.489 4.196 34.517 4.168C34.5543 4.13067 34.5963 4.112 34.643 4.112H38.143C38.843 4.112 39.4543 4.238 39.977 4.49C40.509 4.73267 40.9197 5.078 41.209 5.526C41.4983 5.974 41.643 6.492 41.643 7.08V10.944C41.643 11.532 41.4983 12.05 41.209 12.498C40.9197 12.946 40.509 13.296 39.977 13.548C39.4543 13.7907 38.843 13.912 38.143 13.912H34.643ZM36.449 12.148C36.449 12.1947 36.4723 12.218 36.519 12.218H38.213C38.6423 12.218 38.9877 12.0733 39.249 11.784C39.5197 11.4947 39.6597 11.1073 39.669 10.622V7.402C39.669 6.91667 39.5337 6.52933 39.263 6.24C39.0017 5.95067 38.647 5.806 38.199 5.806H36.519C36.4723 5.806 36.449 5.82933 36.449 5.876V12.148Z" fill="white"/>
<path d="M57.3647 13.912C57.2713 13.912 57.206 13.87 57.1687 13.786L55.4187 9.908C55.4 9.87067 55.372 9.852 55.3347 9.852H54.0327C53.986 9.852 53.9627 9.87533 53.9627 9.922V13.744C53.9627 13.7907 53.944 13.8327 53.9067 13.87C53.8787 13.898 53.8413 13.912 53.7947 13.912H52.1567C52.11 13.912 52.068 13.898 52.0307 13.87C52.0027 13.8327 51.9887 13.7907 51.9887 13.744V4.28C51.9887 4.23333 52.0027 4.196 52.0307 4.168C52.068 4.13067 52.11 4.112 52.1567 4.112H56.1607C56.758 4.112 57.2807 4.23333 57.7287 4.476C58.186 4.71867 58.536 5.064 58.7787 5.512C59.0307 5.96 59.1567 6.478 59.1567 7.066C59.1567 7.70067 58.998 8.24667 58.6807 8.704C58.3633 9.152 57.92 9.46933 57.3507 9.656C57.304 9.67467 57.29 9.70733 57.3087 9.754L59.2127 13.716C59.2313 13.7533 59.2407 13.7813 59.2407 13.8C59.2407 13.8747 59.1893 13.912 59.0867 13.912H57.3647ZM54.0327 5.806C53.986 5.806 53.9627 5.82933 53.9627 5.876V8.27C53.9627 8.31667 53.986 8.34 54.0327 8.34H55.8667C56.2587 8.34 56.576 8.22333 56.8187 7.99C57.0707 7.75667 57.1967 7.45333 57.1967 7.08C57.1967 6.70667 57.0707 6.40333 56.8187 6.17C56.576 5.92733 56.2587 5.806 55.8667 5.806H54.0327Z" fill="white"/>
<path d="M60.7563 13.912C60.7096 13.912 60.6676 13.898 60.6303 13.87C60.6023 13.8327 60.5883 13.7907 60.5883 13.744V4.28C60.5883 4.23333 60.6023 4.196 60.6303 4.168C60.6676 4.13067 60.7096 4.112 60.7563 4.112H64.2563C64.9563 4.112 65.5676 4.238 66.0903 4.49C66.6223 4.73267 67.0329 5.078 67.3223 5.526C67.6116 5.974 67.7563 6.492 67.7563 7.08V10.944C67.7563 11.532 67.6116 12.05 67.3223 12.498C67.0329 12.946 66.6223 13.296 66.0903 13.548C65.5676 13.7907 64.9563 13.912 64.2563 13.912H60.7563ZM62.5623 12.148C62.5623 12.1947 62.5856 12.218 62.6323 12.218H64.3263C64.7556 12.218 65.1009 12.0733 65.3623 11.784C65.6329 11.4947 65.7729 11.1073 65.7823 10.622V7.402C65.7823 6.91667 65.6469 6.52933 65.3763 6.24C65.1149 5.95067 64.7603 5.806 64.3123 5.806H62.6323C62.5856 5.806 62.5623 5.82933 62.5623 5.876V12.148Z" fill="white"/>
<path d="M49.068 13.912C48.9747 13.912 48.914 13.8653 48.886 13.772L47.8565 10.734L45.3841 10.7496L44.476 13.772C44.448 13.8653 44.3873 13.912 44.294 13.912H42.516C42.46 13.912 42.418 13.898 42.39 13.87C42.362 13.8327 42.3573 13.7813 42.376 13.716L45.4 4.252C45.428 4.15867 45.4887 4.112 45.582 4.112H47.78C47.8733 4.112 47.934 4.15867 47.962 4.252L50.986 13.716C50.9953 13.7347 51 13.758 51 13.786C51 13.87 50.9487 13.912 50.846 13.912H49.068ZM45.3841 10.7496L47.8565 10.734L46.702 6.576C46.6927 6.53867 46.6787 6.52467 46.66 6.534C46.6413 6.534 46.6273 6.548 46.618 6.576L45.3841 10.7496Z" fill="white"/>
<path d="M58.835 17.5775C58.8551 17.5775 58.8711 17.5848 58.8832 17.5995C58.8993 17.6106 58.9073 17.6253 58.9073 17.6437V18.1848C58.9073 18.2032 58.8993 18.2198 58.8832 18.2345C58.8711 18.2455 58.8551 18.251 58.835 18.251H57.7554C57.7353 18.251 57.7253 18.2602 57.7253 18.2786V21.376C57.7253 21.3944 57.7173 21.411 57.7012 21.4257C57.6891 21.4367 57.673 21.4423 57.6529 21.4423H56.9473C56.9272 21.4423 56.9091 21.4367 56.893 21.4257C56.881 21.411 56.875 21.3944 56.875 21.376V18.2786C56.875 18.2602 56.8649 18.251 56.8448 18.251H55.7954C55.7753 18.251 55.7572 18.2455 55.7412 18.2345C55.7291 18.2198 55.7231 18.2032 55.7231 18.1848V17.6437C55.7231 17.6253 55.7291 17.6106 55.7412 17.5995C55.7572 17.5848 55.7753 17.5775 55.7954 17.5775H58.835Z" fill="white"/>
<path d="M61.7448 21.4423C61.7046 21.4423 61.6785 21.4238 61.6665 21.387L61.4855 20.846C61.4775 20.8312 61.4674 20.8239 61.4554 20.8239H59.9718C59.9597 20.8239 59.9497 20.8312 59.9416 20.846L59.7668 21.387C59.7547 21.4238 59.7286 21.4423 59.6884 21.4423H58.9224C58.8983 21.4423 58.8802 21.4367 58.8682 21.4257C58.8561 21.411 58.8541 21.3907 58.8621 21.365L60.1648 17.6327C60.1768 17.5959 60.203 17.5775 60.2432 17.5775H61.19C61.2302 17.5775 61.2564 17.5959 61.2684 17.6327L62.5711 21.365C62.5751 21.3723 62.5771 21.3815 62.5771 21.3926C62.5771 21.4257 62.555 21.4423 62.5108 21.4423H61.7448ZM60.1588 20.189C60.1547 20.211 60.1628 20.2221 60.1829 20.2221H61.2443C61.2684 20.2221 61.2765 20.211 61.2684 20.189L60.7256 18.5492C60.7216 18.5345 60.7156 18.5289 60.7076 18.5326C60.6995 18.5326 60.6935 18.5381 60.6895 18.5492L60.1588 20.189Z" fill="white"/>
<path d="M62.9866 21.4423C62.9584 21.4423 62.9383 21.4349 62.9263 21.4202C62.9142 21.4054 62.9162 21.387 62.9323 21.365L64.1023 19.5264C64.1103 19.5154 64.1103 19.5043 64.1023 19.4933L62.9323 17.6548L62.9202 17.6216C62.9202 17.5922 62.9424 17.5775 62.9866 17.5775H63.7525C63.7927 17.5775 63.8228 17.5922 63.8429 17.6216L64.6269 18.886C64.639 18.9081 64.6511 18.9081 64.6631 18.886L65.4471 17.6216C65.4672 17.5922 65.4974 17.5775 65.5376 17.5775H66.2975C66.3256 17.5775 66.3457 17.5848 66.3578 17.5995C66.3698 17.6143 66.3678 17.6327 66.3517 17.6548L65.1818 19.4933C65.1778 19.5043 65.1778 19.5154 65.1818 19.5264L66.3517 21.365L66.3638 21.3981C66.3638 21.4275 66.3417 21.4423 66.2975 21.4423H65.5376C65.4974 21.4423 65.4672 21.4275 65.4471 21.3981L64.6631 20.1393C64.6511 20.1172 64.639 20.1172 64.6269 20.1393L63.8369 21.3981C63.8168 21.4275 63.7867 21.4423 63.7464 21.4423H62.9866Z" fill="white"/>
<path fill-rule="evenodd" clip-rule="evenodd" d="M54.4308 16.3944V19.5V22.6056H67.5692V16.3944H54.4308ZM54.1077 16C54.0482 16 54 16.0441 54 16.0986V22.9014C54 22.9559 54.0482 23 54.1077 23H67.8923C67.9518 23 68 22.9559 68 22.9014V16.0986C68 16.0441 67.9518 16 67.8923 16H54.1077Z" fill="white"/>
</svg>
