<svg width="104" height="18" viewBox="0 0 104 18" fill="none" xmlns="http://www.w3.org/2000/svg">
<path d="M3.71 14.024C2.96333 14.024 2.31 13.9073 1.75 13.674C1.19 13.4313 0.756 13.0907 0.448 12.652C0.149333 12.204 0 11.686 0 11.098V10.79C0 10.7433 0.014 10.706 0.042 10.678C0.0793333 10.6407 0.121333 10.622 0.168 10.622H1.764C1.81067 10.622 1.848 10.6407 1.876 10.678C1.91333 10.706 1.932 10.7433 1.932 10.79V11C1.932 11.3733 2.10467 11.6907 2.45 11.952C2.79533 12.204 3.262 12.33 3.85 12.33C4.34467 12.33 4.71333 12.2273 4.956 12.022C5.19867 11.8073 5.32 11.546 5.32 11.238C5.32 11.014 5.24533 10.8273 5.096 10.678C4.94667 10.5193 4.74133 10.384 4.48 10.272C4.228 10.1507 3.822 9.98733 3.262 9.782C2.63667 9.56733 2.10467 9.348 1.666 9.124C1.23667 8.9 0.872667 8.59667 0.574 8.214C0.284667 7.822 0.14 7.34133 0.14 6.772C0.14 6.212 0.284667 5.722 0.574 5.302C0.863333 4.882 1.26467 4.56 1.778 4.336C2.29133 4.112 2.884 4 3.556 4C4.26533 4 4.89533 4.126 5.446 4.378C6.006 4.63 6.44 4.98467 6.748 5.442C7.06533 5.89 7.224 6.41267 7.224 7.01V7.22C7.224 7.26667 7.20533 7.30867 7.168 7.346C7.14 7.374 7.10267 7.388 7.056 7.388H5.446C5.39933 7.388 5.35733 7.374 5.32 7.346C5.292 7.30867 5.278 7.26667 5.278 7.22V7.108C5.278 6.716 5.11467 6.38467 4.788 6.114C4.47067 5.834 4.032 5.694 3.472 5.694C3.03333 5.694 2.688 5.78733 2.436 5.974C2.19333 6.16067 2.072 6.41733 2.072 6.744C2.072 6.97733 2.142 7.17333 2.282 7.332C2.43133 7.49067 2.646 7.63533 2.926 7.766C3.21533 7.88733 3.65867 8.05533 4.256 8.27C4.91867 8.51267 5.43667 8.72733 5.81 8.914C6.19267 9.10067 6.53333 9.38067 6.832 9.754C7.14 10.118 7.294 10.594 7.294 11.182C7.294 12.0593 6.972 12.7547 6.328 13.268C5.684 13.772 4.81133 14.024 3.71 14.024Z" fill="white"/>
<path d="M15.3288 4.112C15.3755 4.112 15.4128 4.13067 15.4408 4.168C15.4781 4.196 15.4968 4.23333 15.4968 4.28V5.652C15.4968 5.69867 15.4781 5.74067 15.4408 5.778C15.4128 5.806 15.3755 5.82 15.3288 5.82H12.8228C12.7761 5.82 12.7528 5.84333 12.7528 5.89V13.744C12.7528 13.7907 12.7341 13.8327 12.6968 13.87C12.6688 13.898 12.6315 13.912 12.5848 13.912H10.9468C10.9001 13.912 10.8581 13.898 10.8208 13.87C10.7928 13.8327 10.7788 13.7907 10.7788 13.744V5.89C10.7788 5.84333 10.7555 5.82 10.7088 5.82H8.2728C8.22613 5.82 8.18413 5.806 8.1468 5.778C8.1188 5.74067 8.1048 5.69867 8.1048 5.652V4.28C8.1048 4.23333 8.1188 4.196 8.1468 4.168C8.18413 4.13067 8.22613 4.112 8.2728 4.112H15.3288Z" fill="white"/>
<path d="M22.1328 13.9681C22.0395 13.9681 21.9788 13.9214 21.9508 13.8281L20.9213 10.7901L18.4489 10.8057L17.5408 13.8281C17.5128 13.9214 17.4521 13.9681 17.3588 13.9681H15.5808C15.5248 13.9681 15.4828 13.9541 15.4548 13.9261C15.4268 13.8888 15.4221 13.8374 15.4408 13.7721L18.4648 4.3081C18.4928 4.21476 18.5535 4.1681 18.6468 4.1681H20.8448C20.9381 4.1681 20.9988 4.21476 21.0268 4.3081L24.0508 13.7721C24.0601 13.7908 24.0648 13.8141 24.0648 13.8421C24.0648 13.9261 24.0135 13.9681 23.9108 13.9681H22.1328ZM18.4489 10.8057L20.9213 10.7901L19.7668 6.6321C19.7575 6.59476 19.7435 6.58076 19.7248 6.5901C19.7061 6.5901 19.6921 6.6041 19.6828 6.6321L18.4489 10.8057Z" fill="white"/>
<path d="M30.8745 4.28C30.8745 4.23333 30.8885 4.196 30.9165 4.168C30.9538 4.13067 30.9958 4.112 31.0425 4.112H32.6805C32.7272 4.112 32.7645 4.13067 32.7925 4.168C32.8298 4.196 32.8485 4.23333 32.8485 4.28V13.744C32.8485 13.7907 32.8298 13.8327 32.7925 13.87C32.7645 13.898 32.7272 13.912 32.6805 13.912H31.0985C31.0052 13.912 30.9398 13.8747 30.9025 13.8L27.2765 7.808C27.2578 7.78 27.2392 7.77067 27.2205 7.78C27.2018 7.78 27.1925 7.79867 27.1925 7.836L27.2205 13.744C27.2205 13.7907 27.2018 13.8327 27.1645 13.87C27.1365 13.898 27.0992 13.912 27.0525 13.912H25.4145C25.3678 13.912 25.3258 13.898 25.2885 13.87C25.2605 13.8327 25.2465 13.7907 25.2465 13.744V4.28C25.2465 4.23333 25.2605 4.196 25.2885 4.168C25.3258 4.13067 25.3678 4.112 25.4145 4.112H26.9965C27.0898 4.112 27.1552 4.14933 27.1925 4.224L30.8045 10.188C30.8232 10.216 30.8418 10.23 30.8605 10.23C30.8792 10.2207 30.8885 10.1973 30.8885 10.16L30.8745 4.28Z" fill="white"/>
<path d="M34.643 13.912C34.5963 13.912 34.5543 13.898 34.517 13.87C34.489 13.8327 34.475 13.7907 34.475 13.744V4.28C34.475 4.23333 34.489 4.196 34.517 4.168C34.5543 4.13067 34.5963 4.112 34.643 4.112H38.143C38.843 4.112 39.4543 4.238 39.977 4.49C40.509 4.73267 40.9197 5.078 41.209 5.526C41.4983 5.974 41.643 6.492 41.643 7.08V10.944C41.643 11.532 41.4983 12.05 41.209 12.498C40.9197 12.946 40.509 13.296 39.977 13.548C39.4543 13.7907 38.843 13.912 38.143 13.912H34.643ZM36.449 12.148C36.449 12.1947 36.4723 12.218 36.519 12.218H38.213C38.6423 12.218 38.9877 12.0733 39.249 11.784C39.5197 11.4947 39.6597 11.1073 39.669 10.622V7.402C39.669 6.91667 39.5337 6.52933 39.263 6.24C39.0017 5.95067 38.647 5.806 38.199 5.806H36.519C36.4723 5.806 36.449 5.82933 36.449 5.876V12.148Z" fill="white"/>
<path d="M57.3647 13.912C57.2713 13.912 57.206 13.87 57.1687 13.786L55.4187 9.908C55.4 9.87067 55.372 9.852 55.3347 9.852H54.0327C53.986 9.852 53.9627 9.87533 53.9627 9.922V13.744C53.9627 13.7907 53.944 13.8327 53.9067 13.87C53.8787 13.898 53.8413 13.912 53.7947 13.912H52.1567C52.11 13.912 52.068 13.898 52.0307 13.87C52.0027 13.8327 51.9887 13.7907 51.9887 13.744V4.28C51.9887 4.23333 52.0027 4.196 52.0307 4.168C52.068 4.13067 52.11 4.112 52.1567 4.112H56.1607C56.758 4.112 57.2807 4.23333 57.7287 4.476C58.186 4.71867 58.536 5.064 58.7787 5.512C59.0307 5.96 59.1567 6.478 59.1567 7.066C59.1567 7.70067 58.998 8.24667 58.6807 8.704C58.3633 9.152 57.92 9.46933 57.3507 9.656C57.304 9.67467 57.29 9.70733 57.3087 9.754L59.2127 13.716C59.2313 13.7533 59.2407 13.7813 59.2407 13.8C59.2407 13.8747 59.1893 13.912 59.0867 13.912H57.3647ZM54.0327 5.806C53.986 5.806 53.9627 5.82933 53.9627 5.876V8.27C53.9627 8.31667 53.986 8.34 54.0327 8.34H55.8667C56.2587 8.34 56.576 8.22333 56.8187 7.99C57.0707 7.75667 57.1967 7.45333 57.1967 7.08C57.1967 6.70667 57.0707 6.40333 56.8187 6.17C56.576 5.92733 56.2587 5.806 55.8667 5.806H54.0327Z" fill="white"/>
<path d="M60.7563 13.912C60.7096 13.912 60.6676 13.898 60.6303 13.87C60.6023 13.8327 60.5883 13.7907 60.5883 13.744V4.28C60.5883 4.23333 60.6023 4.196 60.6303 4.168C60.6676 4.13067 60.7096 4.112 60.7563 4.112H64.2563C64.9563 4.112 65.5676 4.238 66.0903 4.49C66.6223 4.73267 67.0329 5.078 67.3223 5.526C67.6116 5.974 67.7563 6.492 67.7563 7.08V10.944C67.7563 11.532 67.6116 12.05 67.3223 12.498C67.0329 12.946 66.6223 13.296 66.0903 13.548C65.5676 13.7907 64.9563 13.912 64.2563 13.912H60.7563ZM62.5623 12.148C62.5623 12.1947 62.5856 12.218 62.6323 12.218H64.3263C64.7556 12.218 65.1009 12.0733 65.3623 11.784C65.6329 11.4947 65.7729 11.1073 65.7823 10.622V7.402C65.7823 6.91667 65.6469 6.52933 65.3763 6.24C65.1149 5.95067 64.7603 5.806 64.3123 5.806H62.6323C62.5856 5.806 62.5623 5.82933 62.5623 5.876V12.148Z" fill="white"/>
<path d="M49.068 13.912C48.9747 13.912 48.914 13.8653 48.886 13.772L47.8565 10.734L45.3841 10.7496L44.476 13.772C44.448 13.8653 44.3873 13.912 44.294 13.912H42.516C42.46 13.912 42.418 13.898 42.39 13.87C42.362 13.8327 42.3573 13.7813 42.376 13.716L45.4 4.252C45.428 4.15867 45.4887 4.112 45.582 4.112H47.78C47.8733 4.112 47.934 4.15867 47.962 4.252L50.986 13.716C50.9953 13.7347 51 13.758 51 13.786C51 13.87 50.9487 13.912 50.846 13.912H49.068ZM45.3841 10.7496L47.8565 10.734L46.702 6.576C46.6927 6.53867 46.6787 6.52467 46.66 6.534C46.6413 6.534 46.6273 6.548 46.618 6.576L45.3841 10.7496Z" fill="white"/>
<path d="M82.224 4C82.2707 4 82.308 4.01867 82.336 4.056C82.3733 4.084 82.392 4.12133 82.392 4.168V5.54C82.392 5.58667 82.3733 5.62867 82.336 5.666C82.308 5.694 82.2707 5.708 82.224 5.708H79.718C79.6713 5.708 79.648 5.73133 79.648 5.778V13.632C79.648 13.6787 79.6293 13.7207 79.592 13.758C79.564 13.786 79.5267 13.8 79.48 13.8H77.842C77.7953 13.8 77.7533 13.786 77.716 13.758C77.688 13.7207 77.674 13.6787 77.674 13.632V5.778C77.674 5.73133 77.6507 5.708 77.604 5.708H75.168C75.1213 5.708 75.0793 5.694 75.042 5.666C75.014 5.62867 75 5.58667 75 5.54V4.168C75 4.12133 75.014 4.084 75.042 4.056C75.0793 4.01867 75.1213 4 75.168 4H82.224Z" fill="white"/>
<path d="M88.9791 13.8C88.8858 13.8 88.8251 13.7533 88.7971 13.66L88.3771 12.288C88.3584 12.2507 88.3351 12.232 88.3071 12.232H84.8631C84.8351 12.232 84.8118 12.2507 84.7931 12.288L84.3871 13.66C84.3591 13.7533 84.2984 13.8 84.2051 13.8H82.4271C82.3711 13.8 82.3291 13.786 82.3011 13.758C82.2731 13.7207 82.2684 13.6693 82.2871 13.604L85.3111 4.14C85.3391 4.04667 85.3998 4 85.4931 4H87.6911C87.7844 4 87.8451 4.04667 87.8731 4.14L90.8971 13.604C90.9064 13.6227 90.9111 13.646 90.9111 13.674C90.9111 13.758 90.8598 13.8 90.7571 13.8H88.9791ZM85.2971 10.622C85.2878 10.678 85.3064 10.706 85.3531 10.706H87.8171C87.8731 10.706 87.8918 10.678 87.8731 10.622L86.6131 6.464C86.6038 6.42667 86.5898 6.41267 86.5711 6.422C86.5524 6.422 86.5384 6.436 86.5291 6.464L85.2971 10.622Z" fill="white"/>
<path d="M91.8617 13.8C91.7964 13.8 91.7497 13.7813 91.7217 13.744C91.6937 13.7067 91.6984 13.66 91.7357 13.604L94.4517 8.942C94.4704 8.914 94.4704 8.886 94.4517 8.858L91.7357 4.196L91.7077 4.112C91.7077 4.03733 91.759 4 91.8617 4H93.6397C93.733 4 93.803 4.03733 93.8497 4.112L95.6697 7.318C95.6977 7.374 95.7257 7.374 95.7537 7.318L97.5737 4.112C97.6204 4.03733 97.6904 4 97.7837 4H99.5477C99.613 4 99.6597 4.01867 99.6877 4.056C99.7157 4.09333 99.711 4.14 99.6737 4.196L96.9577 8.858C96.9484 8.886 96.9484 8.914 96.9577 8.942L99.6737 13.604L99.7017 13.688C99.7017 13.7627 99.6504 13.8 99.5477 13.8H97.7837C97.6904 13.8 97.6204 13.7627 97.5737 13.688L95.7537 10.496C95.7257 10.44 95.6977 10.44 95.6697 10.496L93.8357 13.688C93.789 13.7627 93.719 13.8 93.6257 13.8H91.8617Z" fill="white"/>
<path fill-rule="evenodd" clip-rule="evenodd" d="M72 1V16.75H102.5V1H72ZM71.25 0C71.1119 0 71 0.111929 71 0.25V17.5C71 17.6381 71.1119 17.75 71.25 17.75H103.25C103.388 17.75 103.5 17.6381 103.5 17.5V0.25C103.5 0.111929 103.388 0 103.25 0H71.25Z" fill="white"/>
</svg>
