<svg width="59" height="87" viewBox="0 0 59 87" fill="none" xmlns="http://www.w3.org/2000/svg">
<rect x="0.585367" y="0.658548" width="57.366" height="57.366" rx="28.683" stroke="white" stroke-width="1.17073"/>
<path d="M21.0095 40.4384H37.8159V36.5969H27.3319V36.4049L32.1657 31.9872C36.1513 28.3218 37.4798 26.4971 37.4798 23.696V23.664C37.4798 19.7265 34.1185 16.9414 29.2366 16.9414C24.3547 16.9414 20.7374 19.9986 20.7374 24.3523V24.4803H25.2191L25.2351 24.3363C25.2991 22.2555 26.8997 20.7029 29.2686 20.7029C31.3174 20.7029 32.758 22.0474 32.774 23.9361V23.9681C32.774 25.5687 32.1497 26.7052 29.1726 29.4902L21.0095 37.1251V40.4384Z" fill="white"/>
<line x1="29.8539" y1="63.2918" x2="29.8539" y2="86.7065" stroke="white" stroke-opacity="0.15" stroke-width="1.17073"/>
</svg>
