<svg width="63" height="91" viewBox="0 0 63 91" fill="none" xmlns="http://www.w3.org/2000/svg">
<rect x="1.00098" y="1" width="60.7047" height="60.7047" rx="30.3523" stroke="white"/>
<path d="M23.091 42.712H40.5199V38.7283H29.6476V38.5291L34.6605 33.9478C38.7936 30.1466 40.1713 28.2544 40.1713 25.3496V25.3164C40.1713 21.233 36.6855 18.3448 31.6229 18.3448C26.5602 18.3448 22.8088 21.5152 22.8088 26.0301V26.1629H27.4565L27.4731 26.0135C27.5395 23.8557 29.1994 22.2456 31.6561 22.2456C33.7807 22.2456 35.2746 23.6399 35.2912 25.5985V25.6317C35.2912 27.2916 34.6439 28.4702 31.5565 31.3584L23.091 39.2761V42.712Z" fill="white"/>
<line x1="31.9596" y1="66.5602" x2="31.9596" y2="90.8421" stroke="white" stroke-width="1.21409"/>
</svg>
