<svg width="61" height="90" viewBox="0 0 61 90" fill="none" xmlns="http://www.w3.org/2000/svg">
<rect x="0.608023" y="0.607047" width="59.4906" height="59.4906" rx="29.7453" stroke="white" stroke-width="1.21409"/>
<path d="M30.5565 42.127C36.1503 42.127 39.8685 39.2388 39.8685 34.9563V34.9231C39.8685 31.6697 37.5446 29.6114 33.9924 29.2794V29.1798C36.7977 28.5989 38.9887 26.6568 38.9887 23.669V23.6358C38.9887 19.8678 35.6689 17.3448 30.5067 17.3448C25.4772 17.3448 22.1076 20.067 21.7756 24.2168L21.759 24.416H26.3569L26.3735 24.2666C26.5727 22.4075 28.1662 21.1958 30.5067 21.1958C32.8637 21.1958 34.2414 22.3577 34.2414 24.2998V24.333C34.2414 26.275 32.6147 27.6029 30.1083 27.6029H27.4359V31.1717H30.1747C33.0629 31.1717 34.7726 32.4332 34.7726 34.7239V34.7571C34.7726 36.7158 33.1127 38.0935 30.5399 38.0935C27.9504 38.0935 26.2573 36.8154 26.0416 35.1057L26.0084 34.9231H21.2279L21.2445 35.1389C21.5765 39.272 25.1286 42.127 30.5565 42.127Z" fill="white"/>
<line x1="30.9596" y1="65.5602" x2="30.9596" y2="89.8421" stroke="white" stroke-width="1.21409"/>
</svg>
