<svg width="61" height="61" viewBox="0 0 61 61" fill="none" xmlns="http://www.w3.org/2000/svg">
<rect x="0.607047" y="0.90209" width="59.4906" height="59.4906" rx="29.7453" stroke="white" stroke-width="1.21409"/>
<path d="M30.9216 42.423C36.3993 42.423 40.1838 39.0202 40.1838 34.0074V33.9742C40.1838 29.4593 36.8972 26.1893 32.3491 26.1893C29.9257 26.1893 27.9504 27.1686 26.9545 28.7787H26.8549L27.4358 22.0395H38.7397V18.0558H23.4521L22.3566 32.1151H26.7221C27.0043 31.6171 27.386 31.1524 27.8674 30.7872C28.6808 30.1398 29.7265 29.7746 30.9548 29.7746C33.5442 29.7746 35.3867 31.5507 35.4033 34.0738V34.107C35.4033 36.6632 33.5608 38.4559 30.9382 38.4559C28.631 38.4559 26.9545 37.0616 26.6059 35.2523L26.5727 35.1361H21.9416L21.9582 35.3851C22.257 39.3854 25.7095 42.423 30.9216 42.423Z" fill="white"/>
</svg>
