<svg width="237" height="148" viewBox="0 0 237 148" fill="none" xmlns="http://www.w3.org/2000/svg">
<path fill-rule="evenodd" clip-rule="evenodd" d="M43.5571 21.2898C38.3164 21.7266 34.6239 22.7252 30.902 24.7121C28.0263 26.2472 26.8516 27.7862 25.6653 31.5729C24.8824 34.0706 24.8297 34.9785 25.3024 37.8304C25.9654 41.8312 27.2484 43.2148 31.9765 45.0282C37.455 47.1296 40.1895 47.6777 46.7011 47.9798C51.7287 48.2126 53.9146 48.0892 57.0762 47.3933C62.7446 46.1457 68.3219 43.8966 71.643 41.5179L72.8224 40.6734C73.8715 39.9223 74.4939 38.7113 74.4939 37.4211V34.2654C74.4939 27.9472 73.717 26.4101 69.4186 24.2252C64.1789 21.5611 54.0715 20.4138 43.5571 21.2898ZM60.7238 24.1311C70.0609 26.031 74.9114 30.4828 71.3206 33.856C68.287 36.7058 57.7464 40.0284 51.7191 40.035C46.9481 40.0401 36.5167 38.2166 33.3799 36.8293C28.4514 34.6495 26.426 30.4959 29.077 28.0049C30.6307 26.5458 34.4326 24.9196 38.2147 24.0977C42.712 23.1204 55.8525 23.1397 60.7238 24.1311ZM44.9712 24.1807C44.7855 24.3659 44.6337 24.9201 44.6337 25.4116C44.6337 25.9035 44.163 26.4546 43.588 26.6373C42.0156 27.1364 39.0665 29.9033 39.0665 30.8801C39.0665 32.5608 40.1713 32.953 44.9095 32.953C48.895 32.953 49.6649 33.0937 50.4539 33.9652C51.3456 34.9506 51.3381 34.9775 50.1528 34.9744C49.4832 34.9729 48.0519 34.7264 46.9714 34.4263C45.3503 33.9764 44.8675 34.0204 44.2095 34.6789C43.6817 35.2062 43.582 35.6465 43.914 35.9786C44.5507 36.6152 49.1987 37.508 51.875 37.508C53.0355 37.508 54.3028 37.8572 54.8104 38.3168C55.858 39.2647 56.7802 38.872 56.7802 37.4781C56.7802 36.9376 56.9902 36.4958 57.2473 36.4958C57.5044 36.4958 58.4276 35.8961 59.2981 35.1632C62.5513 32.4262 60.3973 30.4417 54.1601 30.4301C50.5693 30.423 50.1948 30.3213 49.2256 29.0889C48.6486 28.3556 48.1764 27.5585 48.1764 27.3175C48.1764 27.0766 49.3014 26.8798 50.677 26.8798C53.2399 26.8798 54.4172 26.1257 53.1757 25.2785C52.792 25.0168 51.1842 24.9055 49.6026 25.031C47.4461 25.2021 46.6591 25.0821 46.4556 24.5512C46.1646 23.7931 45.5199 23.6321 44.9712 24.1807ZM46.0507 29.0055C46.3848 29.3395 46.6581 29.7848 46.6581 29.9949C46.6581 30.5799 43.3456 31.0698 42.0884 30.671C40.9942 30.3238 41.0003 30.2995 42.424 29.3607C44.1017 28.2549 45.1929 28.1476 46.0507 29.0055ZM58.0014 33.5042C58.2651 33.7461 57.8455 34.1627 57.0231 34.4754C55.7665 34.9532 55.4238 34.8636 54.3331 33.7724V33.7724C53.9249 33.3642 54.2644 32.6705 54.8372 32.7423L55.3109 32.8017C56.5367 32.9551 57.7473 33.2714 58.0014 33.5042ZM71.6207 39.4125C70.7841 40.0284 70.6829 39.9434 70.5361 38.4995C70.4329 37.4873 70.7092 36.5343 71.2953 35.8829C72.2052 34.8707 72.2184 34.8818 72.3799 36.7959C72.4998 38.216 72.2974 38.914 71.6207 39.4125ZM28.9444 38.8219C28.9444 40.406 28.2546 41.5052 27.7788 40.6792C27.6559 40.4662 27.3896 39.1544 27.1882 37.7646L27.0268 36.6544C26.9573 36.1764 27.5245 35.8741 27.8826 36.1982V36.1982C28.5506 36.8025 28.9444 37.7758 28.9444 38.8219ZM68.0769 41.7674C66.1937 42.8793 61.8311 44.5115 58.5338 45.3385C55.3135 46.1462 45.491 46.6316 44.8731 46.0136C44.7177 45.8582 44.4631 44.9462 44.3072 43.9867V43.9867C44.159 43.0723 44.8659 42.2432 45.7922 42.2449L49.7696 42.2522C56.0863 42.2644 60.4257 41.3893 65.637 39.0531L67.0556 38.4172C67.8488 38.0615 68.7565 38.5919 68.8361 39.4575V39.4575C68.954 40.7461 68.749 41.3706 68.0769 41.7674ZM31.8879 40.7192C32.0311 42.4623 31.9552 42.605 31.1287 42.1424C29.9591 41.488 29.8194 38.421 30.9688 38.6381C31.4501 38.7292 31.7861 39.4904 31.8879 40.7192ZM36.0299 42.1222C36.0299 44.099 35.7727 44.3455 34.3 43.7802C33.7665 43.5757 33.4993 42.8388 33.4993 41.5731C33.4993 39.8189 33.5965 39.6913 34.7646 39.9145C35.8553 40.123 36.0299 40.4272 36.0299 42.1222ZM42.7014 43.639C42.9073 45.7985 42.5348 45.9706 39.1298 45.2894C37.6575 44.9948 37.5482 44.8253 37.5482 42.8317V42.8317C37.5482 41.723 38.5612 40.8907 39.6489 41.1057L40.0311 41.1813C42.4448 41.6586 42.5192 41.7269 42.7014 43.639ZM72.1845 43.6283C65.2236 50.9598 43.7039 52.8805 30.7532 47.326C28.5471 46.38 26.5722 45.6057 26.3647 45.6057C25.7068 45.6057 25.3201 48.5118 25.6689 50.8368C25.9821 52.926 26.1851 53.1694 28.6134 54.3598C33.8015 56.903 41.511 58.3773 49.4412 58.3423C58.7039 58.3019 68.6271 55.1326 73.1021 50.7862C74.8168 49.1206 75 48.6884 75 46.3036C75 43.5818 74.6518 42.0629 74.0283 42.0629C73.8319 42.0629 73.0019 42.7674 72.1845 43.6283ZM72.6759 49.7062C71.3687 51.1506 70.9512 50.8818 70.9512 48.5968C70.9512 47.0623 71.2457 46.2874 72.0899 45.6001V45.6001C72.5711 45.2085 73.2942 45.5186 73.3422 46.1372L73.3865 46.7095C73.4948 48.0993 73.2686 49.0508 72.6759 49.7062ZM28.3406 50.0736C28.4327 51.3186 28.2768 52.1851 27.961 52.1851C27.667 52.1851 27.4261 51.5206 27.4261 50.7083C27.4261 49.896 27.2757 48.8397 27.0925 48.3615C26.8582 47.7511 26.9716 47.5623 27.4721 47.7268C27.8962 47.867 28.2485 48.8169 28.3406 50.0736ZM69.4328 49.8454C69.4328 52.0348 69.402 52.0737 66.7758 53.2054C61.4181 55.5137 57.6993 56.3179 51.0865 56.5998L46.1759 56.8086C45.3349 56.8443 44.6337 56.1722 44.6337 55.3305V55.3305C44.6337 54.4808 44.4955 53.426 44.3264 52.9857C44.0582 52.2868 44.6944 52.1851 49.3227 52.1851C54.9683 52.1851 62.0462 50.7579 66.4681 48.7279C67.6812 48.1712 68.8442 47.6964 69.0533 47.6726C69.2623 47.6494 69.4328 48.6272 69.4328 49.8454ZM31.3803 51.6445C31.4977 53.2545 31.3681 53.753 30.8742 53.59C30.5002 53.467 30.1403 52.4249 30.0512 51.2073C29.9338 49.5973 30.0634 49.0988 30.5574 49.2618C30.9314 49.3848 31.2912 50.4268 31.3803 51.6445ZM35.9479 50.6597C36.4626 50.6652 36.5395 51.1835 36.2698 52.8177C36.0739 54.0005 35.8533 55.0365 35.7789 55.12C35.704 55.203 35.047 55.1215 34.3182 54.9383C33.1339 54.6412 32.9932 54.3633 32.9932 52.3242C32.9932 50.2052 33.0742 50.0645 34.132 50.3479C34.758 50.5154 35.5754 50.6561 35.9479 50.6597ZM41.9133 51.6789C43.0141 51.6789 43.1153 51.8865 43.1153 54.1442V54.2581C43.1153 55.4803 42.0054 56.4021 40.804 56.1777V56.1777C37.6828 55.5947 37.5482 55.4672 37.5482 53.1042C37.5482 51.0691 37.5659 51.0499 39.1298 51.3626C39.9998 51.5367 41.2524 51.6789 41.9133 51.6789ZM72.1845 54.2566C70.2244 56.321 66.9408 57.9516 61.4905 59.5676C52.2045 62.3203 39.3438 61.6204 30.572 57.8848C28.2662 56.9025 26.217 56.2617 26.0181 56.4606C25.6203 56.8584 25.4477 61.5683 25.7827 62.8791C26.0034 63.7415 29.9566 65.8889 32.9932 66.7953C37.1949 68.05 44.1574 68.9721 49.3809 68.965C58.6609 68.9529 68.5973 65.7902 73.1021 61.4144C74.8168 59.7488 75 59.3166 75 56.9318C75 54.21 74.6518 52.6912 74.0283 52.6912C73.8319 52.6912 73.0019 53.3957 72.1845 54.2566ZM72.7438 60.0682C71.5681 61.8623 70.9512 61.5723 70.9512 59.225C70.9512 57.691 71.2457 56.9151 72.0899 56.2278C73.2281 55.3012 73.2286 55.3017 73.388 57.071C73.4796 58.0878 73.2053 59.3642 72.7438 60.0682ZM28.3406 60.7018C28.4327 61.9468 28.2768 62.8133 27.961 62.8133C27.667 62.8133 27.4261 62.1488 27.4261 61.3365C27.4261 60.5242 27.2757 59.4679 27.0925 58.9897C26.8582 58.3793 26.9716 58.1905 27.4721 58.355C27.8962 58.4952 28.2485 59.4451 28.3406 60.7018ZM69.4328 60.4543C69.4328 62.8963 69.2785 63.0203 63.8657 64.9222C59.209 66.5584 54.4237 67.3682 49.4087 67.3682H46.1105C45.2948 67.3682 44.6337 66.707 44.6337 65.8914V65.8914C44.6337 65.0791 44.4955 64.0543 44.3264 63.6139C44.0582 62.915 44.6944 62.8133 49.3227 62.8133C54.9683 62.8133 62.0462 61.3861 66.4681 59.3561C67.6812 58.7994 68.8442 58.3246 69.0533 58.3009C69.2623 58.2776 69.4328 59.2467 69.4328 60.4543ZM31.3803 62.2728C31.4977 63.8827 31.3681 64.3812 30.8742 64.2182C30.5002 64.0952 30.1403 63.0532 30.0512 61.8355C29.9338 60.2255 30.0634 59.727 30.5574 59.89C30.9314 60.013 31.2912 61.0551 31.3803 62.2728ZM35.9479 61.2879C36.4626 61.2934 36.5395 61.8117 36.2698 63.4459C36.0739 64.6287 35.8533 65.6647 35.7789 65.7482C35.704 65.8312 35.047 65.7497 34.3182 65.5665C33.1339 65.2694 32.9932 64.9916 32.9932 62.9525C32.9932 60.8334 33.0742 60.6927 34.132 60.9761C34.758 61.1436 35.5754 61.2843 35.9479 61.2879ZM41.9133 62.3072C43.0141 62.3072 43.1153 62.5147 43.1153 64.7724V64.8863C43.1153 66.1085 42.0054 67.0304 40.804 66.806V66.806C37.6828 66.2229 37.5482 66.0954 37.5482 63.7324C37.5482 61.6973 37.5659 61.6781 39.1298 61.9908C39.9998 62.1649 41.2524 62.3072 41.9133 62.3072ZM72.1845 64.8848C70.2441 66.9284 66.9878 68.5571 61.4905 70.2333C57.5409 71.4373 56.1683 71.5967 49.4417 71.6312C40.7022 71.6762 35.4828 70.7819 29.8903 68.2812C27.9656 67.4204 26.2341 66.8732 26.0423 67.0651C25.6126 67.4947 25.432 71.3487 25.761 73.0695C26.4513 76.6791 42.8501 80.5331 53.1145 79.4976C61.5917 78.6428 69.0674 75.8399 73.1021 72.0037C74.8219 70.3689 75 69.9519 75 67.56C75 64.8382 74.6518 63.3194 74.0283 63.3194C73.8319 63.3194 73.0019 64.0239 72.1845 64.8848ZM72.7438 70.6964C71.5681 72.4905 70.9512 72.2005 70.9512 69.8532C70.9512 68.3192 71.2457 67.5434 72.0899 66.8561C73.2281 65.9294 73.2286 65.9299 73.388 67.6992C73.4796 68.716 73.2053 69.9924 72.7438 70.6964ZM28.3406 71.33C28.4327 72.575 28.2768 73.4415 27.961 73.4415C27.667 73.4415 27.4261 72.777 27.4261 71.9647C27.4261 71.1524 27.2757 70.0962 27.0925 69.6179C26.8582 69.0075 26.9716 68.8187 27.4721 68.9832C27.8962 69.1234 28.2485 70.0734 28.3406 71.33ZM69.4328 71.1018C69.4328 73.2634 69.3746 73.3418 67.0288 74.3414C61.2785 76.7909 57.6229 77.5997 51.0865 77.8669L46.176 78.0675C45.3346 78.1019 44.6337 77.4291 44.6337 76.5869V76.5869C44.6337 75.7372 44.4955 74.6825 44.3264 74.2422C44.0582 73.5432 44.6944 73.4415 49.3227 73.4415C54.9683 73.4415 62.0462 72.0143 66.4681 69.9843C67.6812 69.4276 68.8442 68.9529 69.0533 68.9291C69.2623 68.9058 69.4328 69.8836 69.4328 71.1018ZM31.3803 72.901C31.4977 74.5109 31.3681 75.0094 30.8742 74.8464C30.5002 74.7235 30.1403 73.6814 30.0512 72.4637C29.9338 70.8538 30.0634 70.3553 30.5574 70.5182C30.9314 70.6412 31.2912 71.6833 31.3803 72.901ZM35.9479 71.9161C36.4626 71.9217 36.5395 72.4399 36.2698 74.0741C36.0739 75.2569 35.8533 76.2929 35.7789 76.3764C35.704 76.4594 35.047 76.3779 34.3182 76.1947C33.1339 75.8976 32.9932 75.6198 32.9932 73.5807C32.9932 71.4616 33.0742 71.3209 34.132 71.6043C34.758 71.7718 35.5754 71.9126 35.9479 71.9161ZM41.9133 72.9354C43.0141 72.9354 43.1153 73.1429 43.1153 75.4006V75.5145C43.1153 76.7367 42.0054 77.6586 40.804 77.4342V77.4342C37.6828 76.8511 37.5482 76.7236 37.5482 74.3606C37.5482 72.3255 37.5659 72.3063 39.1298 72.6191C39.9998 72.7932 41.2524 72.9354 41.9133 72.9354Z" fill="white" fill-opacity="0.3"/>
<rect x="1" y="1" width="98" height="98" rx="49" stroke="white" stroke-opacity="0.3" stroke-width="2"/>
<path d="M134.76 32.1465C136.822 32.1465 138.064 31.1445 138.064 29.5684V29.5625C138.064 28.2441 137.297 27.5293 135.539 27.166L134.625 26.9785C133.605 26.7676 133.143 26.416 133.143 25.8184V25.8125C133.143 25.1387 133.758 24.6758 134.748 24.6699C135.697 24.6699 136.348 25.1094 136.447 25.8477L136.459 25.918H137.906L137.9 25.8184C137.812 24.3711 136.605 23.3984 134.76 23.3984C132.938 23.3984 131.631 24.4062 131.625 25.8945V25.9004C131.625 27.1602 132.445 27.9336 134.109 28.2793L135.018 28.4668C136.107 28.6953 136.547 29.0352 136.547 29.668V29.6738C136.547 30.4004 135.879 30.875 134.812 30.875C133.752 30.875 133.008 30.4238 132.896 29.6973L132.885 29.627H131.438L131.443 29.7148C131.543 31.2324 132.82 32.1465 134.76 32.1465ZM141.029 32H142.535V24.8164H145.061V23.5449H138.498V24.8164H141.029V32ZM146.098 32H151.57V30.7285H147.609V28.3203H151.354V27.0957H147.609V24.8164H151.57V23.5449H146.098V32ZM152.883 32H154.395V29.2051H156.141C157.852 29.2051 159.018 28.0684 159.018 26.3809V26.3691C159.018 24.6758 157.852 23.5449 156.141 23.5449H152.883V32ZM155.766 24.7812C156.85 24.7812 157.482 25.3613 157.482 26.375V26.3867C157.482 27.4004 156.85 27.9863 155.766 27.9863H154.395V24.7812H155.766ZM165.609 32.1465C167.678 32.1465 168.932 30.4648 168.932 27.7754V27.7637C168.932 25.0742 167.678 23.3984 165.609 23.3984C163.535 23.3984 162.287 25.0742 162.287 27.7637V27.7754C162.287 30.4648 163.535 32.1465 165.609 32.1465ZM165.609 30.9102C164.467 30.9102 163.811 29.7266 163.811 27.7754V27.7637C163.811 25.8125 164.467 24.6406 165.609 24.6406C166.746 24.6406 167.408 25.8125 167.408 27.7637V27.7754C167.408 29.7266 166.746 30.9102 165.609 30.9102ZM172.113 32H173.596V23.5449H172.102L169.893 25.0977V26.4863L172.078 24.9863H172.113V32Z" fill="white" fill-opacity="0.3"/>
<path d="M132.66 58H135.684V41.0898H132.66V58ZM138.367 58H141.285V50.793C141.285 49 142.352 47.7812 144.027 47.7812C145.691 47.7812 146.512 48.7773 146.512 50.5469V58H149.43V49.9609C149.43 47.0781 147.871 45.3203 145.141 45.3203C143.254 45.3203 141.988 46.1875 141.344 47.5234H141.285V45.5781H138.367V58ZM157.258 58.2461C160.398 58.2461 162.496 56.2773 162.719 53.6875L162.73 53.6055H159.977L159.953 53.7109C159.684 55.0117 158.746 55.8906 157.27 55.8906C155.43 55.8906 154.234 54.3906 154.234 51.8008V51.7891C154.234 49.2461 155.418 47.6875 157.258 47.6875C158.805 47.6875 159.695 48.6602 159.941 49.8672L159.965 49.9727H162.719L162.707 49.8789C162.531 47.3945 160.492 45.3203 157.223 45.3203C153.602 45.3203 151.258 47.8047 151.258 51.7656V51.7773C151.258 55.7617 153.566 58.2461 157.258 58.2461ZM169.973 58.2461C173.617 58.2461 175.984 55.8203 175.984 51.7891V51.7656C175.984 47.7578 173.582 45.3203 169.961 45.3203C166.352 45.3203 163.961 47.7812 163.961 51.7656V51.7891C163.961 55.8086 166.316 58.2461 169.973 58.2461ZM169.984 55.8906C168.121 55.8906 166.938 54.4023 166.938 51.7891V51.7656C166.938 49.1875 168.145 47.6875 169.961 47.6875C171.812 47.6875 173.008 49.1758 173.008 51.7656V51.7891C173.008 54.3906 171.824 55.8906 169.984 55.8906ZM177.859 58H180.777V50.3945C180.777 48.8828 181.762 47.7812 183.168 47.7812C184.527 47.7812 185.371 48.6484 185.371 50.043V58H188.207V50.3242C188.207 48.8242 189.168 47.7812 190.574 47.7812C192.004 47.7812 192.801 48.6602 192.801 50.1953V58H195.719V49.4688C195.719 46.9844 194.113 45.3203 191.664 45.3203C189.871 45.3203 188.395 46.2812 187.797 47.8281H187.727C187.27 46.2344 186.016 45.3203 184.281 45.3203C182.641 45.3203 181.363 46.2109 180.836 47.5703H180.777V45.5781H177.859V58ZM203.523 58.2461C206.77 58.2461 208.598 56.3242 208.984 54.4141L209.02 54.2852H206.289L206.266 54.3672C205.984 55.1992 205.035 55.9727 203.582 55.9727C201.684 55.9727 200.488 54.6836 200.441 52.5039H209.137V51.5664C209.137 47.8164 206.934 45.3203 203.383 45.3203C199.832 45.3203 197.547 47.8984 197.547 51.8125V51.8242C197.547 55.7734 199.797 58.2461 203.523 58.2461ZM203.418 47.6055C204.965 47.6055 206.09 48.5898 206.301 50.5586H200.477C200.711 48.6484 201.871 47.6055 203.418 47.6055Z" fill="white" fill-opacity="0.3"/>
<line x1="51" y1="108" x2="51" y2="148" stroke="white" stroke-opacity="0.3" stroke-width="2"/>
</svg>
