<svg width="237" height="148" viewBox="0 0 237 148" fill="none" xmlns="http://www.w3.org/2000/svg">
<rect x="1" y="1" width="98" height="98" rx="49" stroke="white" stroke-opacity="0.3" stroke-width="2"/>
<path d="M134.021 32.1465C136.084 32.1465 137.326 31.1445 137.326 29.5684V29.5625C137.326 28.2441 136.559 27.5293 134.801 27.166L133.887 26.9785C132.867 26.7676 132.404 26.416 132.404 25.8184V25.8125C132.404 25.1387 133.02 24.6758 134.01 24.6699C134.959 24.6699 135.609 25.1094 135.709 25.8477L135.721 25.918H137.168L137.162 25.8184C137.074 24.3711 135.867 23.3984 134.021 23.3984C132.199 23.3984 130.893 24.4062 130.887 25.8945V25.9004C130.887 27.1602 131.707 27.9336 133.371 28.2793L134.279 28.4668C135.369 28.6953 135.809 29.0352 135.809 29.668V29.6738C135.809 30.4004 135.141 30.875 134.074 30.875C133.014 30.875 132.27 30.4238 132.158 29.6973L132.146 29.627H130.699L130.705 29.7148C130.805 31.2324 132.082 32.1465 134.021 32.1465ZM140.291 32H141.797V24.8164H144.322V23.5449H137.76V24.8164H140.291V32ZM145.359 32H150.832V30.7285H146.871V28.3203H150.615V27.0957H146.871V24.8164H150.832V23.5449H145.359V32ZM152.145 32H153.656V29.2051H155.402C157.113 29.2051 158.279 28.0684 158.279 26.3809V26.3691C158.279 24.6758 157.113 23.5449 155.402 23.5449H152.145V32ZM155.027 24.7812C156.111 24.7812 156.744 25.3613 156.744 26.375V26.3867C156.744 27.4004 156.111 27.9863 155.027 27.9863H153.656V24.7812H155.027ZM164.871 32.1465C166.939 32.1465 168.193 30.4648 168.193 27.7754V27.7637C168.193 25.0742 166.939 23.3984 164.871 23.3984C162.797 23.3984 161.549 25.0742 161.549 27.7637V27.7754C161.549 30.4648 162.797 32.1465 164.871 32.1465ZM164.871 30.9102C163.729 30.9102 163.072 29.7266 163.072 27.7754V27.7637C163.072 25.8125 163.729 24.6406 164.871 24.6406C166.008 24.6406 166.67 25.8125 166.67 27.7637V27.7754C166.67 29.7266 166.008 30.9102 164.871 30.9102ZM169.242 32H175.189V30.7637H171.24V30.6992L173.104 28.9297C174.592 27.5 175.055 26.8262 175.055 25.8301V25.8184C175.055 24.4238 173.871 23.3984 172.178 23.3984C170.461 23.3984 169.16 24.5059 169.16 26.0527V26.0938H170.578V26.0527C170.596 25.2383 171.252 24.6113 172.189 24.6113C173.004 24.6113 173.572 25.1504 173.578 25.9062V25.918C173.578 26.5449 173.338 26.9727 172.23 28.0566L169.242 30.9688V32Z" fill="white" fill-opacity="0.3"/>
<path d="M131.645 58H142.59V55.457H134.668V50.6406H142.156V48.1914H134.668V43.6328H142.59V41.0898H131.645V58ZM149.539 58.2461C151.332 58.2461 152.703 57.3555 153.406 55.8906H153.477V58H156.395V41.0898H153.477V47.7109H153.406C152.703 46.2227 151.285 45.3203 149.527 45.3203C146.41 45.3203 144.406 47.7695 144.406 51.7773V51.7891C144.406 55.7852 146.398 58.2461 149.539 58.2461ZM150.418 55.7852C148.543 55.7852 147.383 54.2617 147.383 51.7891V51.7773C147.383 49.3047 148.555 47.7812 150.418 47.7812C152.211 47.7812 153.477 49.3516 153.477 51.7773V51.7891C153.477 54.2266 152.223 55.7852 150.418 55.7852ZM163.074 58.2461C164.949 58.2461 166.227 57.3789 166.871 56.0547H166.93V58H169.848V45.5781H166.93V52.7734C166.93 54.5781 165.863 55.7852 164.188 55.7852C162.523 55.7852 161.703 54.7891 161.703 53.0312V45.5781H158.785V53.6055C158.785 56.4883 160.344 58.2461 163.074 58.2461ZM177.734 58.2461C180.875 58.2461 182.973 56.2773 183.195 53.6875L183.207 53.6055H180.453L180.43 53.7109C180.16 55.0117 179.223 55.8906 177.746 55.8906C175.906 55.8906 174.711 54.3906 174.711 51.8008V51.7891C174.711 49.2461 175.895 47.6875 177.734 47.6875C179.281 47.6875 180.172 48.6602 180.418 49.8672L180.441 49.9727H183.195L183.184 49.8789C183.008 47.3945 180.969 45.3203 177.699 45.3203C174.078 45.3203 171.734 47.8047 171.734 51.7656V51.7773C171.734 55.7617 174.043 58.2461 177.734 58.2461ZM188.621 58.2109C190.262 58.2109 191.645 57.3906 192.359 56.0898H192.43V58H195.348V49.457C195.348 46.9609 193.344 45.3203 190.238 45.3203C187.086 45.3203 185.176 46.9727 185 49.1758L184.988 49.3164H187.695L187.719 49.2109C187.906 48.2969 188.75 47.6523 190.133 47.6523C191.609 47.6523 192.43 48.4141 192.43 49.668V50.5234L189.184 50.7227C186.172 50.9102 184.461 52.2344 184.461 54.4375V54.4609C184.461 56.6758 186.137 58.2109 188.621 58.2109ZM187.367 54.3438V54.332C187.367 53.3477 188.152 52.7266 189.594 52.6328L192.43 52.457V53.3945C192.43 54.8711 191.164 55.9844 189.488 55.9844C188.211 55.9844 187.367 55.3633 187.367 54.3438ZM202.32 58.2461C202.906 58.2461 203.422 58.1875 203.762 58.1406V55.9492C203.562 55.9609 203.34 55.9961 203.059 55.9961C201.992 55.9961 201.453 55.6094 201.453 54.3906V47.8281H203.762V45.5781H201.453V42.4258H198.488V45.5781H196.73V47.8281H198.488V54.6367C198.488 57.1914 199.719 58.2461 202.32 58.2461ZM207.312 43.7969C208.227 43.7969 208.93 43.0703 208.93 42.2031C208.93 41.3125 208.227 40.5977 207.312 40.5977C206.398 40.5977 205.684 41.3125 205.684 42.2031C205.684 43.0703 206.398 43.7969 207.312 43.7969ZM205.848 58H208.766V45.5781H205.848V58ZM216.746 58.2461C220.391 58.2461 222.758 55.8203 222.758 51.7891V51.7656C222.758 47.7578 220.355 45.3203 216.734 45.3203C213.125 45.3203 210.734 47.7812 210.734 51.7656V51.7891C210.734 55.8086 213.09 58.2461 216.746 58.2461ZM216.758 55.8906C214.895 55.8906 213.711 54.4023 213.711 51.7891V51.7656C213.711 49.1875 214.918 47.6875 216.734 47.6875C218.586 47.6875 219.781 49.1758 219.781 51.7656V51.7891C219.781 54.3906 218.598 55.8906 216.758 55.8906ZM224.633 58H227.551V50.793C227.551 49 228.617 47.7812 230.293 47.7812C231.957 47.7812 232.777 48.7773 232.777 50.5469V58H235.695V49.9609C235.695 47.0781 234.137 45.3203 231.406 45.3203C229.52 45.3203 228.254 46.1875 227.609 47.5234H227.551V45.5781H224.633V58Z" fill="white" fill-opacity="0.3"/>
<path fill-rule="evenodd" clip-rule="evenodd" d="M37.8444 25.3778C37.5456 25.5774 37.0374 26.2412 36.7158 26.8522C36.3093 27.6232 35.6821 27.9635 34.6661 27.9635C33.7213 27.9635 33.1799 28.2262 33.1399 28.7043C33.1058 29.1118 33.0224 29.6675 32.9547 29.9391C32.887 30.2108 32.8036 31.4638 32.7695 32.7238L32.7078 35.0145L28.5209 30.9951C26.2183 28.7843 23.9265 26.9756 23.4277 26.9756C21.944 26.9756 19.6922 29.6724 20.035 31.0385C20.1955 31.6787 23.1126 34.8219 26.5176 38.0244L32.7078 43.8461L32.7364 53.5623C32.7695 64.9741 33.3642 74.3747 34.0798 74.8178C34.3589 74.9906 42.5549 75.0514 52.2928 74.9526C62.0307 74.8543 69.4423 74.6217 68.7632 74.436C67.7196 74.151 67.6623 74.0473 68.3928 73.7662C68.9489 73.5529 69.2823 72.856 69.3273 71.8133C69.3954 70.2363 69.4068 70.2461 69.751 72.1684C69.9456 73.255 70.1363 64.1982 70.1748 52.0416C70.2361 32.7485 70.1511 29.9391 69.508 29.9391C69.103 29.9391 68.494 29.4946 68.1547 28.9513C67.8055 28.3917 67.0005 27.962 66.2981 27.9605C65.4402 27.958 64.8001 27.5022 64.2178 26.4788C63.5786 25.3561 63.022 25 61.9068 25C61.0987 25 60.1099 25.327 59.7103 25.727C59.0702 26.3671 58.9112 26.3671 58.3797 25.727C57.6023 24.7901 55.2143 24.7901 54.2773 25.727C53.6372 26.3671 53.4782 26.3671 52.9467 25.727C52.1342 24.7481 49.7654 24.8059 48.7411 25.8303C47.9637 26.6077 47.8817 26.6077 47.4465 25.8303C46.8588 24.7802 44.1931 24.7333 43.066 25.7532C42.3202 26.4284 42.1686 26.4284 41.6085 25.7532C40.9566 24.9679 38.7829 24.7511 37.8444 25.3778ZM40.4972 27.3772C40.6158 27.7333 40.1683 27.9635 39.3563 27.9635C38.2114 27.9635 38.1102 27.8548 38.6485 27.2063C39.336 26.3775 40.1905 26.4565 40.4972 27.3772ZM46.0433 27.4987C46.0433 27.7545 45.5988 27.9635 45.0555 27.9635C43.966 27.9635 43.7106 27.186 44.6851 26.8364C45.4324 26.5687 46.0433 26.8665 46.0433 27.4987ZM51.8572 27.3772C51.9757 27.7333 51.5282 27.9635 50.7162 27.9635C49.5713 27.9635 49.4701 27.8548 50.0085 27.2063C50.696 26.3775 51.5504 26.4565 51.8572 27.3772ZM57.4033 27.5224C57.4033 27.7649 56.8205 27.9635 56.1082 27.9635C55.0365 27.9635 54.915 27.8405 55.4034 27.2517C56.0035 26.5287 57.4033 26.7178 57.4033 27.5224ZM62.7232 27.3772C62.8417 27.7333 62.3942 27.9635 61.5823 27.9635C60.4374 27.9635 60.3361 27.8548 60.8745 27.2063C61.562 26.3775 62.4165 26.4565 62.7232 27.3772ZM25.0699 28.971C25.9629 29.9579 25.9501 30.0102 24.4254 31.5349C22.9007 33.0596 22.8483 33.0725 21.8615 32.1795C20.5852 31.0247 20.5961 30.5239 21.9277 29.1064C23.2484 27.7007 23.8954 27.673 25.0699 28.971ZM67.1091 30.2814C66.9382 31.3156 66.796 41.1079 66.793 52.0416L66.7876 71.9215H33.5721L33.8808 70.378C34.0507 69.529 34.1895 63.6174 34.1895 57.241V45.6474L39.0051 50.2057C42.418 53.4364 44.8589 55.2777 47.3843 56.5278C49.3441 57.4978 51.0951 58.1439 51.2758 57.9636C51.4561 57.7833 50.8525 56.1351 49.9349 54.3017C48.6378 51.7107 46.6973 49.3577 41.2277 43.7424L34.1895 36.517V32.7341C34.1895 29.4091 34.2981 28.9513 35.0859 28.9513C35.6238 28.9513 36.3118 29.6423 36.8067 30.68C37.2601 31.6307 37.8696 32.4087 38.162 32.4087C38.4539 32.4087 38.5329 32.1311 38.3378 31.7913C38.1314 31.4327 38.1709 31.3463 38.4322 31.5853C38.6791 31.812 38.8816 32.2536 38.8816 32.5667C38.8816 32.8798 39.2708 33.2108 39.746 33.3026C40.9931 33.5427 40.8084 32.4585 39.3755 31.1304C37.6399 29.5218 37.8336 28.9513 40.1164 28.9513C41.5863 28.9513 42.0921 29.1508 42.0921 29.7302C42.0921 30.758 44.7567 33.3965 45.7944 33.3965C46.9452 33.3965 46.5219 31.7261 45.3123 31.4929C44.4431 31.3255 44.4164 31.3991 45.0476 32.2284C45.5746 32.9208 45.582 33.0013 45.0768 32.5524C44.7073 32.2244 44.331 31.2796 44.2406 30.4533C44.085 29.0313 44.1694 28.9513 45.826 28.9513C47.3181 28.9513 47.651 29.1651 48.0817 30.4004C48.5653 31.7868 50.3794 33.3965 51.4591 33.3965C51.7401 33.3965 51.9703 32.952 51.9703 32.4087C51.9703 31.8654 51.6448 31.4208 51.2467 31.4208C50.6145 31.4208 49.5007 30.0236 49.5007 29.2308C49.5007 29.0772 50.2515 28.9513 51.1696 28.9513C52.5521 28.9513 52.9418 29.2012 53.4421 30.4088C54.2976 32.4739 57.4033 34.3769 57.4033 32.8359C57.4033 32.5272 56.8476 31.7602 56.1685 31.1304C54.4991 29.5835 54.6156 28.9513 56.571 28.9513C57.9639 28.9513 58.3343 29.216 59.0549 30.7274C59.619 31.9103 60.1425 32.4111 60.6221 32.2269C61.0207 32.0738 61.2904 32.2052 61.2252 32.5208C61.1605 32.8344 61.4968 33.1757 61.972 33.2799C63.1489 33.5372 63.0971 32.0891 61.9068 31.452C60.917 30.9225 60.2126 29.5998 60.593 28.9854C60.7189 28.7814 62.3063 28.566 64.121 28.5073L67.4198 28.4006L67.1091 30.2814ZM68.7005 62.1574L68.7632 72.8905L67.6519 73.1212C65.574 73.5529 34.7175 73.7475 34.9773 73.3272C35.1195 73.0975 42.5568 72.9093 51.5055 72.9093H67.7754L67.8653 51.3007C67.9458 32.0051 67.9917 30.8553 68.2965 40.5582C68.4842 46.5345 68.6664 56.2542 68.7005 62.1574ZM27.9316 31.328C28.6918 32.1676 28.6256 32.336 26.8623 34.0578L24.983 35.8932L24.0668 34.8807C23.1674 33.8869 23.1812 33.8375 24.8156 32.1508C26.7423 30.1633 26.8515 30.1347 27.9316 31.328ZM46.9146 50.6977C46.9862 50.8478 46.3194 51.646 45.4329 52.4708L43.8207 53.9718L34.9696 44.9103L26.1185 35.8487L28.9249 32.9199L37.8543 41.6724C42.7658 46.4866 46.843 50.548 46.9146 50.6977ZM69.6246 56.2398C69.5332 58.4807 69.4582 56.6473 69.4582 52.1651C69.4582 47.6828 69.5332 45.8494 69.6246 48.0903C69.716 50.3312 69.716 53.999 69.6246 56.2398ZM48.8927 53.8745C49.4815 55.0861 49.7625 56.2018 49.517 56.3529C49.272 56.5046 48.057 56.1361 46.8178 55.534L44.5641 54.439L45.8902 53.0551C46.6192 52.294 47.3522 51.6712 47.5191 51.6712C47.6856 51.6712 48.304 52.6624 48.8927 53.8745ZM69.6152 67.5909C69.5051 68.4784 69.4127 67.8714 69.4102 66.2415C69.4073 64.6116 69.4972 63.8851 69.6103 64.6274C69.7229 65.3698 69.7249 66.7033 69.6152 67.5909Z" fill="white" fill-opacity="0.3"/>
<line x1="51" y1="108" x2="51" y2="148" stroke="white" stroke-opacity="0.3" stroke-width="2"/>
</svg>
