<svg width="237" height="148" viewBox="0 0 237 148" fill="none" xmlns="http://www.w3.org/2000/svg">
<rect x="1" y="1" width="98" height="98" rx="49" stroke="white" stroke-width="2"/>
<path d="M133.822 32.1465C135.885 32.1465 137.127 31.1445 137.127 29.5684V29.5625C137.127 28.2441 136.359 27.5293 134.602 27.166L133.688 26.9785C132.668 26.7676 132.205 26.416 132.205 25.8184V25.8125C132.205 25.1387 132.82 24.6758 133.811 24.6699C134.76 24.6699 135.41 25.1094 135.51 25.8477L135.521 25.918H136.969L136.963 25.8184C136.875 24.3711 135.668 23.3984 133.822 23.3984C132 23.3984 130.693 24.4062 130.688 25.8945V25.9004C130.688 27.1602 131.508 27.9336 133.172 28.2793L134.08 28.4668C135.17 28.6953 135.609 29.0352 135.609 29.668V29.6738C135.609 30.4004 134.941 30.875 133.875 30.875C132.814 30.875 132.07 30.4238 131.959 29.6973L131.947 29.627H130.5L130.506 29.7148C130.605 31.2324 131.883 32.1465 133.822 32.1465ZM140.092 32H141.598V24.8164H144.123V23.5449H137.561V24.8164H140.092V32ZM145.16 32H150.633V30.7285H146.672V28.3203H150.416V27.0957H146.672V24.8164H150.633V23.5449H145.16V32ZM151.945 32H153.457V29.2051H155.203C156.914 29.2051 158.08 28.0684 158.08 26.3809V26.3691C158.08 24.6758 156.914 23.5449 155.203 23.5449H151.945V32ZM154.828 24.7812C155.912 24.7812 156.545 25.3613 156.545 26.375V26.3867C156.545 27.4004 155.912 27.9863 154.828 27.9863H153.457V24.7812H154.828ZM164.672 32.1465C166.74 32.1465 167.994 30.4648 167.994 27.7754V27.7637C167.994 25.0742 166.74 23.3984 164.672 23.3984C162.598 23.3984 161.35 25.0742 161.35 27.7637V27.7754C161.35 30.4648 162.598 32.1465 164.672 32.1465ZM164.672 30.9102C163.529 30.9102 162.873 29.7266 162.873 27.7754V27.7637C162.873 25.8125 163.529 24.6406 164.672 24.6406C165.809 24.6406 166.471 25.8125 166.471 27.7637V27.7754C166.471 29.7266 165.809 30.9102 164.672 30.9102ZM172.166 32.1465C174.035 32.1465 175.324 31.1152 175.324 29.6445V29.6328C175.324 28.4609 174.498 27.7227 173.25 27.6055V27.5762C174.264 27.3652 175.025 26.668 175.025 25.6191V25.6074C175.025 24.2949 173.895 23.3984 172.148 23.3984C170.443 23.3984 169.289 24.3477 169.166 25.7773L169.16 25.8477H170.566L170.572 25.7891C170.648 25.0625 171.258 24.5996 172.148 24.5996C173.057 24.5996 173.572 25.0449 173.572 25.8066V25.8184C173.572 26.5566 172.951 27.084 172.02 27.084H171.053V28.209H172.055C173.133 28.209 173.789 28.7012 173.789 29.5918V29.6035C173.789 30.3711 173.139 30.9102 172.16 30.9102C171.17 30.9102 170.514 30.4121 170.432 29.7266L170.426 29.6621H168.979L168.984 29.7324C169.102 31.1504 170.309 32.1465 172.166 32.1465Z" fill="white"/>
<path d="M131.691 58H134.715V50.6641H142.941V58H145.953V41.0898H142.941V48.1211H134.715V41.0898H131.691V58ZM150.195 43.7969C151.109 43.7969 151.812 43.0703 151.812 42.2031C151.812 41.3125 151.109 40.5977 150.195 40.5977C149.281 40.5977 148.566 41.3125 148.566 42.2031C148.566 43.0703 149.281 43.7969 150.195 43.7969ZM148.73 58H151.648V45.5781H148.73V58ZM158.984 58.2461C162.031 58.2461 164.199 56.6758 164.199 54.332V54.3203C164.199 52.5156 163.203 51.5078 160.637 50.9336L158.562 50.4766C157.273 50.1836 156.793 49.7148 156.793 49V48.9883C156.793 48.0742 157.602 47.4766 158.891 47.4766C160.25 47.4766 161.047 48.2031 161.176 49.1992L161.188 49.293H163.906L163.895 49.1641C163.789 47.0195 161.984 45.3203 158.891 45.3203C155.891 45.3203 153.91 46.8555 153.91 49.1289V49.1406C153.91 50.9805 155.105 52.1406 157.484 52.668L159.547 53.125C160.836 53.418 161.27 53.8398 161.27 54.5898V54.6016C161.27 55.5156 160.414 56.0898 158.996 56.0898C157.52 56.0898 156.711 55.457 156.488 54.3906L156.465 54.2852H153.594L153.605 54.3906C153.863 56.6992 155.727 58.2461 158.984 58.2461ZM170.68 58.2461C171.266 58.2461 171.781 58.1875 172.121 58.1406V55.9492C171.922 55.9609 171.699 55.9961 171.418 55.9961C170.352 55.9961 169.812 55.6094 169.812 54.3906V47.8281H172.121V45.5781H169.812V42.4258H166.848V45.5781H165.09V47.8281H166.848V54.6367C166.848 57.1914 168.078 58.2461 170.68 58.2461ZM179.387 58.2461C183.031 58.2461 185.398 55.8203 185.398 51.7891V51.7656C185.398 47.7578 182.996 45.3203 179.375 45.3203C175.766 45.3203 173.375 47.7812 173.375 51.7656V51.7891C173.375 55.8086 175.73 58.2461 179.387 58.2461ZM179.398 55.8906C177.535 55.8906 176.352 54.4023 176.352 51.7891V51.7656C176.352 49.1875 177.559 47.6875 179.375 47.6875C181.227 47.6875 182.422 49.1758 182.422 51.7656V51.7891C182.422 54.3906 181.238 55.8906 179.398 55.8906ZM187.273 58H190.191V50.7227C190.191 48.9766 191.188 47.9102 192.84 47.9102C193.332 47.9102 193.777 47.9805 194.023 48.0742V45.4375C193.801 45.3789 193.461 45.3203 193.098 45.3203C191.633 45.3203 190.543 46.1992 190.168 47.6523H190.109V45.5781H187.273V58ZM197.188 62.125C199.777 62.125 201.23 61.1523 202.18 58.4219L206.645 45.5781H203.574L200.656 55.5156H200.574L197.668 45.5781H194.48L198.945 58.0117L198.77 58.5156C198.395 59.5586 197.773 59.875 196.66 59.875C196.25 59.875 195.91 59.8164 195.688 59.7695V61.9961C196.039 62.0547 196.625 62.125 197.188 62.125Z" fill="white"/>
<line x1="51" y1="108" x2="51" y2="148" stroke="white" stroke-opacity="0.3" stroke-width="2"/>
<path fill-rule="evenodd" clip-rule="evenodd" d="M60.2822 25.3475C54.4382 27.3563 47.331 35.5099 41.6464 46.726C37.6205 54.6698 36.1511 58.7686 36.4949 61.0977C36.6582 62.2068 36.7301 62.0297 36.7995 60.3495C36.8865 58.2258 36.913 58.1906 37.5491 59.3393C38.0293 60.2058 38.0782 60.9041 37.7286 61.9065C37.1863 63.4615 36.7574 63.6107 35.8772 62.55C35.5423 62.1466 35.0411 61.8165 34.7638 61.8165C34.4861 61.8165 34.6572 62.2566 35.1438 62.7945C36.2127 63.976 35.7873 64.0566 34.1487 62.9828C32.5051 61.906 32.6352 62.4112 34.4753 64.2513C35.9222 65.6987 35.9882 65.9232 35.665 68.3232C35.4767 69.7202 35.199 71.798 35.0474 72.9413C34.7227 75.3926 35.1589 75.5432 38.0689 73.9833C39.4655 73.2351 41.4479 72.8312 45.2103 72.529C51.0768 72.0572 53.2294 71.4532 52.823 70.3936C52.6215 69.8689 53.1311 69.617 54.8514 69.3906C59.7277 68.7496 59.9516 68.6581 59.7125 67.4102C59.5154 66.3779 59.712 66.2229 61.5761 65.9437C62.7223 65.7716 64.3957 65.7765 65.2944 65.954C66.5042 66.1931 66.7379 66.1442 66.1952 65.7657C65.3189 65.1549 60.355 65.0816 59.4338 65.6659C59.0768 65.8919 58.8567 66.487 58.9448 66.9877C59.0783 67.7481 58.6621 67.9628 56.4152 68.2928C50.3105 69.1902 50.4293 69.154 51.0699 69.9256C51.3971 70.3197 51.5648 70.7417 51.443 70.8635C51.0968 71.2097 44.669 72.065 42.332 72.0757C41.176 72.0811 39.5599 72.4317 38.7413 72.8552C37.9232 73.2782 37.1917 73.5535 37.1159 73.4664C36.9853 73.3163 37.5203 69.5085 37.9584 67.4718C38.0699 66.9515 38.6929 66.2092 39.3423 65.8224C40.5174 65.1227 40.5169 65.1241 39.3002 66.1466C37.7721 67.4307 38.4499 67.5192 40.2108 66.2655C40.9291 65.754 42.2836 64.9818 43.2206 64.5496L44.9237 63.7637L43.2122 63.9784L41.5007 64.1931L43.1467 63.4694C45.0523 62.6312 44.9579 62.0381 43.0357 62.7686C41.2396 63.4518 41.4249 63.0474 43.579 61.5838C44.5878 60.8982 45.422 60.1755 45.4333 59.9769C45.4445 59.7784 45.8293 58.9119 46.289 58.0513C46.7482 57.1901 47.1242 56.1632 47.1242 55.7691C47.1242 55.375 47.3169 54.9789 47.5521 54.8889C47.7873 54.7994 48.6479 53.4058 49.4636 51.7921C51.488 47.7891 55.0739 42.8229 59.5262 37.8556C61.5751 35.5695 63.7443 32.771 64.3472 31.637C65.3795 29.6942 65.401 29.4571 64.7189 27.5299C63.8651 25.1187 62.6651 24.5284 60.2822 25.3475ZM63.4778 26.7177C65.2421 29.236 64.3697 31.0532 57.8494 38.4414C53.356 43.5329 50.8807 47.0136 48.7022 51.3031C47.423 53.8214 46.8988 54.3632 44.9976 55.129C42.6562 56.0718 40.5804 57.8346 42.4826 57.2649C43.0186 57.1046 44.0856 56.8229 44.8543 56.639C46.1795 56.3222 46.2215 56.3613 45.6675 57.3965C45.3462 57.9965 44.4147 58.8517 43.5971 59.2962C42.7799 59.7412 41.4787 60.62 40.7056 61.2488C39.9325 61.8777 39.3002 62.2503 39.3002 62.0767C39.3002 61.9031 40.0748 59.8904 41.021 57.6038C45.2689 47.3427 50.3663 38.9407 56.2568 32.4908C60.4783 27.8688 57.8704 29.6067 53.2088 34.5216C48.1061 39.9021 43.7017 47.0894 39.9995 56.0767C39.087 58.2923 38.333 59.775 38.3247 59.3716C38.3159 58.9681 38.1829 58.0879 38.0289 57.4156C37.8088 56.4571 37.8616 56.3515 38.2724 56.9266C38.6817 57.4997 38.8054 57.2317 38.8381 55.7041C38.8714 54.1603 38.9687 53.9539 39.3002 54.7261C39.62 55.4698 39.7286 55.1706 39.755 53.4772C39.7829 51.6762 40.378 50.218 42.8665 45.8571C48.6807 35.6678 54.0695 29.3319 59.0211 26.8649C62.0514 25.3544 62.5125 25.3392 63.4778 26.7177ZM37.1892 67.2875C37.0332 67.6772 36.9173 67.5613 36.8939 66.9916C36.8728 66.4762 36.9883 66.1877 37.1506 66.35C37.313 66.5124 37.3305 66.9344 37.1892 67.2875ZM36.6308 71.9051C36.4611 72.8112 36.1491 73.5525 35.9384 73.5525C35.7276 73.5525 35.7912 72.287 36.0797 70.7408C36.4098 68.973 36.667 68.3613 36.7726 69.0933C36.8645 69.7339 36.801 70.999 36.6308 71.9051Z" fill="white"/>
</svg>
