<svg width="300" height="148" viewBox="0 0 300 148" fill="none" xmlns="http://www.w3.org/2000/svg">
<rect x="1" y="1" width="98" height="98" rx="49" stroke="#00B32A" stroke-width="2"/>
<g filter="url(#filter0_d)">
<path fill-rule="evenodd" clip-rule="evenodd" d="M63.9529 25.1752C63.209 25.3174 63.0571 25.6107 62.1088 28.7387C61.5029 30.7375 59.3243 34.5168 58.277 35.3859C57.9669 35.6434 57.4695 35.617 56.1658 35.2735C54.9713 34.9587 53.2457 34.8356 50.4066 34.8626L46.3529 34.9009L45.9258 33.9994C45.6912 33.5038 45.355 33.0981 45.1787 33.0981C45.0028 33.0981 44.6326 32.7157 44.3565 32.248C43.2665 30.403 41.486 28.4457 40.2261 27.7071C38.9094 26.9356 38.8943 26.9339 37.6115 27.4237C36.9018 27.6949 35.0456 28.7512 33.4861 29.7715C28.0634 33.3197 28.5875 32.7964 28.3703 34.8771C28.237 36.1521 28.2791 36.7595 28.5062 36.8353C28.6873 36.8957 29.2358 37.3028 29.7254 37.7401L30.6153 38.5353L30.1156 39.8437C29.2698 42.0579 30.1734 44.999 31.8993 45.6502L32.6835 45.9461L32.6063 49.7571C32.4916 55.3993 32.4115 55.7398 30.1696 60.0856C28.5657 63.1953 27.8186 64.3138 26.5674 65.4781C24.9786 66.9566 24.5524 67.9386 25.4972 67.9438C26.2774 67.9482 28.6667 69.1453 31.1934 70.798C32.4498 71.62 34.0177 72.438 34.6777 72.6162C36.146 73.0126 39.6004 73.0149 40.8977 72.6206C41.8928 72.3181 41.8878 72.3169 48.7983 74.2248C50.978 74.8267 52.2269 74.9893 54.7506 74.9992C57.5778 75.0105 58.2445 74.9092 60.5578 74.118C61.995 73.6261 63.9549 73.0059 64.9131 72.7396C68.5507 71.7289 74.7153 68.114 76.1935 66.125L76.7878 65.3251L75.915 63.657C75.37 62.6152 74.6383 61.7241 73.9664 61.2842C73.2298 60.8019 72.7855 60.2288 72.557 59.466C72.3396 58.7407 71.7812 57.9898 70.9566 57.3142C68.9505 55.6705 68.1268 53.6258 67.6642 49.1415C67.5246 47.789 67.2305 46.4113 67.0104 46.08C66.6465 45.5321 66.6979 45.4008 67.5765 44.6293C68.6567 43.681 68.9017 42.1782 68.0867 41.5016C67.8361 41.2937 67.691 40.8942 67.7644 40.614C67.8376 40.3335 67.7014 39.8242 67.4619 39.4819C67.0615 38.9102 67.0838 38.7967 67.74 38.0838C69.0092 36.7052 72.9148 29.5221 72.8895 28.613C72.8776 28.187 71.339 26.5384 70.5687 26.1261C70.0202 25.8325 65.1788 24.8999 64.7679 25.0088C64.6881 25.03 64.3214 25.1049 63.9529 25.1752ZM64.7767 26.4037C64.3818 27.1417 64.0946 27.3023 63.6553 27.0308C63.0879 26.6801 63.5946 25.8392 64.3736 25.8392C64.9819 25.8392 65.0374 25.9167 64.7767 26.4037ZM67.7441 26.3212C68.0234 26.397 68.2522 26.64 68.2522 26.8613C68.2522 27.6054 68.9165 28.7303 69.4578 28.9019C69.7702 29.0012 69.9944 29.3453 69.9944 29.7256C69.9944 30.4147 67.1248 35.4695 66.8283 35.3025C66.7331 35.2491 65.3161 34.7929 63.6791 34.2886L60.7032 33.3716L61.5342 31.7105C61.9912 30.7968 62.5243 29.5581 62.7189 28.9579C62.9134 28.3575 63.1986 27.9443 63.3524 28.0392C63.7772 28.302 65.0493 27.3528 65.3571 26.5433C65.6352 25.8113 65.8048 25.7957 67.7441 26.3212ZM70.1157 26.8865C70.3683 26.9835 70.5751 27.3197 70.5751 27.6336C70.5751 28.3859 69.7682 28.228 69.1953 27.3636C68.8091 26.7814 68.8109 26.7103 69.2092 26.7103C69.4552 26.7103 69.8631 26.7895 70.1157 26.8865ZM39.5473 28.4298L40.2328 28.9881L39.4154 29.3008C38.3211 29.7198 37.6965 29.6951 37.0278 29.2062C36.4982 28.8189 36.5209 28.7768 37.4805 28.3589C38.7996 27.7846 38.7528 27.7829 39.5473 28.4298ZM71.0971 31.3031C69.5359 34.6835 68.5684 36.292 68.0966 36.292C67.2514 36.292 67.391 35.6129 68.6352 33.6678C69.3492 32.5522 70.2319 30.793 70.5971 29.7582C71.2141 28.0108 71.2969 27.9092 71.7615 28.3296C72.2313 28.755 72.1909 28.935 71.0971 31.3031ZM37.511 30.3691C38.1701 30.4698 38.8632 30.3252 39.6294 29.9271C40.9683 29.2312 40.9421 29.2163 43.0405 31.8537C43.8707 32.8969 44.409 33.8205 44.265 33.9541C44.1233 34.085 42.648 35.1875 40.9863 36.4035C38.0908 38.5229 37.8986 38.6149 36.3713 38.6149C34.8911 38.6149 34.7102 38.5374 33.833 37.5261C32.9161 36.4692 32.8929 36.3771 33.0407 34.3984C33.1655 32.7262 33.106 32.2875 32.7105 31.9591C32.2765 31.5987 32.3955 31.4474 33.8958 30.4512C35.4001 29.4521 35.6109 29.3865 36.0476 29.7814C36.3136 30.0224 36.9721 30.2869 37.511 30.3691ZM64.5307 30.2268C64.0124 30.4222 63.8791 30.6646 63.95 31.2814C64.1082 32.6582 66.2197 32.4341 66.2197 31.0404C66.2197 30.32 65.3693 29.9103 64.5307 30.2268ZM32.21 33.1202C32.4701 33.5839 32.5529 34.1626 32.4292 34.6553L32.2306 35.4462L29.6537 33.2433L30.2721 32.723C31.0642 32.0566 31.6844 32.1841 32.21 33.1202ZM36.6539 33.1893C35.8833 34.0099 35.8458 34.8806 36.5537 35.5211C37.6277 36.4933 39.2166 35.8963 39.2166 34.5206C39.2166 32.5653 37.8885 31.8754 36.6539 33.1893ZM32.1011 36.9721C33.6298 38.6634 33.6815 38.7691 33.0552 38.927C32.5357 39.058 32.016 38.7456 30.6409 37.4753C29.1833 36.1292 28.9074 35.7244 29.0021 35.0717C29.1116 34.3182 29.1435 34.3046 29.8006 34.7352C30.1769 34.982 31.2123 35.9883 32.1011 36.9721ZM45.1212 36.292C45.2226 37.3626 45.1941 37.9909 45.0553 37.7438C44.7075 37.1239 44.3962 34.8606 44.6111 34.513C44.8808 34.0766 44.9264 34.2357 45.1212 36.292ZM60.6138 35.3429C60.5401 35.6254 60.475 35.4645 60.4692 34.9854C60.4634 34.5064 60.5235 34.2752 60.6031 34.4718C60.6826 34.6684 60.6876 35.0604 60.6138 35.3429ZM61.3455 35.421C61.2752 35.9001 61.1672 36.292 61.1057 36.292C61.0438 36.292 60.9933 35.9001 60.9933 35.421C60.9933 34.9419 61.1013 34.5499 61.2334 34.5499C61.3655 34.5499 61.4158 34.9419 61.3455 35.421ZM63.3162 35.6942C63.3162 36.0043 63.1855 36.3385 63.0258 36.4372C62.8612 36.5391 62.7354 36.295 62.7354 35.8737C62.7354 35.4651 62.8661 35.1306 63.0258 35.1306C63.1855 35.1306 63.3162 35.3841 63.3162 35.6942ZM54.6426 35.8643C55.802 36.1082 56.7988 36.3559 56.8578 36.4149C56.9167 36.4741 55.8264 37.4114 54.435 38.4976C53.0436 39.5841 52.0631 40.5257 52.2559 40.5902C52.4487 40.6544 52.852 40.4848 53.1522 40.2133C53.737 39.684 54.3151 39.8361 54.3151 40.5194C54.3151 40.8504 53.8081 40.9378 51.8912 40.9378H49.4673L48.9577 39.7037C48.2554 38.0022 48.1314 37.7514 47.3785 36.5098L46.7185 35.421H49.6267C51.2263 35.421 53.4835 35.6204 54.6426 35.8643ZM42.6088 36.637C42.5162 36.8684 42.4473 36.7996 42.4334 36.4613C42.4209 36.1553 42.4895 35.984 42.5859 36.0804C42.6823 36.1768 42.6927 36.4274 42.6088 36.637ZM46.1561 37.2528C46.1285 38.1376 46.1169 38.1466 45.8948 37.4535C45.5608 36.4108 45.5608 35.9404 45.8948 36.1469C46.0545 36.2456 46.1721 36.7433 46.1561 37.2528ZM59.3386 37.801C59.6899 37.9947 60.8176 38.3617 61.8452 38.6169L63.7134 39.0809L61.7 39.7032C58.0761 40.8234 55.014 41.2197 54.9652 40.5748C54.9501 40.3753 54.8549 39.9444 54.7532 39.6178C54.6054 39.1416 54.9031 38.7598 56.2544 37.6936C57.8464 36.4375 57.9611 36.3937 58.32 36.9065C58.5291 37.2046 58.9875 37.6074 59.3386 37.801ZM42.1201 37.0351C42.1201 37.2839 41.9895 37.407 41.8298 37.3083C41.6701 37.2096 41.5394 37.006 41.5394 36.8556C41.5394 36.7052 41.6701 36.5824 41.8298 36.5824C41.9895 36.5824 42.1201 36.7862 42.1201 37.0351ZM41.4779 38.1068C41.6126 38.6259 41.9105 39.0682 42.1393 39.0896C42.3684 39.1111 42.7191 39.1436 42.9186 39.1622C43.1184 39.1805 43.2815 39.3289 43.2815 39.4915C43.2815 39.7923 41.8771 39.5827 41.4723 39.2218C41.1965 38.9758 40.833 37.1631 41.0592 37.1631C41.1544 37.1631 41.3428 37.5876 41.4779 38.1068ZM47.1671 38.1945C47.2661 38.4529 47.2173 38.5693 47.053 38.4677C46.895 38.3701 46.7658 38.1675 46.7658 38.0171C46.7658 37.5995 46.974 37.6916 47.1671 38.1945ZM45.7615 39.7569C45.5126 40.1599 44.443 40.1596 44.443 39.7569C44.443 39.5789 44.6906 39.5255 45.0237 39.6312C45.3901 39.7476 45.6044 39.6834 45.6044 39.4572C45.6044 39.2601 45.6828 39.1773 45.7786 39.2731C45.8744 39.369 45.8669 39.5867 45.7615 39.7569ZM48.4987 40.4296C48.51 40.695 47.285 40.7168 46.6241 40.4633C46.224 40.3097 46.2769 40.1921 46.9438 39.7548C47.6923 39.2639 47.7673 39.2615 48.1166 39.7212C48.3215 39.9909 48.4937 40.3097 48.4987 40.4296ZM40.1111 40.053C41.7749 40.3646 44.3776 40.8881 45.8948 41.2162C50.9429 42.3074 56.7988 41.9987 62.1547 40.3588C64.1922 39.7348 65.8179 39.623 66.5078 40.0591C67.0769 40.4189 66.783 40.6541 64.5383 41.6346C63.1358 42.2476 61.9892 42.4886 59.6022 42.6723C56.5206 42.9096 55.4765 43.1273 55.4765 43.533C55.4765 43.6482 56.2933 43.5719 57.2913 43.3625C58.2895 43.1535 59.694 42.9926 60.4126 43.0051L61.7192 43.0277L60.4126 43.47C59.5331 43.7676 57.5921 43.9482 54.4739 44.0228C51.5753 44.0922 49.728 44.2551 49.5379 44.458C49.3143 44.6967 50.5016 44.7409 54.0247 44.6253C59.1757 44.4563 61.8194 43.9014 63.9006 42.5527C64.8806 41.9177 66.0432 41.4235 66.6553 41.3823C67.1651 41.3477 68.0057 42.6546 67.9096 43.3323C67.7664 44.341 66.0952 45.0707 64.405 44.8625C63.1315 44.7054 62.5014 45.0332 63.3887 45.3912C63.5885 45.4717 63.2903 45.548 62.7262 45.5605C62.162 45.573 60.9889 45.7681 60.119 45.9937C59.2221 46.2263 58.3464 46.3015 58.0958 46.1677C57.3374 45.7615 54.9704 45.5129 54.4797 45.7873C53.7016 46.2228 58.867 46.848 60.1202 46.4702C61.1173 46.1694 63.8138 46.0681 63.0923 46.3584C62.0191 46.7902 61.4553 50.7837 62.1765 52.8424C62.3498 53.3366 62.3995 52.8311 62.3327 51.2588C62.2787 49.9885 62.353 48.5187 62.4985 47.9925C62.9265 46.4426 65.3071 45.5835 66.3327 46.609C66.812 47.0884 66.9671 47.8288 67.2307 50.8973C67.4979 54.0085 68.3495 55.9155 70.3256 57.8281C71.2612 58.7334 72.0268 59.6809 72.0268 59.9332C72.0268 60.8603 70.8855 60.3556 68.6152 58.4242C66.9023 56.9669 66.6782 57.1028 67.947 58.8287C68.9012 60.1257 70.9 61.3353 72.9357 61.8472C73.8947 62.0882 74.3732 62.3899 74.6052 62.8989C75.3363 64.5037 74.8474 65.6288 72.8091 67.031C70.4171 68.677 62.5772 72.5492 60.7029 73.0108C59.6649 73.2664 58.3267 73.6868 57.7288 73.9452C56.1356 74.6342 52.9736 74.2931 47.9273 72.8883C42.2723 71.314 38.7491 70.8857 36.6141 71.5126C35.108 71.9551 34.9634 71.9499 33.7436 71.4104C33.0372 71.098 31.8395 70.3968 31.0816 69.8523C29.3636 68.6183 28.0732 67.9403 26.6113 67.5045L25.4754 67.166L26.6113 66.1065C27.2361 65.5237 28.6621 64.423 29.78 63.6605C32.5639 61.7616 33.4588 60.3411 34.4001 56.3267C34.8133 54.5642 35.1431 52.9608 35.1333 52.7643C35.1005 52.1313 34.5491 53.793 33.9721 56.2625C33.189 59.6152 32.2686 61.2894 30.4431 62.6817C29.6066 63.3193 28.8729 63.7917 28.8125 63.731C28.7521 63.6706 29.3857 62.4372 30.2207 60.9904C32.678 56.7326 33.1191 55.2018 33.1191 50.9275C33.1191 46.9159 33.2692 46.4194 34.9936 44.7315C36.2047 43.5463 36.4808 43.659 35.8812 45.0939C35.3371 46.3962 35.239 53.658 35.7779 52.73C35.9852 52.3729 36.0276 51.3395 35.8995 49.7611C35.7915 48.4298 35.7903 46.8758 35.8969 46.3079C36.0624 45.4258 36.1809 45.3015 36.7099 45.4534C37.5055 45.6819 38.6721 46.5091 38.9613 47.0498C39.085 47.2815 39.3577 47.8628 39.567 48.3419C39.9369 49.1882 40.0173 49.2179 42.4131 49.3851C43.769 49.4798 45.1073 49.6569 45.3866 49.7791C45.6689 49.9022 45.8948 49.8787 45.8948 49.7263C45.8948 49.2414 44.4587 48.7774 42.9584 48.7774C41.0853 48.7774 40.5191 48.4539 39.7645 46.9531C39.4259 46.2794 38.948 45.4998 38.7023 45.2205C38.288 44.7496 38.3228 44.7124 39.1765 44.7124C39.6832 44.7124 41.592 45.0356 43.4183 45.4305C45.2446 45.8253 47.823 46.2225 49.1479 46.3128C50.4728 46.4034 52.0468 46.5393 52.6455 46.6145C53.2768 46.6941 53.7344 46.6282 53.7344 46.458C53.7344 46.2963 53.0927 46.1642 52.3082 46.1642C50.3636 46.1642 47.0219 45.4955 43.7839 44.458C42.2453 43.9653 39.9195 43.4845 38.3696 43.3384L35.6524 43.0829L34.5035 44.0428C33.8714 44.5707 33.2262 45.0027 33.0691 45.0027C32.4588 45.0027 31.1171 43.2911 30.7977 42.105C30.388 40.5827 30.6493 40.2415 32.5383 39.8318C34.624 39.3791 36.865 39.4445 40.1111 40.053ZM38.0545 45.2411C38.1341 45.2957 37.8074 45.2461 37.3286 45.1308C36.2555 44.8724 36.2053 44.8314 36.4579 44.4223C36.5996 44.1932 36.8496 44.2522 37.2854 44.6177C37.6289 44.9061 37.975 45.1865 38.0545 45.2411ZM50.2086 50.5436C50.0132 51.1958 49.42 52.1626 48.8904 52.6923C47.6203 53.9623 47.5597 55.4231 48.7286 56.5918C49.1691 57.0325 49.6961 57.4486 49.8991 57.5162C50.1784 57.6094 50.2486 58.5583 50.1868 61.4111L50.1049 65.1825L48.1561 63.3324C46.2568 61.5293 45.314 61.1791 45.314 62.2764C45.314 63.0008 47.5698 65.2435 48.9902 65.9311C49.7086 66.2789 50.44 66.8785 50.6154 67.2635C51.0074 68.1238 51.8561 68.0327 51.8241 67.1334C51.7867 66.0882 52.8386 66.2937 53.0547 67.3739C53.3189 68.6941 54.1699 68.4052 54.1699 66.9955C54.1699 66.107 54.3032 65.8631 54.9304 65.6036C56.3467 65.0173 57.5613 63.4639 57.7227 62.0327C57.9295 60.1974 57.0915 58.914 55.0259 57.9036L53.444 57.1295V55.2407C53.444 53.5947 53.5001 53.3984 53.8796 53.7134C54.1191 53.9123 54.3151 54.255 54.3151 54.4748C54.3151 55.1972 55.1708 54.8926 55.3697 54.0996C55.5288 53.4655 55.3975 53.1751 54.6493 52.5067C54.1461 52.057 53.7344 51.4336 53.7344 51.1214C53.7344 50.3003 53.2347 50.1159 52.8677 50.8017C52.6818 51.1487 52.2588 51.3906 51.8369 51.3906C51.2126 51.3906 51.1212 51.2608 51.1212 50.3743C51.1212 49.0015 50.6441 49.0901 50.2086 50.5436ZM52.4551 53.5357C52.3645 53.8729 52.2887 54.7044 52.2867 55.383C52.2838 56.2366 52.1592 56.617 51.8819 56.617C51.5991 56.617 51.4403 56.0839 51.3413 54.8023C51.1772 52.678 51.2176 52.5558 52.016 52.7646C52.4641 52.8816 52.5773 53.0805 52.4551 53.5357ZM50.2501 54.4393C50.2501 55.8159 49.8927 56.1251 49.3892 55.1844C48.8059 54.0941 49.0713 53.2567 50.0323 53.1557C50.1523 53.1432 50.2501 53.7207 50.2501 54.4393ZM52.2826 60.5272C52.2826 61.6858 52.3656 63.2398 52.4673 63.9805C52.6371 65.2203 52.6026 65.3277 52.0317 65.3277C51.4316 65.3277 51.4115 65.211 51.4115 61.7073C51.4115 58.6086 51.4742 58.1112 51.8471 58.254C52.1789 58.3815 52.2826 58.923 52.2826 60.5272ZM55.9838 60.6681C56.8839 62.0037 56.8156 62.8963 55.7361 63.9047C54.2919 65.254 53.8494 65.0559 53.6304 62.9622C53.5279 61.9808 53.444 60.5966 53.444 59.8867V58.5961L54.3868 59.1466C54.9051 59.4494 55.6237 60.1341 55.9838 60.6681ZM75.6984 65.677C75.4766 66.5318 71.4133 69.438 68.5957 70.7568C65.1512 72.3689 65.5554 71.6889 69.1514 69.8219C71.5385 68.5826 72.9081 67.652 74.0593 66.4871C74.9377 65.5983 75.7048 64.9023 75.7637 64.9407C75.823 64.979 75.7934 65.3103 75.6984 65.677ZM39.9424 72.0059C40.3487 72.1804 39.9564 72.2603 38.6358 72.2713C37.3162 72.2826 36.8795 72.2028 37.1841 72.0059C37.7122 71.6647 39.1483 71.6647 39.9424 72.0059Z" fill="#00B32A"/>
</g>
<path d="M136.795 25.746C136.759 25.806 136.719 25.852 136.675 25.884C136.635 25.912 136.585 25.926 136.525 25.926C136.457 25.926 136.377 25.892 136.285 25.824C136.193 25.756 136.077 25.682 135.937 25.602C135.801 25.518 135.635 25.442 135.439 25.374C135.247 25.306 135.013 25.272 134.737 25.272C134.477 25.272 134.247 25.308 134.047 25.38C133.851 25.448 133.685 25.542 133.549 25.662C133.417 25.782 133.317 25.924 133.249 26.088C133.181 26.248 133.147 26.422 133.147 26.61C133.147 26.85 133.205 27.05 133.321 27.21C133.441 27.366 133.597 27.5 133.789 27.612C133.985 27.724 134.205 27.822 134.449 27.906C134.697 27.986 134.949 28.07 135.205 28.158C135.465 28.246 135.717 28.346 135.961 28.458C136.209 28.566 136.429 28.704 136.621 28.872C136.817 29.04 136.973 29.246 137.089 29.49C137.209 29.734 137.269 30.034 137.269 30.39C137.269 30.766 137.205 31.12 137.077 31.452C136.949 31.78 136.761 32.066 136.513 32.31C136.269 32.554 135.967 32.746 135.607 32.886C135.251 33.026 134.845 33.096 134.389 33.096C133.829 33.096 133.321 32.996 132.865 32.796C132.409 32.592 132.019 32.318 131.695 31.974L132.031 31.422C132.063 31.378 132.101 31.342 132.145 31.314C132.193 31.282 132.245 31.266 132.301 31.266C132.353 31.266 132.411 31.288 132.475 31.332C132.543 31.372 132.619 31.424 132.703 31.488C132.787 31.552 132.883 31.622 132.991 31.698C133.099 31.774 133.221 31.844 133.357 31.908C133.497 31.972 133.655 32.026 133.831 32.07C134.007 32.11 134.205 32.13 134.425 32.13C134.701 32.13 134.947 32.092 135.163 32.016C135.379 31.94 135.561 31.834 135.709 31.698C135.861 31.558 135.977 31.392 136.057 31.2C136.137 31.008 136.177 30.794 136.177 30.558C136.177 30.298 136.117 30.086 135.997 29.922C135.881 29.754 135.727 29.614 135.535 29.502C135.343 29.39 135.123 29.296 134.875 29.22C134.627 29.14 134.375 29.06 134.119 28.98C133.863 28.896 133.611 28.8 133.363 28.692C133.115 28.584 132.895 28.444 132.703 28.272C132.511 28.1 132.355 27.886 132.235 27.63C132.119 27.37 132.061 27.05 132.061 26.67C132.061 26.366 132.119 26.072 132.235 25.788C132.355 25.504 132.527 25.252 132.751 25.032C132.979 24.812 133.257 24.636 133.585 24.504C133.917 24.372 134.297 24.306 134.725 24.306C135.205 24.306 135.641 24.382 136.033 24.534C136.429 24.686 136.777 24.906 137.077 25.194L136.795 25.746ZM144.726 25.38H141.942V33H140.784V25.38H137.994V24.402H144.726V25.38ZM151.306 32.052L151.3 33H146.002V24.402H151.3V25.35H147.166V28.206H150.514V29.118H147.166V32.052H151.306ZM155.466 28.86C155.798 28.86 156.09 28.816 156.342 28.728C156.598 28.64 156.812 28.518 156.984 28.362C157.16 28.202 157.292 28.012 157.38 27.792C157.468 27.572 157.512 27.33 157.512 27.066C157.512 26.518 157.342 26.09 157.002 25.782C156.666 25.474 156.154 25.32 155.466 25.32H154.086V28.86H155.466ZM155.466 24.402C156.01 24.402 156.482 24.466 156.882 24.594C157.286 24.718 157.62 24.896 157.884 25.128C158.148 25.36 158.344 25.64 158.472 25.968C158.604 26.296 158.67 26.662 158.67 27.066C158.67 27.466 158.6 27.832 158.46 28.164C158.32 28.496 158.114 28.782 157.842 29.022C157.574 29.262 157.24 29.45 156.84 29.586C156.444 29.718 155.986 29.784 155.466 29.784H154.086V33H152.928V24.402H155.466ZM168.379 28.704C168.379 29.456 168.297 30.108 168.133 30.66C167.973 31.208 167.753 31.662 167.473 32.022C167.193 32.382 166.861 32.65 166.477 32.826C166.097 33.002 165.689 33.09 165.253 33.09C164.813 33.09 164.403 33.002 164.023 32.826C163.647 32.65 163.319 32.382 163.039 32.022C162.759 31.662 162.539 31.208 162.379 30.66C162.219 30.108 162.139 29.456 162.139 28.704C162.139 27.952 162.219 27.3 162.379 26.748C162.539 26.196 162.759 25.74 163.039 25.38C163.319 25.016 163.647 24.746 164.023 24.57C164.403 24.394 164.813 24.306 165.253 24.306C165.689 24.306 166.097 24.394 166.477 24.57C166.861 24.746 167.193 25.016 167.473 25.38C167.753 25.74 167.973 26.196 168.133 26.748C168.297 27.3 168.379 27.952 168.379 28.704ZM167.269 28.704C167.269 28.048 167.213 27.498 167.101 27.054C166.993 26.606 166.845 26.246 166.657 25.974C166.473 25.702 166.259 25.508 166.015 25.392C165.771 25.272 165.517 25.212 165.253 25.212C164.989 25.212 164.735 25.272 164.491 25.392C164.247 25.508 164.033 25.702 163.849 25.974C163.665 26.246 163.517 26.606 163.405 27.054C163.297 27.498 163.243 28.048 163.243 28.704C163.243 29.36 163.297 29.91 163.405 30.354C163.517 30.798 163.665 31.156 163.849 31.428C164.033 31.7 164.247 31.896 164.491 32.016C164.735 32.132 164.989 32.19 165.253 32.19C165.517 32.19 165.771 32.132 166.015 32.016C166.259 31.896 166.473 31.7 166.657 31.428C166.845 31.156 166.993 30.798 167.101 30.354C167.213 29.91 167.269 29.36 167.269 28.704ZM173.12 29.898V26.352C173.12 26.248 173.124 26.134 173.132 26.01C173.14 25.886 173.152 25.76 173.168 25.632L170.036 29.898H173.12ZM175.358 29.898V30.51C175.358 30.574 175.338 30.628 175.298 30.672C175.262 30.716 175.204 30.738 175.124 30.738H174.056V33H173.12V30.738H169.304C169.224 30.738 169.154 30.716 169.094 30.672C169.038 30.624 169.002 30.566 168.986 30.498L168.878 29.952L173.06 24.402H174.056V29.898H175.358Z" fill="#00B32A"/>
<path d="M136.96 50.132C137.632 50.132 138.224 50.052 138.736 49.892C139.256 49.724 139.688 49.492 140.032 49.196C140.384 48.892 140.648 48.532 140.824 48.116C141 47.7 141.088 47.24 141.088 46.736C141.088 45.712 140.752 44.94 140.08 44.42C139.408 43.9 138.4 43.64 137.056 43.64H134.512V50.132H136.96ZM144.904 59H142.84C142.416 59 142.104 58.836 141.904 58.508L137.44 52.364C137.304 52.172 137.156 52.036 136.996 51.956C136.844 51.868 136.604 51.824 136.276 51.824H134.512V59H132.196V41.804H137.056C138.144 41.804 139.084 41.916 139.876 42.14C140.668 42.356 141.32 42.672 141.832 43.088C142.352 43.504 142.736 44.008 142.984 44.6C143.232 45.184 143.356 45.84 143.356 46.568C143.356 47.176 143.26 47.744 143.068 48.272C142.876 48.8 142.596 49.276 142.228 49.7C141.868 50.116 141.424 50.472 140.896 50.768C140.376 51.064 139.784 51.288 139.12 51.44C139.416 51.608 139.672 51.852 139.888 52.172L144.904 59ZM154.101 51.596C154.101 51.1 154.029 50.648 153.885 50.24C153.749 49.824 153.545 49.468 153.273 49.172C153.009 48.868 152.685 48.636 152.301 48.476C151.917 48.308 151.481 48.224 150.993 48.224C149.969 48.224 149.157 48.524 148.557 49.124C147.965 49.716 147.597 50.54 147.453 51.596H154.101ZM155.829 57.296C155.565 57.616 155.249 57.896 154.881 58.136C154.513 58.368 154.117 58.56 153.693 58.712C153.277 58.864 152.845 58.976 152.397 59.048C151.949 59.128 151.505 59.168 151.065 59.168C150.225 59.168 149.449 59.028 148.737 58.748C148.033 58.46 147.421 58.044 146.901 57.5C146.389 56.948 145.989 56.268 145.701 55.46C145.413 54.652 145.269 53.724 145.269 52.676C145.269 51.828 145.397 51.036 145.653 50.3C145.917 49.564 146.293 48.928 146.781 48.392C147.269 47.848 147.865 47.424 148.569 47.12C149.273 46.808 150.065 46.652 150.945 46.652C151.673 46.652 152.345 46.776 152.961 47.024C153.585 47.264 154.121 47.616 154.569 48.08C155.025 48.536 155.381 49.104 155.637 49.784C155.893 50.456 156.021 51.224 156.021 52.088C156.021 52.424 155.985 52.648 155.913 52.76C155.841 52.872 155.705 52.928 155.505 52.928H147.381C147.405 53.696 147.509 54.364 147.693 54.932C147.885 55.5 148.149 55.976 148.485 56.36C148.821 56.736 149.221 57.02 149.685 57.212C150.149 57.396 150.669 57.488 151.245 57.488C151.781 57.488 152.241 57.428 152.625 57.308C153.017 57.18 153.353 57.044 153.633 56.9C153.913 56.756 154.145 56.624 154.329 56.504C154.521 56.376 154.685 56.312 154.821 56.312C154.997 56.312 155.133 56.38 155.229 56.516L155.829 57.296ZM159.32 59V48.668L157.976 48.512C157.808 48.472 157.668 48.412 157.556 48.332C157.452 48.244 157.4 48.12 157.4 47.96V47.084H159.32V45.908C159.32 45.212 159.416 44.596 159.608 44.06C159.808 43.516 160.088 43.06 160.448 42.692C160.816 42.316 161.256 42.032 161.768 41.84C162.28 41.648 162.856 41.552 163.496 41.552C164.04 41.552 164.54 41.632 164.996 41.792L164.948 42.86C164.932 43.052 164.824 43.156 164.624 43.172C164.432 43.188 164.172 43.196 163.844 43.196C163.476 43.196 163.14 43.244 162.836 43.34C162.54 43.436 162.284 43.592 162.068 43.808C161.852 44.024 161.684 44.308 161.564 44.66C161.452 45.012 161.396 45.448 161.396 45.968V47.084H164.9V48.632H161.468V59H159.32ZM176.938 46.844V59H175.666C175.362 59 175.17 58.852 175.09 58.556L174.922 57.248C174.394 57.832 173.802 58.304 173.146 58.664C172.49 59.016 171.738 59.192 170.89 59.192C170.226 59.192 169.638 59.084 169.126 58.868C168.622 58.644 168.198 58.332 167.854 57.932C167.51 57.532 167.25 57.048 167.074 56.48C166.906 55.912 166.822 55.284 166.822 54.596V46.844H168.958V54.596C168.958 55.516 169.166 56.228 169.582 56.732C170.006 57.236 170.65 57.488 171.514 57.488C172.146 57.488 172.734 57.34 173.278 57.044C173.83 56.74 174.338 56.324 174.802 55.796V46.844H176.938ZM182.341 48.608C182.605 48.312 182.885 48.044 183.181 47.804C183.477 47.564 183.789 47.36 184.117 47.192C184.453 47.016 184.805 46.884 185.173 46.796C185.549 46.7 185.953 46.652 186.385 46.652C187.049 46.652 187.633 46.764 188.137 46.988C188.649 47.204 189.073 47.516 189.409 47.924C189.753 48.324 190.013 48.808 190.189 49.376C190.365 49.944 190.453 50.572 190.453 51.26V59H188.305V51.26C188.305 50.34 188.093 49.628 187.669 49.124C187.253 48.612 186.617 48.356 185.761 48.356C185.129 48.356 184.537 48.508 183.985 48.812C183.441 49.116 182.937 49.528 182.473 50.048V59H180.325V46.844H181.609C181.913 46.844 182.101 46.992 182.173 47.288L182.341 48.608ZM201.628 49.736C201.228 49.2 200.796 48.828 200.332 48.62C199.868 48.404 199.348 48.296 198.772 48.296C197.644 48.296 196.776 48.7 196.168 49.508C195.56 50.316 195.256 51.468 195.256 52.964C195.256 53.756 195.324 54.436 195.46 55.004C195.596 55.564 195.796 56.028 196.06 56.396C196.324 56.756 196.648 57.02 197.032 57.188C197.416 57.356 197.852 57.44 198.34 57.44C199.044 57.44 199.656 57.28 200.176 56.96C200.704 56.64 201.188 56.188 201.628 55.604V49.736ZM203.764 41.324V59H202.492C202.188 59 201.996 58.852 201.916 58.556L201.724 57.08C201.204 57.704 200.612 58.208 199.948 58.592C199.284 58.976 198.516 59.168 197.644 59.168C196.948 59.168 196.316 59.036 195.748 58.772C195.18 58.5 194.696 58.104 194.296 57.584C193.896 57.064 193.588 56.416 193.372 55.64C193.156 54.864 193.048 53.972 193.048 52.964C193.048 52.068 193.168 51.236 193.408 50.468C193.648 49.692 193.992 49.02 194.44 48.452C194.888 47.884 195.436 47.44 196.084 47.12C196.74 46.792 197.476 46.628 198.292 46.628C199.036 46.628 199.672 46.756 200.2 47.012C200.736 47.26 201.212 47.608 201.628 48.056V41.324H203.764Z" fill="white"/>
<defs>
<filter id="filter0_d" x="21" y="25" width="59.7878" height="58" filterUnits="userSpaceOnUse" color-interpolation-filters="sRGB">
<feFlood flood-opacity="0" result="BackgroundImageFix"/>
<feColorMatrix in="SourceAlpha" type="matrix" values="0 0 0 0 0 0 0 0 0 0 0 0 0 0 0 0 0 0 127 0"/>
<feOffset dy="4"/>
<feGaussianBlur stdDeviation="2"/>
<feColorMatrix type="matrix" values="0 0 0 0 0 0 0 0 0 0 0 0 0 0 0 0 0 0 0.25 0"/>
<feBlend mode="normal" in2="BackgroundImageFix" result="effect1_dropShadow"/>
<feBlend mode="normal" in="SourceGraphic" in2="effect1_dropShadow" result="shape"/>
</filter>
</defs>
</svg>
