<svg width="237" height="148" viewBox="0 0 237 148" fill="none" xmlns="http://www.w3.org/2000/svg">
<rect x="1" y="1" width="98" height="98" rx="49" stroke="white" stroke-opacity="0.3" stroke-width="2"/>
<path fill-rule="evenodd" clip-rule="evenodd" d="M63.9529 25.1752C63.209 25.3174 63.0571 25.6107 62.1088 28.7387C61.5029 30.7375 59.3243 34.5168 58.277 35.3859C57.9669 35.6434 57.4695 35.617 56.1658 35.2735C54.9713 34.9587 53.2457 34.8356 50.4066 34.8626L46.3529 34.9009L45.9258 33.9994C45.6912 33.5038 45.355 33.0981 45.1787 33.0981C45.0028 33.0981 44.6326 32.7157 44.3565 32.248C43.2665 30.403 41.486 28.4457 40.2261 27.7071C38.9094 26.9356 38.8943 26.9339 37.6115 27.4237C36.9018 27.6949 35.0456 28.7512 33.4861 29.7715C28.0634 33.3197 28.5875 32.7964 28.3703 34.8771C28.237 36.1521 28.2791 36.7595 28.5062 36.8353C28.6873 36.8957 29.2358 37.3028 29.7254 37.7401L30.6153 38.5353L30.1156 39.8437C29.2698 42.0579 30.1734 44.999 31.8993 45.6502L32.6835 45.9461L32.6063 49.7571C32.4916 55.3993 32.4115 55.7398 30.1696 60.0856C28.5657 63.1953 27.8186 64.3138 26.5674 65.4781C24.9786 66.9566 24.5524 67.9386 25.4972 67.9438C26.2774 67.9482 28.6667 69.1453 31.1934 70.798C32.4498 71.62 34.0177 72.438 34.6777 72.6162C36.146 73.0126 39.6004 73.0149 40.8977 72.6206C41.8928 72.3181 41.8878 72.3169 48.7983 74.2248C50.978 74.8267 52.2269 74.9893 54.7506 74.9992C57.5778 75.0105 58.2445 74.9092 60.5578 74.118C61.995 73.6261 63.9549 73.0059 64.9131 72.7396C68.5507 71.7289 74.7153 68.114 76.1935 66.125L76.7878 65.3251L75.915 63.657C75.37 62.6152 74.6383 61.7241 73.9664 61.2842C73.2298 60.8019 72.7855 60.2288 72.557 59.466C72.3396 58.7407 71.7812 57.9898 70.9566 57.3142C68.9505 55.6705 68.1268 53.6258 67.6642 49.1415C67.5246 47.789 67.2305 46.4113 67.0104 46.08C66.6465 45.5321 66.6979 45.4008 67.5765 44.6293C68.6567 43.681 68.9017 42.1782 68.0867 41.5016C67.8361 41.2937 67.691 40.8942 67.7644 40.614C67.8376 40.3335 67.7014 39.8242 67.4619 39.4819C67.0615 38.9102 67.0838 38.7967 67.74 38.0838C69.0092 36.7052 72.9148 29.5221 72.8895 28.613C72.8776 28.187 71.339 26.5384 70.5687 26.1261C70.0202 25.8325 65.1788 24.8999 64.7679 25.0088C64.6881 25.03 64.3214 25.1049 63.9529 25.1752ZM64.7767 26.4037C64.3818 27.1417 64.0946 27.3023 63.6553 27.0308C63.0879 26.6801 63.5946 25.8392 64.3736 25.8392C64.9819 25.8392 65.0374 25.9167 64.7767 26.4037ZM67.7441 26.3212C68.0234 26.397 68.2522 26.64 68.2522 26.8613C68.2522 27.6054 68.9165 28.7303 69.4578 28.9019C69.7702 29.0012 69.9944 29.3453 69.9944 29.7256C69.9944 30.4147 67.1248 35.4695 66.8283 35.3025C66.7331 35.2491 65.3161 34.7929 63.6791 34.2886L60.7032 33.3716L61.5342 31.7105C61.9912 30.7968 62.5243 29.5581 62.7189 28.9579C62.9134 28.3575 63.1986 27.9443 63.3524 28.0392C63.7772 28.302 65.0493 27.3528 65.3571 26.5433C65.6352 25.8113 65.8048 25.7957 67.7441 26.3212ZM70.1157 26.8865C70.3683 26.9835 70.5751 27.3197 70.5751 27.6336C70.5751 28.3859 69.7682 28.228 69.1953 27.3636C68.8091 26.7814 68.8109 26.7103 69.2092 26.7103C69.4552 26.7103 69.8631 26.7895 70.1157 26.8865ZM39.5473 28.4298L40.2328 28.9881L39.4154 29.3008C38.3211 29.7198 37.6965 29.6951 37.0278 29.2062C36.4982 28.8189 36.5209 28.7768 37.4805 28.3589C38.7996 27.7846 38.7528 27.7829 39.5473 28.4298ZM71.0971 31.3031C69.5359 34.6835 68.5684 36.292 68.0966 36.292C67.2514 36.292 67.391 35.6129 68.6352 33.6678C69.3492 32.5522 70.2319 30.793 70.5971 29.7582C71.2141 28.0108 71.2969 27.9092 71.7615 28.3296C72.2313 28.755 72.1909 28.935 71.0971 31.3031ZM37.511 30.3691C38.1701 30.4698 38.8632 30.3252 39.6294 29.9271C40.9683 29.2311 40.9421 29.2163 43.0405 31.8537C43.8707 32.8969 44.409 33.8205 44.265 33.9541C44.1233 34.085 42.648 35.1875 40.9863 36.4035C38.0908 38.5229 37.8986 38.6149 36.3713 38.6149C34.8911 38.6149 34.7102 38.5374 33.833 37.5261C32.9161 36.4692 32.8929 36.3771 33.0407 34.3984C33.1655 32.7262 33.106 32.2875 32.7105 31.9591C32.2765 31.5987 32.3955 31.4474 33.8958 30.4512C35.4001 29.4521 35.6109 29.3865 36.0476 29.7814C36.3136 30.0224 36.9721 30.2869 37.511 30.3691ZM64.5307 30.2268C64.0124 30.4222 63.8791 30.6646 63.95 31.2814C64.1082 32.6582 66.2197 32.4341 66.2197 31.0404C66.2197 30.32 65.3693 29.9103 64.5307 30.2268ZM32.21 33.1202C32.4701 33.5839 32.5529 34.1626 32.4292 34.6553L32.2306 35.4462L29.6537 33.2433L30.2721 32.723C31.0642 32.0566 31.6844 32.1841 32.21 33.1202ZM36.6539 33.1893C35.8833 34.0099 35.8458 34.8806 36.5537 35.5211C37.6277 36.4933 39.2166 35.8963 39.2166 34.5206C39.2166 32.5653 37.8885 31.8754 36.6539 33.1893ZM32.1011 36.9721C33.6298 38.6634 33.6815 38.7691 33.0552 38.927C32.5357 39.058 32.016 38.7456 30.6409 37.4753C29.1833 36.1292 28.9074 35.7244 29.0021 35.0717C29.1116 34.3182 29.1435 34.3046 29.8006 34.7352C30.1769 34.982 31.2123 35.9883 32.1011 36.9721ZM45.1212 36.292C45.2226 37.3626 45.1941 37.9909 45.0553 37.7438C44.7075 37.1239 44.3962 34.8606 44.6111 34.513C44.8808 34.0766 44.9264 34.2357 45.1212 36.292ZM60.6138 35.3429C60.5401 35.6254 60.475 35.4645 60.4692 34.9854C60.4634 34.5064 60.5235 34.2752 60.6031 34.4718C60.6826 34.6684 60.6876 35.0604 60.6138 35.3429ZM61.3455 35.421C61.2752 35.9001 61.1672 36.292 61.1057 36.292C61.0438 36.292 60.9933 35.9001 60.9933 35.421C60.9933 34.9419 61.1013 34.5499 61.2334 34.5499C61.3655 34.5499 61.4158 34.9419 61.3455 35.421ZM63.3162 35.6942C63.3162 36.0043 63.1855 36.3385 63.0258 36.4372C62.8612 36.5391 62.7354 36.295 62.7354 35.8737C62.7354 35.4651 62.8661 35.1306 63.0258 35.1306C63.1855 35.1306 63.3162 35.3841 63.3162 35.6942ZM54.6426 35.8643C55.802 36.1082 56.7988 36.3559 56.8578 36.4149C56.9167 36.4741 55.8264 37.4114 54.435 38.4976C53.0436 39.5841 52.0631 40.5257 52.2559 40.5902C52.4487 40.6544 52.852 40.4848 53.1522 40.2133C53.737 39.684 54.3151 39.8361 54.3151 40.5194C54.3151 40.8504 53.8081 40.9378 51.8912 40.9378H49.4673L48.9577 39.7037C48.2554 38.0022 48.1314 37.7514 47.3785 36.5098L46.7185 35.421H49.6267C51.2263 35.421 53.4835 35.6204 54.6426 35.8643ZM42.6088 36.637C42.5162 36.8684 42.4473 36.7996 42.4334 36.4613C42.4209 36.1553 42.4895 35.984 42.5859 36.0804C42.6823 36.1768 42.6927 36.4274 42.6088 36.637ZM46.1561 37.2528C46.1285 38.1376 46.1169 38.1466 45.8948 37.4535C45.5608 36.4108 45.5608 35.9404 45.8948 36.1469C46.0545 36.2456 46.1721 36.7433 46.1561 37.2528ZM59.3386 37.801C59.6899 37.9947 60.8176 38.3617 61.8452 38.6169L63.7134 39.0809L61.7 39.7032C58.0761 40.8234 55.014 41.2197 54.9652 40.5748C54.9501 40.3753 54.8549 39.9444 54.7532 39.6178C54.6054 39.1416 54.9031 38.7598 56.2544 37.6936C57.8464 36.4375 57.9611 36.3937 58.32 36.9065C58.5291 37.2046 58.9875 37.6074 59.3386 37.801ZM42.1201 37.0351C42.1201 37.2839 41.9895 37.407 41.8298 37.3083C41.6701 37.2096 41.5394 37.006 41.5394 36.8556C41.5394 36.7052 41.6701 36.5824 41.8298 36.5824C41.9895 36.5824 42.1201 36.7862 42.1201 37.0351ZM41.4779 38.1068C41.6126 38.6259 41.9105 39.0682 42.1393 39.0896C42.3684 39.1111 42.7191 39.1436 42.9186 39.1622C43.1184 39.1805 43.2815 39.3289 43.2815 39.4915C43.2815 39.7923 41.8771 39.5827 41.4723 39.2218C41.1965 38.9758 40.833 37.1631 41.0592 37.1631C41.1544 37.1631 41.3428 37.5876 41.4779 38.1068ZM47.1671 38.1945C47.2661 38.4529 47.2173 38.5693 47.053 38.4677C46.895 38.3701 46.7658 38.1675 46.7658 38.0171C46.7658 37.5995 46.974 37.6916 47.1671 38.1945ZM45.7615 39.7569C45.5126 40.1599 44.443 40.1596 44.443 39.7569C44.443 39.5789 44.6906 39.5255 45.0237 39.6312C45.3901 39.7476 45.6044 39.6834 45.6044 39.4572C45.6044 39.2601 45.6828 39.1773 45.7786 39.2731C45.8744 39.369 45.8669 39.5867 45.7615 39.7569ZM48.4987 40.4296C48.51 40.695 47.285 40.7168 46.6241 40.4633C46.224 40.3097 46.2769 40.1921 46.9438 39.7548C47.6923 39.2639 47.7673 39.2615 48.1166 39.7212C48.3215 39.9909 48.4937 40.3097 48.4987 40.4296ZM40.1111 40.053C41.7749 40.3646 44.3776 40.8881 45.8948 41.2162C50.9429 42.3074 56.7988 41.9987 62.1547 40.3588C64.1922 39.7348 65.8179 39.623 66.5078 40.0591C67.0769 40.4189 66.783 40.6541 64.5383 41.6346C63.1358 42.2476 61.9892 42.4885 59.6022 42.6723C56.5206 42.9096 55.4765 43.1273 55.4765 43.533C55.4765 43.6482 56.2933 43.5719 57.2913 43.3625C58.2895 43.1535 59.694 42.9926 60.4126 43.0051L61.7192 43.0277L60.4126 43.47C59.5331 43.7676 57.5921 43.9482 54.4739 44.0228C51.5753 44.0922 49.728 44.2551 49.5379 44.458C49.3143 44.6967 50.5016 44.7409 54.0247 44.6253C59.1757 44.4563 61.8194 43.9014 63.9006 42.5527C64.8806 41.9177 66.0432 41.4235 66.6553 41.3823C67.1651 41.3477 68.0057 42.6546 67.9096 43.3323C67.7664 44.341 66.0952 45.0707 64.405 44.8625C63.1315 44.7054 62.5014 45.0332 63.3887 45.3912C63.5885 45.4717 63.2903 45.548 62.7262 45.5605C62.162 45.573 60.9889 45.7681 60.119 45.9937C59.2221 46.2263 58.3464 46.3015 58.0958 46.1677C57.3374 45.7615 54.9704 45.5129 54.4797 45.7873C53.7016 46.2228 58.867 46.848 60.1202 46.4702C61.1173 46.1694 63.8138 46.0681 63.0923 46.3584C62.0191 46.7902 61.4553 50.7837 62.1765 52.8424C62.3498 53.3366 62.3995 52.8311 62.3327 51.2588C62.2787 49.9885 62.353 48.5187 62.4985 47.9925C62.9265 46.4426 65.3071 45.5835 66.3327 46.609C66.812 47.0884 66.9671 47.8288 67.2307 50.8973C67.4979 54.0085 68.3495 55.9155 70.3256 57.8281C71.2612 58.7334 72.0268 59.6809 72.0268 59.9332C72.0268 60.8603 70.8855 60.3556 68.6152 58.4242C66.9023 56.9669 66.6782 57.1028 67.947 58.8287C68.9012 60.1257 70.9 61.3353 72.9357 61.8472C73.8947 62.0882 74.3732 62.3899 74.6052 62.8989C75.3363 64.5037 74.8474 65.6288 72.8091 67.031C70.4171 68.677 62.5772 72.5492 60.7029 73.0108C59.6649 73.2664 58.3267 73.6868 57.7288 73.9452C56.1356 74.6342 52.9736 74.2931 47.9273 72.8883C42.2723 71.314 38.7491 70.8857 36.6141 71.5126C35.108 71.9551 34.9634 71.9499 33.7436 71.4104C33.0372 71.098 31.8395 70.3968 31.0816 69.8523C29.3636 68.6183 28.0732 67.9403 26.6113 67.5045L25.4754 67.166L26.6113 66.1065C27.2361 65.5237 28.6621 64.423 29.78 63.6605C32.5639 61.7616 33.4588 60.3411 34.4001 56.3267C34.8133 54.5642 35.1431 52.9608 35.1333 52.7643C35.1005 52.1313 34.5491 53.793 33.9721 56.2625C33.189 59.6152 32.2686 61.2894 30.4431 62.6817C29.6066 63.3193 28.8729 63.7917 28.8125 63.731C28.7521 63.6706 29.3857 62.4372 30.2207 60.9904C32.678 56.7326 33.1191 55.2018 33.1191 50.9275C33.1191 46.9159 33.2692 46.4194 34.9936 44.7315C36.2047 43.5463 36.4808 43.659 35.8812 45.0939C35.3371 46.3962 35.239 53.658 35.7779 52.73C35.9852 52.3729 36.0276 51.3395 35.8995 49.7611C35.7915 48.4298 35.7903 46.8758 35.8969 46.3079C36.0624 45.4258 36.1809 45.3015 36.7099 45.4534C37.5055 45.6819 38.6721 46.5091 38.9613 47.0498C39.085 47.2815 39.3577 47.8628 39.567 48.3418C39.9369 49.1882 40.0173 49.2179 42.4131 49.3851C43.769 49.4798 45.1073 49.6569 45.3866 49.7791C45.6689 49.9022 45.8948 49.8787 45.8948 49.7263C45.8948 49.2414 44.4587 48.7774 42.9584 48.7774C41.0853 48.7774 40.5191 48.4539 39.7645 46.9531C39.4259 46.2794 38.948 45.4998 38.7023 45.2205C38.288 44.7496 38.3228 44.7124 39.1765 44.7124C39.6832 44.7124 41.592 45.0356 43.4183 45.4305C45.2446 45.8253 47.823 46.2225 49.1479 46.3128C50.4728 46.4034 52.0468 46.5393 52.6455 46.6145C53.2768 46.6941 53.7344 46.6282 53.7344 46.458C53.7344 46.2963 53.0927 46.1642 52.3082 46.1642C50.3636 46.1642 47.0219 45.4955 43.7839 44.458C42.2453 43.9653 39.9195 43.4845 38.3696 43.3384L35.6524 43.0829L34.5035 44.0428C33.8714 44.5707 33.2262 45.0027 33.0691 45.0027C32.4588 45.0027 31.1171 43.2911 30.7977 42.105C30.388 40.5827 30.6493 40.2415 32.5383 39.8318C34.624 39.3791 36.865 39.4445 40.1111 40.053ZM38.0545 45.2411C38.1341 45.2957 37.8074 45.2461 37.3286 45.1308C36.2555 44.8724 36.2053 44.8314 36.4579 44.4223C36.5996 44.1932 36.8496 44.2522 37.2854 44.6177C37.6289 44.9061 37.975 45.1865 38.0545 45.2411ZM50.2086 50.5436C50.0132 51.1958 49.42 52.1626 48.8904 52.6923C47.6203 53.9623 47.5597 55.4231 48.7286 56.5918C49.1691 57.0325 49.6961 57.4486 49.8991 57.5162C50.1784 57.6094 50.2486 58.5583 50.1868 61.4111L50.1049 65.1825L48.1561 63.3324C46.2568 61.5293 45.314 61.1791 45.314 62.2764C45.314 63.0008 47.5698 65.2435 48.9902 65.9311C49.7086 66.2789 50.44 66.8785 50.6154 67.2635C51.0074 68.1238 51.8561 68.0327 51.8241 67.1334C51.7867 66.0882 52.8386 66.2937 53.0547 67.3739C53.3189 68.6941 54.1699 68.4052 54.1699 66.9955C54.1699 66.107 54.3032 65.8631 54.9304 65.6036C56.3467 65.0173 57.5613 63.4639 57.7227 62.0327C57.9295 60.1974 57.0915 58.914 55.0259 57.9036L53.444 57.1295V55.2407C53.444 53.5947 53.5001 53.3984 53.8796 53.7134C54.1191 53.9123 54.3151 54.255 54.3151 54.4748C54.3151 55.1972 55.1708 54.8926 55.3697 54.0996C55.5288 53.4655 55.3975 53.1751 54.6493 52.5067C54.1461 52.057 53.7344 51.4336 53.7344 51.1214C53.7344 50.3003 53.2347 50.1159 52.8677 50.8017C52.6818 51.1487 52.2588 51.3906 51.8369 51.3906C51.2126 51.3906 51.1212 51.2608 51.1212 50.3743C51.1212 49.0015 50.6441 49.0901 50.2086 50.5436ZM52.4551 53.5357C52.3645 53.8729 52.2887 54.7044 52.2867 55.383C52.2838 56.2366 52.1592 56.617 51.8819 56.617C51.5991 56.617 51.4403 56.0839 51.3413 54.8023C51.1772 52.678 51.2176 52.5558 52.016 52.7646C52.4641 52.8816 52.5773 53.0805 52.4551 53.5357ZM50.2501 54.4393C50.2501 55.8159 49.8927 56.1251 49.3892 55.1844C48.8059 54.0941 49.0713 53.2567 50.0323 53.1557C50.1523 53.1432 50.2501 53.7207 50.2501 54.4393ZM52.2826 60.5272C52.2826 61.6858 52.3656 63.2398 52.4673 63.9805C52.6371 65.2203 52.6026 65.3277 52.0317 65.3277C51.4316 65.3277 51.4115 65.211 51.4115 61.7073C51.4115 58.6086 51.4742 58.1112 51.8471 58.254C52.1789 58.3815 52.2826 58.923 52.2826 60.5272ZM55.9838 60.6681C56.8839 62.0037 56.8156 62.8963 55.7361 63.9047C54.2919 65.254 53.8494 65.0559 53.6304 62.9622C53.5279 61.9808 53.444 60.5966 53.444 59.8867V58.5961L54.3868 59.1466C54.9051 59.4494 55.6237 60.1341 55.9838 60.6681ZM75.6984 65.677C75.4766 66.5318 71.4133 69.438 68.5957 70.7568C65.1512 72.3689 65.5554 71.6889 69.1514 69.8219C71.5385 68.5826 72.9081 67.652 74.0593 66.4871C74.9377 65.5983 75.7048 64.9023 75.7637 64.9407C75.823 64.979 75.7934 65.3103 75.6984 65.677ZM39.9424 72.0059C40.3487 72.1804 39.9564 72.2603 38.6358 72.2713C37.3162 72.2826 36.8795 72.2028 37.1841 72.0059C37.7122 71.6647 39.1483 71.6647 39.9424 72.0059Z" fill="white" fill-opacity="0.3"/>
<path d="M133.729 32.1465C135.791 32.1465 137.033 31.1445 137.033 29.5684V29.5625C137.033 28.2441 136.266 27.5293 134.508 27.166L133.594 26.9785C132.574 26.7676 132.111 26.416 132.111 25.8184V25.8125C132.111 25.1387 132.727 24.6758 133.717 24.6699C134.666 24.6699 135.316 25.1094 135.416 25.8477L135.428 25.918H136.875L136.869 25.8184C136.781 24.3711 135.574 23.3984 133.729 23.3984C131.906 23.3984 130.6 24.4062 130.594 25.8945V25.9004C130.594 27.1602 131.414 27.9336 133.078 28.2793L133.986 28.4668C135.076 28.6953 135.516 29.0352 135.516 29.668V29.6738C135.516 30.4004 134.848 30.875 133.781 30.875C132.721 30.875 131.977 30.4238 131.865 29.6973L131.854 29.627H130.406L130.412 29.7148C130.512 31.2324 131.789 32.1465 133.729 32.1465ZM139.998 32H141.504V24.8164H144.029V23.5449H137.467V24.8164H139.998V32ZM145.066 32H150.539V30.7285H146.578V28.3203H150.322V27.0957H146.578V24.8164H150.539V23.5449H145.066V32ZM151.852 32H153.363V29.2051H155.109C156.82 29.2051 157.986 28.0684 157.986 26.3809V26.3691C157.986 24.6758 156.82 23.5449 155.109 23.5449H151.852V32ZM154.734 24.7812C155.818 24.7812 156.451 25.3613 156.451 26.375V26.3867C156.451 27.4004 155.818 27.9863 154.734 27.9863H153.363V24.7812H154.734ZM164.578 32.1465C166.646 32.1465 167.9 30.4648 167.9 27.7754V27.7637C167.9 25.0742 166.646 23.3984 164.578 23.3984C162.504 23.3984 161.256 25.0742 161.256 27.7637V27.7754C161.256 30.4648 162.504 32.1465 164.578 32.1465ZM164.578 30.9102C163.436 30.9102 162.779 29.7266 162.779 27.7754V27.7637C162.779 25.8125 163.436 24.6406 164.578 24.6406C165.715 24.6406 166.377 25.8125 166.377 27.7637V27.7754C166.377 29.7266 165.715 30.9102 164.578 30.9102ZM173.057 32H174.498V30.377H175.646V29.1348H174.498V23.5449H172.348L168.838 29.0879V30.377H173.057V32ZM170.197 29.1699V29.1289L173.045 24.6875H173.08V29.1699H170.197Z" fill="white" fill-opacity="0.3"/>
<path d="M131.488 58H134.512V51.6719H137.781L141.109 58H144.555L140.863 51.2148C142.832 50.5 144.051 48.6602 144.051 46.3867V46.3633C144.051 43.0938 141.848 41.0898 138.238 41.0898H131.488V58ZM134.512 49.2812V43.5391H137.863C139.762 43.5391 140.957 44.6172 140.957 46.3867V46.4102C140.957 48.2266 139.832 49.2812 137.922 49.2812H134.512ZM151.586 58.2461C154.832 58.2461 156.66 56.3242 157.047 54.4141L157.082 54.2852H154.352L154.328 54.3672C154.047 55.1992 153.098 55.9727 151.645 55.9727C149.746 55.9727 148.551 54.6836 148.504 52.5039H157.199V51.5664C157.199 47.8164 154.996 45.3203 151.445 45.3203C147.895 45.3203 145.609 47.8984 145.609 51.8125V51.8242C145.609 55.7734 147.859 58.2461 151.586 58.2461ZM151.48 47.6055C153.027 47.6055 154.152 48.5898 154.363 50.5586H148.539C148.773 48.6484 149.934 47.6055 151.48 47.6055ZM159.895 58H162.812V47.8281H165.25V45.5781H162.754V44.4766C162.754 43.4688 163.281 42.9414 164.418 42.9414C164.734 42.9414 165.062 42.9648 165.297 43V40.9609C164.934 40.8906 164.312 40.8438 163.738 40.8438C161.043 40.8438 159.895 41.9688 159.895 44.3945V45.5781H158.195V47.8281H159.895V58ZM171.402 58.2461C173.277 58.2461 174.555 57.3789 175.199 56.0547H175.258V58H178.176V45.5781H175.258V52.7734C175.258 54.5781 174.191 55.7852 172.516 55.7852C170.852 55.7852 170.031 54.7891 170.031 53.0312V45.5781H167.113V53.6055C167.113 56.4883 168.672 58.2461 171.402 58.2461ZM180.578 58H183.496V50.793C183.496 49 184.562 47.7812 186.238 47.7812C187.902 47.7812 188.723 48.7773 188.723 50.5469V58H191.641V49.9609C191.641 47.0781 190.082 45.3203 187.352 45.3203C185.465 45.3203 184.199 46.1875 183.555 47.5234H183.496V45.5781H180.578V58ZM198.602 58.2461C200.395 58.2461 201.766 57.3555 202.469 55.8906H202.539V58H205.457V41.0898H202.539V47.7109H202.469C201.766 46.2227 200.348 45.3203 198.59 45.3203C195.473 45.3203 193.469 47.7695 193.469 51.7773V51.7891C193.469 55.7852 195.461 58.2461 198.602 58.2461ZM199.48 55.7852C197.605 55.7852 196.445 54.2617 196.445 51.7891V51.7773C196.445 49.3047 197.617 47.7812 199.48 47.7812C201.273 47.7812 202.539 49.3516 202.539 51.7773V51.7891C202.539 54.2266 201.285 55.7852 199.48 55.7852Z" fill="white" fill-opacity="0.3"/>
</svg>
