<svg width="203" height="266" viewBox="0 0 203 266" fill="none" xmlns="http://www.w3.org/2000/svg">
<path fill-rule="evenodd" clip-rule="evenodd" d="M150.987 11.1096C150.987 20.6335 150.81 22.2994 149.797 22.2994C148.775 22.2994 148.637 20.7594 148.823 11.4281C148.979 3.56923 149.309 0.468509 150.013 0.238315C150.763 -0.0072256 150.987 2.49884 150.987 11.1096ZM185.73 10.1244C186.056 10.6423 181.044 16.1179 173.303 23.7012C163.132 33.6648 160.126 36.2085 159.384 35.478C158.642 34.7475 161.209 31.8156 171.264 21.9011C178.318 14.9454 184.336 9.25503 184.638 9.25503C184.938 9.25503 185.43 9.64636 185.73 10.1244ZM128.703 21.4592C137.692 30.3224 140.946 34.0078 140.59 34.9201C139.826 36.8806 138.425 35.7634 125.384 22.7974C114.564 12.0396 112.509 9.25503 115.39 9.25503C115.905 9.25503 121.896 14.7467 128.703 21.4592ZM195.827 43.831C196.996 45.6932 194.494 46.1222 183.657 45.9165C174.283 45.7377 172.418 45.5114 172.418 44.5515C172.418 43.59 174.304 43.3652 183.854 43.1887C191.63 43.0445 195.462 43.2501 195.827 43.831ZM127.205 43.7627C128.394 45.6556 126.284 46.0861 115.816 46.0861C105.834 46.0861 104.916 45.9702 105.156 44.7433C105.387 43.5555 106.645 43.3759 116.064 43.1872C122.747 43.0537 126.894 43.2678 127.205 43.7627ZM154.234 54.3347C157.678 58.0063 161.237 63.7128 167.304 75.2931L173.197 86.5389L176.235 82.8251C177.905 80.7825 181.193 77.8099 183.54 76.2185C187.41 73.5966 188.293 73.3234 192.972 73.3043C195.812 73.2927 198.962 72.8293 199.972 72.2745C203.109 70.5519 203.662 72.2507 201.613 77.3081C199.512 82.4944 190.874 99.706 185.332 109.748L181.49 116.71L183.773 123.361C186.122 130.204 186.645 135.771 185.274 139.323C184.445 141.469 173.675 157.565 166.439 167.47C162.601 172.724 161.889 174.326 159.954 182.049C158.759 186.821 156.618 194.353 155.196 198.786C152.379 207.57 150.345 210.235 143.194 214.511C141.266 215.665 138.46 217.762 136.96 219.172C132.858 223.027 122.141 226.221 101.112 229.857C79.2073 233.644 70.7511 236.377 60.2476 243.066C53.6656 247.257 44.5657 255.765 40.599 261.435C39.021 263.692 37.2504 265.538 36.6651 265.538C34.6039 265.538 34.7129 263.164 36.9223 259.956C38.1505 258.172 39.1558 256.023 39.1565 255.179C39.1565 254.241 39.6802 253.641 40.5032 253.636C41.2427 253.631 43.7435 251.785 46.0596 249.532C49.2174 246.462 50.1665 245.041 49.8517 243.857C49.4948 242.514 49.7044 242.347 51.2428 242.742C53.5588 243.339 57.4709 240.699 57.4709 238.54C57.4709 237.308 57.8341 237.062 59.1488 237.4C60.0715 237.638 61.913 237.275 63.2401 236.594L65.6536 235.356L63.3157 234.698C62.0299 234.336 59.6437 234.007 58.0126 233.968C55.2842 233.902 55.066 233.734 55.285 231.877C55.5102 229.965 55.7097 229.878 59.0296 230.228C67.5777 231.131 78.2955 230.589 86.6948 228.83C91.4096 227.842 96.0558 226.885 97.0206 226.705C97.9854 226.524 98.774 225.864 98.774 225.239C98.774 224.614 99.3001 224.103 99.943 224.103C100.586 224.103 101.112 224.589 101.112 225.182C101.112 225.883 101.657 226.121 102.671 225.86C103.528 225.639 104.229 225.113 104.229 224.691C104.229 224.269 105.018 224.131 105.983 224.385C106.947 224.639 111.155 224.092 115.334 223.17C121.499 221.809 122.932 221.232 122.932 220.112C122.932 218.552 124.952 218.22 125.493 219.691C125.775 220.458 126.176 220.458 127.496 219.691C128.403 219.164 129.826 218.732 130.658 218.732C133.395 218.732 135.122 215.147 138.491 202.471C143.97 181.857 147.681 160.885 146.58 156.742C146.136 155.068 136.904 148.014 125.624 140.73C115.349 134.095 115.312 134.085 105.747 135.253C98.654 136.12 97.5856 136.44 97.3401 137.78C96.8858 140.268 94.0546 142.71 91.0511 143.207C85.4074 144.14 85.2531 144.254 87.4094 145.924C92.065 149.529 96.4455 150.735 105.398 150.871L113.97 151.002L117.237 156.921C119.034 160.176 121.411 164.011 122.521 165.443L124.539 168.048L122.384 172.097C120.509 175.622 120.224 177.04 120.191 183.052C120.155 189.347 120.019 189.957 118.649 189.957C117.62 189.957 116.915 189.166 116.415 187.449C115.566 184.534 113.747 183.844 108.271 184.362C100.334 185.113 97.9947 188.289 99.5066 196.257C100.244 200.14 99.5167 202.083 97.5988 201.359C96.1174 200.799 94.8081 194.125 95.377 190.034L95.8524 186.621L86.9878 182.399C72.0431 175.281 57.8622 172.911 45.0021 175.382C35.6661 177.175 35.2608 177.175 35.2608 175.382C35.2608 174.28 36.1165 173.575 38.3087 172.868C42.3681 171.558 50.5733 170.425 56.1329 170.406C59.4278 170.395 61.733 169.848 64.7052 168.372C70.271 165.609 74.7972 161.988 74.2953 160.701C74.0483 160.067 74.406 159.649 75.1954 159.649C75.9155 159.649 77.2512 158.727 78.1638 157.601C80.4074 154.831 82.5068 155.578 82.125 159.012C81.973 160.377 81.3613 161.646 80.7651 161.831C80.1689 162.016 78.0882 163.586 76.1407 165.32C74.194 167.054 71.5787 169.189 70.3295 170.066L68.0578 171.659L73.1833 172.927C79.4146 174.468 90.1456 178.851 94.272 181.539L97.3019 183.514L101.574 181.94C104.263 180.949 107.713 180.366 110.883 180.366C113.652 180.366 115.919 180.049 115.919 179.662C115.919 179.274 116.118 178.445 116.362 177.819C116.654 177.069 116.352 176.721 115.471 176.798C114.738 176.861 113.966 176.429 113.755 175.837C113.476 175.053 113.835 174.881 115.083 175.203C116.358 175.531 116.956 175.22 117.435 173.976C117.805 173.016 117.756 171.916 117.321 171.384C116.321 170.161 117.222 168.808 118.671 169.356C120.295 169.969 120.123 169.373 117.435 165.071C115.963 162.715 114.656 161.414 114.007 161.659C112.581 162.198 111.565 160.401 112.852 159.618C113.691 159.107 113.7 158.598 112.898 156.866C112.12 155.185 111.77 154.972 111.222 155.846C110.669 156.725 110.331 156.756 109.561 155.998C108.312 154.768 106.019 154.771 105.56 156.004C105.275 156.771 104.997 156.771 104.171 156.004C103.603 155.477 102.536 155.045 101.8 155.045C101.064 155.045 100.28 155.477 100.057 156.004C99.7614 156.702 99.3492 156.597 98.5426 155.62C97.2692 154.079 94.7817 153.804 95.0723 155.236C95.1799 155.764 94.7411 156.196 94.0982 156.196C93.4553 156.196 92.9261 155.573 92.923 154.813C92.916 153.353 86.8733 150.137 85.9139 151.081C85.6287 151.362 85.49 151.246 85.6053 150.824C85.7207 150.402 84.42 148.61 82.7149 146.841C79.9203 143.942 79.5206 143.753 78.6501 144.923C77.9573 145.855 77.5661 145.956 77.2613 145.281C77.0276 144.763 76.8865 144.128 76.9473 143.868C77.0073 143.608 76.5148 142.995 75.8516 142.506C74.2049 141.292 73.8714 137.797 75.3949 137.723C77.99 137.597 87.8778 134.204 87.4827 133.574C86.7314 132.376 88.5316 131.944 90.144 132.935C91.5016 133.77 92.0073 133.614 93.9829 131.751C95.568 130.255 96.1298 129.119 95.8345 128.008C95.4744 126.652 95.6802 126.481 97.2022 126.873C99.5362 127.474 104.356 124.035 103.665 122.263C103.285 121.288 103.582 121.149 105.194 121.548C106.442 121.856 108.415 121.504 110.435 120.614C113.363 119.323 114.179 119.279 118.889 120.16C125.1 121.323 125.213 121.257 129.514 114.015C131.834 110.108 133.317 108.578 136.489 106.815C140.923 104.352 142.775 102.541 142.793 100.653C142.799 99.9723 143.444 99.4121 144.227 99.4083C146.186 99.4006 147.632 96.7879 146.207 95.8303C145.324 95.2364 145.354 94.9724 146.38 94.2772C148.066 93.1378 146.548 89.658 144.624 90.2519C142.884 90.789 142.057 89.3288 143.615 88.471C144.715 87.8648 144.732 87.2978 143.773 83.2095C142.43 77.4854 143.616 71.3683 147.107 66.0109C149.892 61.7393 149.93 61.4316 147.675 61.4354C144.49 61.4408 141.017 64.3359 136.915 70.4053C134.639 73.7715 128.886 80.26 123.781 85.2191C108.802 99.7681 80.6357 120.272 70.4908 124.011C61.2864 127.404 50.1143 133.476 43.5245 138.668C22.7514 155.032 11.0198 182.105 18.1574 197.203C20.8515 202.9 26.2365 208.901 31.7796 212.381C36.1422 215.118 37.4966 217.225 35.6271 218.362C32.9182 220.011 18.6398 207.329 15.034 200.071C12.9844 195.947 10.9543 184.912 11.9526 183.322C12.1786 182.963 12.0797 182.676 11.7329 182.685C11.3861 182.693 9.69965 184.632 7.98518 186.993C1.35253 196.123 -15.5287 209.951 -18.1191 208.375C-19.9357 207.269 -18.7301 205.213 -15.1991 203.395C-10.2684 200.858 2.36175 188.397 7.79193 180.714C10.1922 177.318 14.2898 170.641 16.8981 165.877C22.5745 155.508 25.2164 151.578 30.6715 145.382C39.2726 135.613 52.4327 126.841 66.6979 121.367C72.7983 119.027 77.1491 116.569 85.73 110.616C109.573 94.0777 125.987 79.7712 129.5 72.4648C133.923 63.2678 141.908 53.7592 145.207 53.7592C146.411 53.7592 147.206 54.4207 147.744 55.8694L148.526 57.9795L148.588 56.0228C148.653 53.9603 149.931 52.2246 151.387 52.2246C151.864 52.2246 153.145 53.1745 154.234 54.3347ZM148.963 70.8128C147.989 72.9413 147.483 75.7742 147.488 79.0614C147.495 83.2494 147.972 85.0534 150.411 90.0946C152.014 93.4086 153.331 96.8616 153.338 97.7678C153.362 101.093 156.45 113.751 158.419 118.596C160.577 123.907 160.485 125.601 157.862 128.908C156.529 130.588 156.504 130.847 157.62 131.462C158.405 131.895 159.264 131.817 159.956 131.253C161.157 130.271 162.974 130.931 162.249 132.086C162 132.483 162.848 133.679 164.133 134.744C166.924 137.057 168.469 141.19 167.88 144.769C167.511 147.008 167.671 147.372 169.025 147.372C169.94 147.372 170.463 147.774 170.273 148.331C170.094 148.859 169.28 149.291 168.465 149.291C166.707 149.293 166.059 151.592 167.376 153.154C168.115 154.031 168.052 154.356 167.072 154.726C166.393 154.982 165.621 156.454 165.358 157.997C165.094 159.538 164.694 161.49 164.469 162.334C163.951 164.28 165.116 163.221 167.086 159.955C167.876 158.648 171.012 153.987 174.055 149.597C181.056 139.497 182.159 137.362 182.159 133.905C182.159 132.365 180.418 125.701 178.288 119.096C176.159 112.492 173.186 102.516 171.682 96.9291C170.177 91.3415 168.056 85.0403 166.968 82.9256C165.101 79.2993 164.815 79.0806 161.944 79.0806C158.219 79.0806 154.997 76.2438 152.83 71.0553C152.031 69.1423 151.167 67.5755 150.911 67.574C150.655 67.5724 149.778 69.0296 148.963 70.8128ZM184.477 80.2462C181.567 82.3494 180.594 83.5256 180.762 84.7334C180.927 85.9128 180.598 86.3386 179.585 86.2565C178.753 86.1898 177.41 87.2885 176.294 88.949C174.469 91.6645 174.444 91.8886 175.524 95.9201C176.138 98.2113 177.2 100.394 177.884 100.771C178.76 101.254 178.894 101.735 178.339 102.394C177.417 103.488 178.112 106.887 179.131 106.267C179.511 106.035 180.225 106.092 180.719 106.392C181.351 106.776 181.231 107.216 180.316 107.875C179.509 108.456 179.211 109.315 179.533 110.139C179.913 111.114 181.056 109.557 183.826 104.29C185.902 100.342 187.604 97.0028 187.608 96.8692C187.611 96.735 186.943 96.8355 186.121 97.0918C184.318 97.6557 183.106 96.1441 184.838 95.4904C185.507 95.2371 186.056 94.2749 186.056 93.3519C186.056 92.4296 187.09 89.79 188.355 87.4873C189.619 85.1846 191.102 82.4376 191.65 81.3825C192.198 80.3275 193.093 79.188 193.638 78.8504C194.183 78.5128 194.628 77.8636 194.628 77.4071C194.628 75.666 188.406 77.4063 184.477 80.2462ZM189.529 79.795C189.776 80.1878 189.621 80.7257 189.186 80.9912C188.256 81.5567 186.835 80.8385 186.835 79.8026C186.835 78.8688 188.945 78.8627 189.529 79.795ZM142.771 83.6315C143.018 84.0244 142.863 84.5623 142.427 84.8278C141.498 85.3933 140.077 84.6751 140.077 83.6392C140.077 82.7054 142.187 82.6992 142.771 83.6315ZM186.412 85.1662C186.659 85.559 186.504 86.0969 186.068 86.3624C185.139 86.9279 183.718 86.2097 183.718 85.1738C183.718 84.24 185.828 84.2339 186.412 85.1662ZM139.654 89.0027C140.231 89.9212 138.765 90.8305 137.727 90.199C136.855 89.6688 137.427 88.2884 138.518 88.2884C138.896 88.2884 139.408 88.6099 139.654 89.0027ZM183.957 90.3133C184.684 91.03 183.805 92.1249 182.503 92.1249C181.885 92.1249 181.38 91.607 181.38 90.974C181.38 89.8184 183.025 89.3964 183.957 90.3133ZM178.619 90.5374C179.196 91.4558 177.73 92.3651 176.692 91.7336C175.82 91.2034 176.393 89.823 177.484 89.823C177.862 89.823 178.373 90.1445 178.619 90.5374ZM142.808 94.4322C143.075 94.8573 142.73 95.4182 142.041 95.6784C140.549 96.2416 139.718 95.6208 140.435 94.4783C141.082 93.447 142.177 93.4263 142.808 94.4322ZM137.353 94.4322C137.62 94.8573 137.275 95.4182 136.586 95.6784C135.094 96.2416 134.263 95.6208 134.98 94.4783C135.627 93.447 136.721 93.4263 137.353 94.4322ZM180.957 95.9086C181.534 96.827 180.068 97.7363 179.03 97.1048C178.158 96.5746 178.731 95.1942 179.822 95.1942C180.2 95.1942 180.711 95.5157 180.957 95.9086ZM139.719 99.8495C140.436 100.992 139.605 101.613 138.113 101.05C137.424 100.789 137.079 100.229 137.346 99.8034C137.978 98.7975 139.073 98.8182 139.719 99.8495ZM184.111 101.338C184.378 101.763 184.033 102.324 183.344 102.584C181.852 103.147 181.021 102.527 181.738 101.384C182.385 100.353 183.48 100.332 184.111 101.338ZM145.885 104.465C144.191 106.187 141.297 108.475 139.454 109.548C136.565 111.23 130.283 118.9 129.715 121.439C129.627 121.828 133.55 123.347 138.43 124.816C143.31 126.286 148.495 127.978 149.953 128.578C152.565 129.653 152.625 129.633 154.13 127.202C156.054 124.095 156.05 123.988 153.766 117.271C152.722 114.202 151.434 109.36 150.903 106.512C150.372 103.664 149.719 101.333 149.452 101.333C149.185 101.333 147.579 102.742 145.885 104.465ZM100.725 122.056C100.993 122.481 100.647 123.042 99.9586 123.302C98.467 123.865 97.6355 123.244 98.3524 122.102C98.9993 121.07 100.094 121.05 100.725 122.056ZM110.23 124.832C106.501 126.697 98.7171 131.458 98.9782 131.714C99.1037 131.838 102.759 131.61 107.102 131.207C112.491 130.709 115.685 130.733 117.159 131.285C119.969 132.337 133.091 140.811 142.139 147.418C151.365 154.153 151.601 154.778 149.835 167.697C149.12 172.924 148.649 177.86 148.787 178.666C148.925 179.471 148.662 180.615 148.201 181.207C147.74 181.799 146.781 185.012 146.07 188.347C144.85 194.066 144.853 194.468 146.129 195.432C147.386 196.384 147.36 196.488 145.753 196.934C143.932 197.439 142.744 199.745 143.601 201.11C143.879 201.555 143.725 202.372 143.257 202.927C142.594 203.714 140.127 210.521 140.086 211.678C140.081 211.807 141.114 211.31 142.38 210.574C143.889 209.696 144.627 208.689 144.523 207.652C144.409 206.53 144.816 206.071 145.922 206.071C148.236 206.071 149.289 205.144 150.095 202.399C150.492 201.042 151.069 199.328 151.376 198.59C151.777 197.624 151.563 197.247 150.616 197.247C149.892 197.247 149.454 196.816 149.642 196.288C149.832 195.761 150.528 195.371 151.19 195.423C152.77 195.546 156.01 183.639 160.892 159.771C165.08 139.294 165.065 139.121 158.773 136.1C149.898 131.837 121.762 123.773 115.295 123.639C113.882 123.609 111.602 124.146 110.23 124.832ZM164.479 125.615C165.496 126.616 165.01 127.421 163.392 127.421C162.484 127.421 161.904 127.019 162.076 126.511C162.456 125.389 163.757 124.904 164.479 125.615ZM92.5396 127.741C92.5396 128.41 91.9847 128.956 91.306 128.956C89.9297 128.956 90.169 127.304 91.6138 126.83C92.1235 126.662 92.5396 127.073 92.5396 127.741ZM87.4741 128.189C87.2092 128.611 86.4665 128.956 85.8236 128.956C85.1806 128.956 84.8713 128.611 85.1362 128.189C85.4012 127.767 86.1439 127.421 86.7868 127.421C87.4297 127.421 87.7391 127.767 87.4741 128.189ZM167.233 131.594C167.084 132.298 166.612 132.855 166.184 132.833C165.027 132.773 165.239 131.056 166.453 130.658C167.109 130.443 167.4 130.794 167.233 131.594ZM84.3889 132.844C85.1058 133.986 84.2743 134.607 82.7827 134.044C82.0938 133.784 81.7486 133.223 82.0159 132.798C82.6471 131.792 83.742 131.813 84.3889 132.844ZM78.9337 132.844C79.6507 133.986 78.8192 134.607 77.3276 134.044C76.6387 133.784 76.2935 133.223 76.5608 132.798C77.192 131.792 78.2869 131.813 78.9337 132.844ZM73.4786 132.844C74.1956 133.986 73.3641 134.607 71.8725 134.044C71.1836 133.784 70.8383 133.223 71.1056 132.798C71.7369 131.792 72.8318 131.813 73.4786 132.844ZM67.8614 132.537C68.7584 133.419 68.4295 134.327 67.2122 134.327C66.5693 134.327 66.0433 133.809 66.0433 133.176C66.0433 131.978 66.9652 131.654 67.8614 132.537ZM170.122 136.696C170.925 137.976 169.119 139.443 168.044 138.384C167.145 137.498 167.707 135.862 168.911 135.862C169.289 135.862 169.834 136.237 170.122 136.696ZM70.9623 137.892C71.9793 138.893 71.4937 139.698 69.8751 139.698C68.968 139.698 68.3874 139.296 68.5597 138.788C68.9392 137.666 70.2406 137.181 70.9623 137.892ZM65.6536 138.164C66.493 139.5 65.2492 140.641 64.0342 139.649C63.4342 139.158 63.1357 138.451 63.3703 138.077C63.9392 137.171 65.0575 137.214 65.6536 138.164ZM73.4887 143.602C73.7763 144.061 73.6072 144.835 73.1124 145.322C72.4328 145.991 72.0431 145.937 71.5171 145.1C70.7744 143.916 71.1493 142.768 72.2777 142.768C72.6557 142.768 73.2004 143.143 73.4887 143.602ZM67.9915 143.535C68.5597 144.44 67.8224 145.837 66.7766 145.837C66.3729 145.837 66.0433 145.146 66.0433 144.302C66.0433 142.684 67.1772 142.237 67.9915 143.535ZM82.0611 148.973C82.8638 150.253 81.0581 151.72 79.9827 150.661C79.0834 149.776 79.646 148.139 80.8501 148.139C81.228 148.139 81.7727 148.514 82.0611 148.973ZM76.6059 148.973C77.4086 150.253 75.603 151.72 74.5276 150.661C73.6282 149.776 74.1909 148.139 75.3949 148.139C75.7729 148.139 76.3176 148.514 76.6059 148.973ZM71.1508 148.973C71.9535 150.253 70.1479 151.72 69.0724 150.661C68.1731 149.776 68.7358 148.139 69.9398 148.139C70.3178 148.139 70.8625 148.514 71.1508 148.973ZM65.6957 148.973C66.4984 150.253 64.6927 151.72 63.6173 150.661C62.718 149.776 63.2807 148.139 64.4847 148.139C64.8626 148.139 65.4074 148.514 65.6957 148.973ZM89.8541 154.344C90.6568 155.624 88.8511 157.091 87.7757 156.032C86.8764 155.147 87.4391 153.51 88.6431 153.51C89.021 153.51 89.5658 153.885 89.8541 154.344ZM84.399 154.344C85.2017 155.624 83.396 157.091 82.3206 156.032C81.4213 155.147 81.9839 153.51 83.188 153.51C83.5659 153.51 84.1106 153.885 84.399 154.344ZM78.9649 154.378C79.6289 155.436 78.1038 156.895 77.0213 156.237C76.5553 155.953 76.1742 155.434 76.1742 155.081C76.1742 154.061 78.4116 153.496 78.9649 154.378ZM73.4887 154.344C74.1574 155.41 72.6752 156.912 71.6005 156.258C70.7051 155.713 71.2787 153.51 72.3151 153.51C72.6728 153.51 73.2004 153.885 73.4887 154.344ZM67.9837 154.265C68.5581 155.18 67.8287 156.579 66.7766 156.579C65.8282 156.579 65.822 154.502 66.7688 153.927C67.1678 153.683 67.7141 153.836 67.9837 154.265ZM108.586 159.937C109.246 161.631 108.368 162.496 107.177 161.324C106.474 160.631 106.472 160.203 107.165 159.52C107.858 158.837 108.197 158.936 108.586 159.937ZM103.131 159.937C103.791 161.631 102.913 162.496 101.722 161.324C101.019 160.631 101.017 160.203 101.71 159.52C102.403 158.837 102.741 158.936 103.131 159.937ZM97.676 159.937C98.3361 161.631 97.4578 162.496 96.267 161.324C95.5641 160.631 95.5617 160.203 96.2545 159.52C96.9481 158.837 97.2863 158.936 97.676 159.937ZM86.9995 159.932C87.6939 160.756 87.7087 161.187 87.0541 161.585C85.7838 162.359 84.2065 160.641 85.2469 159.616C85.8111 159.061 86.3473 159.157 86.9995 159.932ZM92.8957 160.363C93.1428 160.756 92.9877 161.294 92.5521 161.559C91.6224 162.125 90.2017 161.406 90.2017 160.371C90.2017 159.437 92.3113 159.431 92.8957 160.363ZM115.834 164.536C116.528 165.36 116.543 165.791 115.888 166.189C114.618 166.963 113.041 165.245 114.081 164.22C114.645 163.665 115.181 163.761 115.834 164.536ZM110.895 164.319C111.698 165.599 109.892 167.066 108.817 166.007C107.918 165.122 108.48 163.485 109.684 163.485C110.062 163.485 110.607 163.86 110.895 164.319ZM105.44 164.319C106.243 165.599 104.437 167.066 103.362 166.007C102.462 165.122 103.025 163.485 104.229 163.485C104.607 163.485 105.152 163.86 105.44 164.319ZM99.985 164.319C100.788 165.599 98.9821 167.066 97.9067 166.007C97.0073 165.122 97.57 163.485 98.774 163.485C99.152 163.485 99.6967 163.86 99.985 164.319ZM94.5299 164.319C95.3326 165.599 93.527 167.066 92.4515 166.007C91.5522 165.122 92.1149 163.485 93.3189 163.485C93.6969 163.485 94.2416 163.86 94.5299 164.319ZM89.0514 164.282C89.837 165.533 88.0921 167.086 87.0518 166.062C86.4875 165.506 86.5857 164.978 87.372 164.336C88.209 163.652 88.647 163.638 89.0514 164.282ZM83.4475 163.997C84.3943 164.928 83.986 165.746 82.7983 165.298C82.1554 165.054 81.6293 164.547 81.6293 164.17C81.6293 163.366 82.7032 163.263 83.4475 163.997ZM113.496 169.907C114.19 170.731 114.205 171.162 113.55 171.56C112.28 172.334 110.703 170.616 111.743 169.591C112.307 169.036 112.844 169.133 113.496 169.907ZM108.041 169.907C108.735 170.731 108.75 171.162 108.095 171.56C106.825 172.334 105.248 170.616 106.288 169.591C106.852 169.036 107.388 169.133 108.041 169.907ZM152.159 184.975C152.427 185.4 152.081 185.961 151.393 186.221C149.901 186.785 149.069 186.164 149.786 185.021C150.433 183.99 151.528 183.969 152.159 184.975ZM149.042 190.346C149.309 190.772 148.964 191.332 148.275 191.593C146.784 192.156 145.952 191.535 146.669 190.392C147.316 189.361 148.411 189.341 149.042 190.346ZM149.081 201.15C149.369 201.609 149.299 202.285 148.926 202.653C148.004 203.56 145.976 202.24 146.647 201.169C147.328 200.084 148.407 200.076 149.081 201.15ZM136.002 208.901C135.521 210.323 133.843 210.559 133.843 209.204C133.843 208.536 134.398 207.989 135.076 207.989C135.755 207.989 136.172 208.399 136.002 208.901ZM130.725 209.14C130.725 209.773 130.199 210.291 129.557 210.291C128.914 210.291 128.388 209.773 128.388 209.14C128.388 208.507 128.914 207.989 129.557 207.989C130.199 207.989 130.725 208.507 130.725 209.14ZM125.27 209.14C125.27 209.773 124.744 210.291 124.101 210.291C123.458 210.291 122.932 209.773 122.932 209.14C122.932 208.507 123.458 207.989 124.101 207.989C124.744 207.989 125.27 208.507 125.27 209.14ZM119.815 209.14C119.815 209.773 119.289 210.291 118.646 210.291C118.003 210.291 117.477 209.773 117.477 209.14C117.477 208.507 118.003 207.989 118.646 207.989C119.289 207.989 119.815 208.507 119.815 209.14ZM114.36 209.14C114.36 209.773 113.791 210.291 113.096 210.291C112.06 210.291 112.007 210.083 112.801 209.14C113.335 208.507 113.904 207.989 114.066 207.989C114.228 207.989 114.36 208.507 114.36 209.14ZM133.673 214.246C133.268 215.441 131.525 215.65 131.463 214.511C131.441 214.089 132.007 213.625 132.722 213.479C133.535 213.314 133.891 213.601 133.673 214.246ZM128.218 214.246C127.813 215.441 126.07 215.65 126.008 214.511C125.986 214.089 126.552 213.625 127.267 213.479C128.08 213.314 128.436 213.601 128.218 214.246ZM122.932 214.511C122.932 215.302 122.422 215.678 121.569 215.517C119.926 215.205 120.03 213.843 121.722 213.496C122.428 213.351 122.932 213.774 122.932 214.511ZM117.477 214.511C117.477 215.145 116.951 215.662 116.308 215.662C115.665 215.662 115.139 215.145 115.139 214.511C115.139 213.878 115.665 213.361 116.308 213.361C116.951 213.361 117.477 213.878 117.477 214.511ZM112.022 214.511C112.022 215.145 111.496 215.662 110.853 215.662C110.21 215.662 109.684 215.145 109.684 214.511C109.684 213.878 110.21 213.361 110.853 213.361C111.496 213.361 112.022 213.878 112.022 214.511ZM119.815 219.883C119.815 220.516 119.289 221.034 118.646 221.034C118.003 221.034 117.477 220.516 117.477 219.883C117.477 219.25 118.003 218.732 118.646 218.732C119.289 218.732 119.815 219.25 119.815 219.883ZM114.36 219.883C114.36 220.516 113.834 221.034 113.191 221.034C112.548 221.034 112.022 220.516 112.022 219.883C112.022 219.25 112.548 218.732 113.191 218.732C113.834 218.732 114.36 219.25 114.36 219.883ZM108.905 219.883C108.905 220.516 108.379 221.034 107.736 221.034C107.093 221.034 106.567 220.516 106.567 219.883C106.567 219.25 107.093 218.732 107.736 218.732C108.379 218.732 108.905 219.25 108.905 219.883ZM103.45 219.819C103.45 220.487 102.895 221.034 102.216 221.034C100.84 221.034 101.079 219.382 102.524 218.907C103.034 218.74 103.45 219.151 103.45 219.819ZM95.6568 225.638C95.6568 226.06 95.3061 226.405 94.8775 226.405C94.4489 226.405 94.0982 226.06 94.0982 225.638C94.0982 225.216 94.4489 224.87 94.8775 224.87C95.3061 224.87 95.6568 225.216 95.6568 225.638ZM43.7996 227.119C44.0467 227.512 43.8916 228.05 43.4559 228.315C42.5262 228.881 41.1056 228.163 41.1056 227.127C41.1056 226.193 43.2152 226.187 43.7996 227.119ZM38.3445 227.119C38.5916 227.512 38.4365 228.05 38.0008 228.315C37.0711 228.881 35.6505 228.163 35.6505 227.127C35.6505 226.193 37.76 226.187 38.3445 227.119ZM32.8894 227.119C33.4661 228.038 32.0002 228.947 30.9622 228.315C30.0901 227.785 30.6629 226.405 31.7539 226.405C32.1319 226.405 32.6431 226.726 32.8894 227.119ZM27.0781 227.939C27.0781 228.361 26.7064 228.707 26.2529 228.707C25.7993 228.707 25.6442 228.361 25.9092 227.939C26.1741 227.517 26.5451 227.172 26.7345 227.172C26.9238 227.172 27.0781 227.517 27.0781 227.939ZM52.0158 232.927C52.0158 233.56 51.4898 234.078 50.8469 234.078C50.204 234.078 49.6779 233.56 49.6779 232.927C49.6779 232.294 50.204 231.776 50.8469 231.776C51.4898 231.776 52.0158 232.294 52.0158 232.927ZM46.5607 232.927C46.5607 233.56 46.0347 234.078 45.3918 234.078C44.7488 234.078 44.2228 233.56 44.2228 232.927C44.2228 232.294 44.7488 231.776 45.3918 231.776C46.0347 231.776 46.5607 232.294 46.5607 232.927ZM41.3441 232.266C42.0711 232.983 41.1929 234.078 39.8907 234.078C39.2727 234.078 38.7677 233.56 38.7677 232.927C38.7677 231.771 40.4128 231.349 41.3441 232.266ZM35.8889 232.266C36.616 232.983 35.7377 234.078 34.4355 234.078C33.8175 234.078 33.3125 233.56 33.3125 232.927C33.3125 231.771 34.9577 231.349 35.8889 232.266ZM30.4338 232.266C31.1609 232.983 30.2826 234.078 28.9804 234.078C28.3624 234.078 27.8574 233.56 27.8574 232.927C27.8574 231.771 29.5025 231.349 30.4338 232.266ZM25.0964 232.49C25.673 233.409 24.2072 234.318 23.1691 233.687C22.2971 233.156 22.8699 231.776 23.9609 231.776C24.3389 231.776 24.8501 232.098 25.0964 232.49ZM19.6412 232.49C20.2179 233.409 18.752 234.318 17.714 233.687C16.842 233.156 17.4148 231.776 18.5058 231.776C18.8837 231.776 19.3949 232.098 19.6412 232.49ZM14.1861 232.49C14.7628 233.409 13.2969 234.318 12.2589 233.687C11.3869 233.156 11.9596 231.776 13.0507 231.776C13.4286 231.776 13.9398 232.098 14.1861 232.49ZM8.98424 232.662C8.57978 233.857 6.83651 234.066 6.77495 232.927C6.75235 232.505 7.31889 232.041 8.03351 231.894C8.84632 231.729 9.20244 232.016 8.98424 232.662ZM54.5922 237.638C55.3193 238.354 54.441 239.449 53.1388 239.449C52.5208 239.449 52.0158 238.931 52.0158 238.298C52.0158 237.143 53.6609 236.721 54.5922 237.638ZM49.1371 237.638C49.8642 238.354 48.9859 239.449 47.6837 239.449C47.0657 239.449 46.5607 238.931 46.5607 238.298C46.5607 237.143 48.2058 236.721 49.1371 237.638ZM43.8363 237.92C44.1036 238.345 43.7583 238.906 43.0694 239.166C41.5778 239.729 40.7463 239.108 41.4633 237.966C42.1101 236.935 43.205 236.914 43.8363 237.92ZM38.3811 237.92C38.6484 238.345 38.3032 238.906 37.6143 239.166C36.1227 239.729 35.2912 239.108 36.0082 237.966C36.655 236.935 37.7499 236.914 38.3811 237.92ZM32.8894 237.862C33.4661 238.78 32.0002 239.689 30.9622 239.058C30.0901 238.528 30.6629 237.147 31.7539 237.147C32.1319 237.147 32.6431 237.469 32.8894 237.862ZM27.4343 237.862C28.0109 238.78 26.5451 239.689 25.507 239.058C24.635 238.528 25.2078 237.147 26.2988 237.147C26.6768 237.147 27.188 237.469 27.4343 237.862ZM22.0446 237.966C22.7616 239.108 21.93 239.729 20.4384 239.166C19.7495 238.906 19.4043 238.345 19.6716 237.92C20.3028 236.914 21.3978 236.935 22.0446 237.966ZM16.5895 237.966C17.3064 239.108 16.4749 239.729 14.9833 239.166C14.2944 238.906 13.9492 238.345 14.2165 237.92C14.8477 236.914 15.9427 236.935 16.5895 237.966ZM11.4921 238.298C11.4921 239.089 10.9816 239.465 10.1283 239.303C8.48549 238.992 8.58915 237.63 10.2818 237.283C10.9878 237.138 11.4921 237.561 11.4921 238.298ZM46.9535 243.291C47.2208 243.716 46.8755 244.277 46.1866 244.537C44.695 245.1 43.8635 244.48 44.5805 243.337C45.2273 242.306 46.3222 242.285 46.9535 243.291ZM41.4984 243.291C41.7657 243.716 41.4204 244.277 40.7315 244.537C39.2399 245.1 38.4084 244.48 39.1254 243.337C39.7722 242.306 40.8671 242.285 41.4984 243.291ZM36.0432 243.291C36.3105 243.716 35.9653 244.277 35.2764 244.537C33.7848 245.1 32.9533 244.48 33.6703 243.337C34.3171 242.306 35.412 242.285 36.0432 243.291ZM30.5881 243.291C30.8554 243.716 30.5102 244.277 29.8213 244.537C28.3297 245.1 27.4982 244.48 28.2151 243.337C28.862 242.306 29.9569 242.285 30.5881 243.291ZM25.133 243.291C25.4003 243.716 25.0551 244.277 24.3662 244.537C22.8746 245.1 22.043 244.48 22.76 243.337C23.4068 242.306 24.5017 242.285 25.133 243.291ZM19.6779 243.291C19.9452 243.716 19.5999 244.277 18.911 244.537C17.4194 245.1 16.5879 244.48 17.3049 243.337C17.9517 242.306 19.0466 242.285 19.6779 243.291ZM14.2516 243.337C14.9685 244.48 14.137 245.1 12.6454 244.537C11.9565 244.277 11.6113 243.716 11.8786 243.291C12.5098 242.285 13.6047 242.306 14.2516 243.337ZM8.79645 243.337C9.51341 244.48 8.68186 245.1 7.19028 244.537C6.50137 244.277 6.15613 243.716 6.42343 243.291C7.05467 242.285 8.14963 242.306 8.79645 243.337ZM43.8363 248.662C44.1036 249.087 43.7583 249.648 43.0694 249.908C41.5778 250.472 40.7463 249.851 41.4633 248.708C42.1101 247.677 43.205 247.656 43.8363 248.662ZM38.3811 248.662C38.6484 249.087 38.3032 249.648 37.6143 249.908C36.1227 250.472 35.2912 249.851 36.0082 248.708C36.655 247.677 37.7499 247.656 38.3811 248.662ZM32.7764 248.385C33.7934 249.386 33.3079 250.192 31.6893 250.192C30.7821 250.192 30.2016 249.789 30.3738 249.281C30.7533 248.159 32.0548 247.674 32.7764 248.385ZM27.4997 248.708C28.2167 249.851 27.3852 250.472 25.8936 249.908C25.2047 249.648 24.8595 249.087 25.1268 248.662C25.758 247.656 26.8529 247.677 27.4997 248.708ZM22.0446 248.708C22.7616 249.851 21.93 250.472 20.4384 249.908C19.7495 249.648 19.4043 249.087 19.6716 248.662C20.3028 247.656 21.3978 247.677 22.0446 248.708ZM16.5895 248.708C17.3064 249.851 16.4749 250.472 14.9833 249.908C14.2944 249.648 13.9492 249.087 14.2165 248.662C14.8477 247.656 15.9427 247.677 16.5895 248.708ZM11.1344 248.708C11.8513 249.851 11.0198 250.472 9.52818 249.908C8.83928 249.648 8.49405 249.087 8.76135 248.662C9.39259 247.656 10.4875 247.677 11.1344 248.708ZM35.9855 253.941C36.2201 254.315 35.9217 255.023 35.3216 255.513C34.1067 256.506 32.8629 255.365 33.7022 254.028C34.2984 253.078 35.4167 253.035 35.9855 253.941ZM30.5304 253.941C30.765 254.315 30.4665 255.023 29.8665 255.513C28.6515 256.506 27.4078 255.365 28.2471 254.028C28.8433 253.078 29.9615 253.035 30.5304 253.941ZM25.1719 254.095C25.9746 255.375 24.169 256.842 23.0936 255.783C22.1942 254.898 22.7569 253.261 23.9609 253.261C24.3389 253.261 24.8836 253.636 25.1719 254.095ZM19.7285 254.114C20.4002 255.184 18.3717 256.505 17.4498 255.597C16.7009 254.86 17.4226 253.261 18.5058 253.261C18.8837 253.261 19.4339 253.644 19.7285 254.114ZM14.2617 254.095C14.5493 254.554 14.4799 255.23 14.1066 255.597C13.1847 256.505 11.1562 255.184 11.828 254.114C12.5083 253.029 13.5876 253.021 14.2617 254.095ZM8.80658 254.095C9.09414 254.554 9.02476 255.23 8.65147 255.597C7.72956 256.505 5.70107 255.184 6.37283 254.114C7.05317 253.029 8.13248 253.021 8.80658 254.095ZM32.965 259.466C33.7676 260.746 31.962 262.213 30.8866 261.154C29.9873 260.269 30.5499 258.632 31.7539 258.632C32.1319 258.632 32.6766 259.007 32.965 259.466ZM27.5098 259.466C28.3125 260.746 26.5069 262.213 25.4315 261.154C24.5321 260.269 25.0948 258.632 26.2988 258.632C26.6768 258.632 27.2215 259.007 27.5098 259.466ZM22.0547 259.466C22.8574 260.746 21.0518 262.213 19.9763 261.154C19.077 260.269 19.6397 258.632 20.8437 258.632C21.2217 258.632 21.7664 259.007 22.0547 259.466ZM16.5996 259.466C17.4023 260.746 15.5967 262.213 14.5212 261.154C13.6219 260.269 14.1845 258.632 15.3886 258.632C15.7665 258.632 16.3113 259.007 16.5996 259.466ZM11.1445 259.466C11.432 259.925 11.2629 260.699 10.7681 261.186C10.0885 261.856 9.69887 261.802 9.17284 260.964C8.43016 259.781 8.80501 258.632 9.93344 258.632C10.3114 258.632 10.8561 259.007 11.1445 259.466ZM30.1953 265.091C30.1953 265.759 29.6405 266.305 28.9617 266.305C27.5855 266.305 27.8247 264.653 29.2695 264.179C29.7792 264.012 30.1953 264.422 30.1953 265.091ZM25.1719 264.837C25.9746 266.117 24.169 267.584 23.0936 266.525C22.1942 265.64 22.7569 264.003 23.9609 264.003C24.3389 264.003 24.8836 264.378 25.1719 264.837ZM19.7168 264.837C20.5195 266.117 18.7139 267.584 17.6384 266.525C16.7391 265.64 17.3018 264.003 18.5058 264.003C18.8837 264.003 19.4285 264.378 19.7168 264.837ZM14.2617 264.837C15.0644 266.117 13.2587 267.584 12.1833 266.525C11.284 265.64 11.8466 264.003 13.0507 264.003C13.4286 264.003 13.9734 264.378 14.2617 264.837ZM8.80658 264.837C9.60926 266.117 7.80362 267.584 6.72818 266.525C5.82886 265.64 6.39151 264.003 7.59554 264.003C7.9735 264.003 8.51824 264.378 8.80658 264.837Z" fill="#F6F6F6"/>
</svg>
