<svg width="300" height="200" viewBox="0 0 300 200" fill="none" xmlns="http://www.w3.org/2000/svg">
<g clip-path="url(#clip0)">
<path fill-rule="evenodd" clip-rule="evenodd" d="M-20.2082 185.954C-20.8121 185.484 -21.215 184.304 -21.5751 181.949C-21.8564 180.112 -21.9724 178.511 -21.8339 178.392C-21.6951 178.273 -20.1792 177.974 -18.4653 177.728C-15.3637 177.282 -15.3416 177.285 -13.7099 178.443L-12.0708 179.606L-14.1733 179.929C-15.3295 180.108 -16.3171 180.383 -16.3676 180.542C-16.4181 180.701 -15.8795 181.143 -15.1712 181.524C-14.0774 182.111 -13.9544 182.328 -14.3585 182.958C-14.6201 183.367 -14.8993 183.897 -14.9784 184.137C-15.0823 184.45 -15.5338 184.332 -16.5898 183.715C-17.3967 183.243 -18.1561 182.91 -18.2774 182.972C-18.3989 183.035 -18.3637 183.898 -18.1997 184.889C-18.0355 185.881 -17.9308 186.785 -17.9669 186.898C-18.0641 187.204 -19.2318 186.712 -20.2082 185.954ZM-8.27807 187.792C-9.55955 187.233 -9.64646 187.088 -9.24174 186.188C-8.81365 185.236 -8.69795 185.226 -6.17996 185.906L-3.56324 186.614L-3.99406 187.969C-4.46657 189.456 -4.46365 189.456 -8.27807 187.792ZM2.03009 189.846C2.10565 189.207 2.26093 188.635 2.37505 188.575C2.75305 188.377 7.44332 189.305 7.72593 189.634C8.06671 190.031 7.56021 191.745 7.06533 191.869C6.86809 191.918 5.62335 191.745 4.29947 191.483L1.89245 191.007L2.03009 189.846ZM13.686 191.262C13.7494 190.571 13.8734 189.985 13.9613 189.96C14.0494 189.935 15.2275 189.927 16.58 189.944C19.1731 189.976 19.5968 190.257 19.3113 191.758C19.1583 192.563 18.8191 192.678 16.6117 192.674C13.4058 192.669 13.5503 192.739 13.686 191.262ZM25.4197 191.003C25.3457 190.39 25.3093 189.813 25.3387 189.72C25.4091 189.499 30.7877 188.636 30.8685 188.833C31.2065 189.66 31.2103 191.13 30.8751 191.299C30.4369 191.518 26.0225 192.267 25.7235 192.172C25.6302 192.142 25.4934 191.616 25.4197 191.003ZM36.969 188.407C36.659 187.297 36.6917 187.27 39.3423 186.416L42.0295 185.551L42.4397 186.578C42.6656 187.143 42.8131 187.722 42.768 187.864C42.6605 188.202 38.084 189.786 37.6313 189.642C37.4397 189.581 37.1416 189.025 36.969 188.407ZM48.0814 184.279C47.7481 183.568 46.8481 182.44 46.0813 181.771L44.6874 180.556L45.6653 179.659L46.6432 178.763L48.4519 180.169L50.2606 181.575L51.4005 181.029L52.54 180.484L53.0817 181.615L53.6231 182.747L51.1553 184.158L48.6875 185.57L48.0814 184.279ZM55.9041 184.945C56.2246 183.936 56.4253 183.838 57.7726 184.033C58.603 184.153 59.8103 184.251 60.456 184.251C61.4872 184.252 61.6376 184.384 61.6902 185.335C61.7236 185.93 61.706 186.558 61.6514 186.73C61.5259 187.125 58.2585 186.937 56.7138 186.446C55.6739 186.115 55.5846 185.95 55.9041 184.945ZM67.6448 185.286C67.6104 184.038 67.6628 183.999 69.9304 183.595C71.2072 183.367 72.4112 183.163 72.6062 183.141C73.0188 183.096 73.6423 184.662 73.4617 185.291C73.3587 185.65 68.4779 186.817 67.8761 186.626C67.7683 186.592 67.6644 185.989 67.6448 185.286ZM39.0457 172.966L37.7016 170.568L38.9809 169.906L40.2604 169.244L41.5571 171.703C42.8067 174.073 42.822 174.188 41.9766 174.876C41.4944 175.268 40.9399 175.539 40.7449 175.477C40.5499 175.415 39.7854 174.285 39.0457 172.966ZM58.1285 178.242C57.7649 177.766 57.5231 177.202 57.5909 176.989C57.6846 176.694 59.7203 174.933 61.3843 173.707C61.662 173.502 63.2049 175.22 63.0844 175.599C62.9648 175.975 59.1223 179.213 58.8849 179.137C58.8321 179.121 58.4917 178.717 58.1285 178.242ZM79.1776 182.734C78.9674 181.507 78.9877 181.49 81.5666 180.686L84.1671 179.875L84.5959 180.971C84.8317 181.573 84.9836 182.195 84.9336 182.352C84.8468 182.625 79.9659 184.154 79.5762 184.03C79.4734 183.997 79.2938 183.414 79.1776 182.734ZM34.3471 162.218C33.4118 159.688 33.4361 159.363 34.5922 158.952C35.8058 158.52 35.8526 158.568 36.8813 161.262C37.7718 163.595 37.7764 163.759 36.9597 164.234C35.6692 164.986 35.251 164.663 34.3471 162.218ZM90.3914 179.305C90.0891 178.222 90.1344 178.185 92.8255 177.341L95.5679 176.481L95.9923 177.754L96.4169 179.027L93.9259 179.835C92.5562 180.279 91.2698 180.59 91.0675 180.526C90.8653 180.462 90.5608 179.912 90.3914 179.305ZM66.6105 170.134C65.7261 169.298 65.7903 169.06 67.4807 166.925C68.8291 165.222 69.8337 164.939 70.7174 166.014C71.0716 166.445 70.8637 166.897 69.4481 168.771C68.5166 170.003 67.6612 170.969 67.5469 170.917C67.4324 170.865 67.0115 170.512 66.6105 170.134ZM101.873 176.147C101.481 174.744 101.585 174.648 104.507 173.695L106.833 172.936L107.256 174.25L107.678 175.565L104.936 176.433L102.195 177.3L101.873 176.147ZM30.8914 150.733C30.5509 149.198 30.4236 147.861 30.6081 147.763C30.7927 147.664 31.4074 147.615 31.9741 147.653C32.8845 147.714 33.0741 148.02 33.6022 150.275C33.9314 151.679 34.1281 152.848 34.039 152.874C33.9504 152.9 33.3452 153.057 32.6941 153.223L31.5107 153.525L30.8914 150.733ZM112.88 172.153C112.584 171.09 112.643 171.041 115.247 170.162L117.917 169.26L118.309 170.339C118.524 170.932 118.668 171.533 118.629 171.675C118.531 172.021 114.049 173.518 113.567 173.364C113.357 173.297 113.048 172.752 112.88 172.153ZM71.4947 158.41C71.6789 157.83 71.848 156.713 71.8702 155.926C71.9179 154.251 71.8663 154.298 73.4685 154.475C74.6941 154.611 74.7137 154.653 74.514 156.718C74.1829 160.138 74.0307 160.377 72.4978 159.89C71.2919 159.506 71.1928 159.36 71.4947 158.41ZM29.9225 139.727C29.9763 138.875 30.0987 137.588 30.1943 136.866C30.3616 135.605 30.4172 135.569 31.6204 135.951C32.8463 136.341 32.8678 136.404 32.659 138.992C32.4511 141.563 32.4222 141.634 31.5998 141.596C30.0422 141.526 29.8237 141.282 29.9225 139.727ZM124.111 168.529C123.935 167.898 123.812 167.317 123.837 167.237C123.862 167.157 124.986 166.636 126.334 166.077C128.698 165.098 128.803 165.094 129.314 165.971C130.204 167.499 129.905 167.74 124.964 169.487C124.627 169.606 124.314 169.255 124.111 168.529ZM70.9096 145.934C70.6265 144.501 70.4276 143.225 70.4675 143.099C70.5074 142.973 71.1006 142.775 71.7858 142.657L73.0315 142.444L73.5363 145.097C73.814 146.555 74.0153 147.831 73.9834 147.931C73.9516 148.031 73.3628 148.21 72.675 148.327L71.424 148.541L70.9096 145.934ZM135.004 164.01L134.447 162.847L137.019 161.726L139.592 160.605L140.206 161.706C140.793 162.76 140.781 162.83 139.916 163.335C139.419 163.626 138.236 164.158 137.286 164.518L135.56 165.173L135.004 164.01ZM32.7201 129.614C32.3869 129.217 32.5155 128.757 33.3925 127.203C34.9495 124.443 35.2759 124.236 36.4729 125.245C37.4378 126.058 37.4381 126.091 36.5018 127.321C35.9785 128.008 35.3925 129.041 35.1995 129.617C34.9216 130.445 34.6696 130.605 33.99 130.384C33.5182 130.23 32.9463 129.883 32.7201 129.614ZM67.9761 134.416C67.2309 132.13 67.2356 131.999 68.0854 131.504C69.5594 130.645 69.6422 130.738 70.8916 134.658C71.4395 136.377 71.4302 136.436 70.5522 136.747C69.125 137.252 68.8072 136.964 67.9761 134.416ZM145.765 159.105C145.445 158.162 145.546 158.054 147.737 157.011C149.007 156.406 150.217 155.966 150.426 156.032C150.634 156.098 151.014 156.613 151.271 157.176C151.733 158.189 151.714 158.209 149.302 159.27C147.963 159.859 146.695 160.287 146.485 160.22C146.274 160.154 145.95 159.652 145.765 159.105ZM40.4965 120.726L39.8415 119.731L42.4895 118.307L45.1371 116.883L45.6036 118.015L46.0698 119.147L43.8555 120.511C42.6374 121.262 41.5306 121.841 41.3963 121.798C41.2617 121.756 40.8569 121.273 40.4965 120.726ZM63.088 124.596C61.6228 122.673 61.5287 121.516 62.7844 120.866C63.2973 120.601 65.6731 123.058 66.3603 124.565C66.7744 125.474 66.7452 125.538 65.6835 126.031L64.5731 126.545L63.088 124.596ZM156.593 154.5L156.045 153.355L158.44 152.138C159.758 151.469 161 150.98 161.201 151.051C161.402 151.122 161.731 151.674 161.931 152.279C162.331 153.484 162.567 153.296 158.396 155.102L157.141 155.645L156.593 154.5ZM51.603 116.972C51.6643 116.303 51.8227 115.7 51.9547 115.632C52.0871 115.564 53.4723 115.799 55.0339 116.155L57.8727 116.802L57.1799 118.015C56.7986 118.682 56.4573 119.24 56.4218 119.256C56.3862 119.271 55.2622 119.036 53.924 118.735L51.4915 118.187L51.603 116.972ZM167.409 149.473L166.852 148.31L169.425 147.189L171.997 146.068L172.611 147.168C173.199 148.222 173.186 148.292 172.322 148.798C171.824 149.088 170.641 149.621 169.692 149.981L167.966 150.636L167.409 149.473ZM178.146 144.916L177.606 143.786L179.461 142.903C182.822 141.304 182.914 141.296 183.419 142.579C183.839 143.646 183.812 143.75 183.003 144.226C182.527 144.506 181.362 145.03 180.412 145.39L178.687 146.045L178.146 144.916ZM189.043 140.275C188.86 139.618 188.779 139.059 188.863 139.033C188.948 139.007 190.04 138.592 191.29 138.111C193.646 137.203 194.417 137.378 194.697 138.883C194.837 139.64 194.513 139.879 192.281 140.666C190.864 141.165 189.63 141.551 189.54 141.522C189.451 141.494 189.226 140.932 189.043 140.275ZM307.351 175.949C305.857 173.562 305.711 173.072 306.005 171.433C306.187 170.422 306.395 169.554 306.469 169.505C306.542 169.456 307.07 170.192 307.641 171.14L308.68 172.863L308.815 171.734C308.913 170.912 309.169 170.565 309.756 170.456C311.205 170.187 311.785 170.637 311.642 171.921C311.567 172.597 311.619 173.281 311.756 173.44C311.893 173.6 312.933 173.217 314.067 172.588L316.129 171.444L315.512 173.416C314.942 175.24 314.691 175.518 312.183 177.094C310.69 178.032 309.37 178.76 309.248 178.712C309.126 178.664 308.272 177.421 307.351 175.949ZM200.102 136.285C199.736 135.185 199.752 135.172 202.48 134.316L205.226 133.455L205.651 134.727L206.075 135.999L203.538 136.794C202.143 137.23 200.882 137.543 200.735 137.49C200.589 137.436 200.304 136.894 200.102 136.285ZM211.533 133.127C211.145 131.736 211.236 131.675 214.784 130.985C216.691 130.613 216.714 130.619 217.041 131.543C217.222 132.056 217.321 132.65 217.261 132.862C217.175 133.162 213.923 134.077 212.143 134.303C211.993 134.322 211.719 133.793 211.533 133.127ZM306.865 162.331L305.819 159.88L307.069 159.233L308.319 158.586L309.256 160.915C310.557 164.145 310.556 164.173 309.158 164.495C307.913 164.781 307.908 164.776 306.865 162.331ZM223.022 130.884C222.947 130.258 223.029 129.623 223.204 129.472C223.549 129.176 227.809 128.427 228.286 128.579C228.537 128.658 228.935 130.612 228.792 131.062C228.764 131.152 227.601 131.383 226.208 131.578C224.814 131.772 223.559 131.951 223.417 131.977C223.275 132.002 223.097 131.51 223.022 130.884ZM301.028 152.59C299.319 150.53 299.313 150.509 300.19 149.641C300.675 149.16 301.198 148.807 301.352 148.856C301.8 148.998 304.789 152.886 304.683 153.188C304.63 153.339 304.173 153.733 303.668 154.064L302.749 154.665L301.028 152.59ZM234.798 129.521C234.602 127.899 234.693 127.837 237.463 127.698C240.121 127.564 240.483 127.761 240.459 129.323C240.447 130.078 240.081 130.218 237.685 130.386L234.925 130.58L234.798 129.521ZM292.567 144.65C290.607 143.135 290.441 142.619 291.561 141.53C292.159 140.948 292.22 140.968 294.121 142.38C295.192 143.176 296.164 144.015 296.283 144.243C296.503 144.669 295.099 146.491 294.719 146.273C294.604 146.206 293.635 145.476 292.567 144.65ZM246.527 128.912C246.592 128.2 246.721 127.586 246.814 127.546C247.066 127.437 252.288 127.789 252.343 127.919C252.369 127.98 252.335 128.595 252.268 129.284C252.15 130.504 252.092 130.534 250.174 130.398C249.089 130.321 247.798 130.246 247.305 130.232C246.556 130.21 246.428 129.993 246.527 128.912ZM282.706 138.587C280.666 137.521 280.637 137.48 281.036 136.226C281.259 135.524 281.557 134.986 281.697 135.031C281.838 135.076 282.99 135.653 284.259 136.313C286.542 137.502 286.561 137.527 286.078 138.648C285.499 139.991 285.389 139.988 282.706 138.587ZM258.265 130.7C258.159 130.495 258.197 129.939 258.348 129.462C258.652 128.507 259.073 128.457 262.118 129.017C264.114 129.384 264.152 129.414 264.023 130.539C263.95 131.17 263.74 131.761 263.555 131.853C263.034 132.111 258.481 131.118 258.265 130.7ZM269.801 133.144C269.865 132.933 269.937 132.34 269.961 131.827C270.002 130.918 270.082 130.918 272.916 131.819C275.936 132.779 276.03 132.892 275.065 134.396C274.675 135.004 274.293 134.993 272.151 134.312C270.765 133.872 269.736 133.36 269.801 133.144Z" fill="#283593"/>
<path d="M114 161C122.285 161 129 167.716 129 176C129 184.284 122.285 191 114 191C105.715 191 99 184.284 99 176C99 167.716 105.715 161 114 161Z" fill="#EFC75E"/>
<path d="M114 163.812C107.269 163.812 101.812 169.269 101.812 176C101.812 182.731 107.269 188.187 114 188.187C120.731 188.187 126.187 182.731 126.187 176C126.187 169.269 120.731 163.812 114 163.812ZM114 186.312C108.305 186.312 103.687 181.695 103.687 176C103.687 170.305 108.305 165.687 114 165.687C119.695 165.687 124.312 170.305 124.312 176C124.312 181.695 119.696 186.312 114 186.312ZM115.247 175.217C114.686 174.982 112.626 174.657 112.626 173.756C112.626 173.091 113.396 172.899 113.859 172.899C114.279 172.899 114.784 173.032 115.05 173.297C115.219 173.459 115.288 173.577 115.344 173.741C115.414 173.933 115.456 174.139 115.722 174.139H117.096C117.418 174.139 117.503 174.08 117.503 173.726C117.503 172.205 116.311 171.348 114.952 171.053V169.872C114.952 169.606 114.867 169.443 114.545 169.443H113.451C113.128 169.443 113.044 169.605 113.044 169.872V171.008C111.586 171.288 110.367 172.204 110.367 173.858C110.367 175.733 111.671 176.323 113.086 176.795C114.278 177.194 115.525 177.209 115.525 178.035C115.525 178.862 114.91 179.04 114.152 179.04C113.633 179.04 113.059 178.905 112.778 178.552C112.596 178.331 112.526 178.139 112.512 177.946C112.484 177.577 112.331 177.533 112.007 177.533H110.648C110.325 177.533 110.241 177.608 110.241 177.946C110.241 179.629 111.587 180.649 113.044 180.974V182.126C113.044 182.391 113.128 182.554 113.451 182.554H114.545C114.867 182.554 114.952 182.391 114.952 182.126V181.005C116.606 180.752 117.741 179.749 117.741 177.977C117.743 175.97 116.257 175.542 115.247 175.217Z" fill="#CC9933"/>
</g>
<defs>
<clipPath id="clip0">
<rect width="300" height="200" fill="white"/>
</clipPath>
</defs>
</svg>
