<svg width="300" height="200" viewBox="0 0 300 200" fill="none" xmlns="http://www.w3.org/2000/svg">
<g clip-path="url(#clip0)">
<path fill-rule="evenodd" clip-rule="evenodd" d="M1.42826 145.339C3.03243 144.32 3.26265 144.251 3.56071 144.703C3.68785 144.895 4.01678 145.402 4.29156 145.829L4.79123 146.604L3.58315 147.315C2.91852 147.706 2.16311 148.275 1.9044 148.579C1.12218 149.498 0.589629 149.465 -0.297838 148.442C-1.01521 147.615 -1.03366 147.468 -0.495027 146.857C-0.168352 146.486 0.697014 145.803 1.42826 145.339ZM-4.17091 152.564C-4.00263 152.604 -3.45814 152.869 -2.96111 153.152C-2.06698 153.662 -2.06344 153.689 -2.64816 155.658C-2.97361 156.753 -3.2882 157.863 -3.34732 158.125C-3.42509 158.468 -3.79321 158.492 -4.66326 158.21C-5.32746 157.994 -5.90842 157.787 -5.95421 157.748C-6.11837 157.61 -5.24717 154.021 -4.86585 153.264C-4.65175 152.84 -4.33918 152.525 -4.17091 152.564ZM-9.78689 163.678C-9.59516 163.839 -8.8668 164.626 -8.16834 165.427C-7.46988 166.228 -6.82239 166.883 -6.72971 166.882C-6.63703 166.882 -6.57261 166.16 -6.58678 165.279L-6.61212 163.677L-5.44435 163.796C-4.28056 163.915 -3.51471 164.291 -3.78437 164.613C-3.86236 164.706 -3.87834 165.386 -3.81989 166.124L-3.71366 167.466L-1.97643 166.11L-0.239204 164.754L-0.265246 166.645L-0.291477 168.536L-2.55796 170.475C-3.80462 171.542 -4.94929 172.416 -5.10176 172.418C-5.36331 172.421 -9.8011 167.53 -10.0197 166.998C-10.0758 166.861 -10.1249 165.992 -10.1286 165.067C-10.1331 163.977 -10.0128 163.488 -9.78689 163.678ZM10.8208 141.613C14.3632 140.945 14.242 140.92 14.6605 142.39L15.0215 143.658L12.6775 144.093C11.3883 144.332 10.1912 144.54 10.017 144.556C9.76503 144.578 8.51207 142.253 8.67293 142.061C8.69617 142.034 9.6629 141.832 10.8208 141.613ZM23.3476 141.396C24.789 141.586 26.0819 141.836 26.2207 141.954C26.3595 142.071 26.448 142.709 26.4172 143.372L26.3614 144.579L25.1549 144.315C24.4916 144.17 23.2668 143.98 22.4333 143.893L20.9179 143.733L20.6903 142.55C20.5652 141.899 20.5222 141.296 20.5947 141.21C20.6675 141.123 21.906 141.207 23.3476 141.396ZM34.7544 144.241C38.5584 145.566 38.4009 145.441 38.0268 146.822C37.8444 147.495 37.6585 148.034 37.6138 148.019C37.5397 147.995 33.5017 146.437 32.5923 146.082C32.2372 145.943 32.2968 144.216 32.672 143.769C32.7624 143.661 33.6997 143.873 34.7544 144.241ZM46.6514 149.618C47.9482 150.281 49.1297 150.926 49.2772 151.049C49.4249 151.173 49.3374 151.757 49.0829 152.346L48.6204 153.418L47.3814 152.767C46.7002 152.409 45.4955 151.792 44.7051 151.397L43.2671 150.678L43.6665 149.684C43.8864 149.136 44.1174 148.626 44.18 148.55C44.2429 148.474 45.3548 148.954 46.6514 149.618ZM55.6625 154.805C56.5916 155.27 60.2962 157.658 60.3084 157.799C60.3149 157.875 60.0489 158.381 59.7174 158.923L59.1146 159.908L56.6212 158.279C55.2495 157.383 54.1228 156.59 54.1174 156.517C54.1117 156.443 54.3424 155.97 54.63 155.466C55.0435 154.741 55.2594 154.603 55.6625 154.805ZM65.8638 161.572C66.0312 161.61 67.2229 162.407 68.5116 163.343L70.8551 165.045L70.0498 166.004L69.2444 166.964L66.9369 165.271C65.6679 164.34 64.6213 163.527 64.6114 163.465C64.5545 163.109 65.6093 161.515 65.8638 161.572ZM76.4693 168.985C76.7714 169.135 77.8905 169.88 78.9563 170.64L80.8944 172.023L80.4074 172.956C80.1397 173.47 79.7528 173.888 79.5473 173.885C79.3422 173.883 78.1798 173.101 76.9643 172.148L74.7542 170.415L75.3372 169.564C75.7885 168.904 76.0441 168.774 76.4693 168.985ZM88.1664 176.747C89.1872 177.384 90.3805 178.113 90.8179 178.369C91.5032 178.769 91.556 178.903 91.1973 179.337C90.9683 179.613 90.6734 180.1 90.5416 180.419C90.3181 180.96 90.1426 180.896 87.9069 179.454C86.5892 178.605 85.4158 177.846 85.2989 177.766C85.1823 177.687 85.3621 177.165 85.6987 176.606L86.3107 175.59L88.1664 176.747ZM98.1851 182.627C98.8228 182.96 99.9351 183.541 100.657 183.917C102.171 184.707 102.297 185.016 101.546 186.113L101 186.911L98.5595 185.591C97.2172 184.866 96.1007 184.164 96.0782 184.032C96.0556 183.9 96.2595 183.393 96.5313 182.906C97.0098 182.05 97.0626 182.041 98.1851 182.627ZM108.894 187.586C109.314 187.755 110.5 188.189 111.529 188.55L113.4 189.207L113.186 190.342C112.929 191.704 112.825 191.709 109.564 190.511C107.245 189.66 107.055 189.412 107.716 188.101C108.071 187.397 108.24 187.323 108.894 187.586ZM120.812 190.911C121.488 191.024 122.672 191.161 123.445 191.214L124.85 191.311L124.961 192.645L125.071 193.979L123.726 193.886C122.986 193.835 121.668 193.676 120.797 193.533L119.213 193.272L119.214 192.209C119.214 190.796 119.37 190.669 120.812 190.911ZM133.33 191.119L135.958 190.85L136.388 191.929C136.625 192.522 136.782 193.116 136.738 193.247C136.642 193.533 131.529 194.094 131.24 193.851C131.13 193.759 130.964 193.167 130.871 192.536L130.703 191.389L133.33 191.119ZM143.845 188.332C145.075 187.855 146.132 187.465 146.195 187.465C146.258 187.464 146.606 187.968 146.969 188.584C147.526 189.531 147.539 189.755 147.055 190.033C146.557 190.32 143.014 191.656 142.692 191.679C142.504 191.692 141.35 189.418 141.486 189.303C141.553 189.246 142.615 188.809 143.845 188.332ZM187.297 139.923L188.439 140.881L186.986 142.863C186.187 143.953 185.474 144.85 185.402 144.857C185.33 144.864 184.762 144.533 184.14 144.121L183.009 143.372L183.796 142.429C184.229 141.911 184.937 140.919 185.369 140.226L186.155 138.965L187.297 139.923ZM192.985 132.696C193.668 132.203 194.342 131.894 194.483 132.009C194.945 132.388 196.164 133.858 196.09 133.947C196.049 133.995 195.521 134.408 194.916 134.866C194.31 135.323 193.441 136.002 192.985 136.373C192.297 136.933 192.052 136.962 191.554 136.545C190.068 135.298 190.321 134.618 192.985 132.696ZM181.262 148.706L182.432 149.559L181.131 151.716C180.416 152.903 179.773 153.874 179.703 153.875C179.632 153.875 179.1 153.53 178.519 153.108C177.345 152.254 177.322 152.366 179.329 149.096L180.092 147.853L181.262 148.706ZM153.077 183.161C154.098 182.446 154.997 181.866 155.076 181.872C155.155 181.879 155.608 182.287 156.084 182.78C156.63 183.347 156.853 183.79 156.69 183.984C156.341 184.399 152.896 186.926 152.675 186.929C152.401 186.932 150.884 184.731 151.063 184.588C151.15 184.518 152.056 183.876 153.077 183.161ZM175.671 157.823C176.315 158.23 176.857 158.645 176.874 158.745C176.915 158.985 175.218 161.88 174.59 162.641C174.137 163.19 174.023 163.171 173.105 162.401C171.99 161.466 171.995 161.392 173.318 159.287C173.773 158.563 174.225 157.77 174.322 157.526C174.458 157.187 174.774 157.256 175.671 157.823ZM202.095 127.647C203.285 127.237 204.311 126.898 204.375 126.894C204.44 126.889 204.727 127.427 205.013 128.089L205.534 129.293L203.238 130.181C201.974 130.669 200.885 131.078 200.816 131.089C200.455 131.147 199.388 128.992 199.639 128.714C199.8 128.537 200.905 128.057 202.095 127.647ZM169.183 166.326C169.355 166.325 169.917 166.677 170.43 167.107L171.364 167.891L170.419 169.347C169.9 170.147 169.203 171.127 168.87 171.523C168.275 172.232 168.251 172.229 167.128 171.287L165.99 170.332L167.202 168.88C167.869 168.082 168.517 167.181 168.642 166.878C168.767 166.575 169.01 166.327 169.183 166.326ZM162.422 174.929C162.743 174.727 163.119 174.874 163.851 175.488L164.844 176.321L163.969 177.364C163.487 177.938 162.64 178.8 162.085 179.278C161.081 180.146 161.075 180.146 160.219 179.319L159.362 178.488L160.674 176.846C161.396 175.943 162.182 175.08 162.422 174.929ZM212.821 124.847C214.266 124.603 215.513 124.462 215.59 124.534C215.668 124.607 215.871 125.18 216.043 125.81L216.355 126.953L213.854 127.435C212.479 127.7 211.231 127.813 211.08 127.685C210.929 127.558 210.668 126.967 210.499 126.372L210.193 125.291L212.821 124.847ZM224.441 123.409L227.252 123.265L227.435 124.535L227.619 125.804L225.086 126.05C223.693 126.186 222.458 126.227 222.342 126.141C222.082 125.95 221.384 123.835 221.526 123.672C221.583 123.607 222.895 123.488 224.441 123.409ZM236.144 122.959C238.992 123.115 239.285 123.314 239.064 124.935C238.989 125.482 238.605 125.58 236.446 125.603C235.054 125.618 233.789 125.525 233.635 125.396C233.293 125.109 233.018 123.327 233.27 123.027C233.37 122.909 234.663 122.878 236.144 122.959ZM247.176 123.536C250.939 123.842 250.666 123.733 250.727 124.958C250.756 125.556 250.713 126.127 250.63 126.226C250.547 126.325 249.303 126.305 247.866 126.181L245.252 125.956L245.03 124.808C244.908 124.177 244.865 123.593 244.933 123.512C245.002 123.43 246.011 123.441 247.176 123.536ZM259.602 125.255C261.144 125.532 262.456 125.802 262.518 125.854C262.791 126.082 262.372 128.427 262.069 128.368C261.884 128.333 260.617 128.089 259.253 127.828C257.888 127.566 256.77 127.286 256.767 127.206C256.765 127.126 256.771 126.541 256.781 125.905L256.798 124.75L259.602 125.255ZM270.791 128.033C273.928 128.881 273.999 128.902 274.221 129.088C274.429 129.263 274.109 131.559 273.878 131.547C273.527 131.528 268.767 130 268.587 129.848C268.47 129.75 268.467 129.18 268.58 128.58L268.785 127.491L270.791 128.033ZM280.929 131.599C282.587 132.289 285.984 133.856 285.985 133.931C285.994 134.438 285.265 135.986 285.026 135.969C284.855 135.957 283.789 135.548 282.657 135.061C281.525 134.573 280.426 134.103 280.214 134.017C280 133.929 279.952 133.359 280.106 132.734C280.438 131.378 280.429 131.391 280.929 131.599ZM294.451 138.282C297.246 139.943 297.359 140.121 296.367 141.317L295.808 141.991L293.447 140.567C292.148 139.783 291.063 139.015 291.033 138.86C291.004 138.705 291.193 138.174 291.453 137.681L291.926 136.783L294.451 138.282ZM304.519 145.197C306.6 146.679 306.963 146.764 306.683 145.707C306.595 145.377 306.489 144.444 306.446 143.634L306.368 142.162L307.842 143.399L309.315 144.635L309.825 148.013C310.105 149.872 310.274 151.464 310.201 151.551C310.127 151.639 308.582 151.648 306.767 151.572L303.467 151.434L301.876 150.099L300.286 148.765L302.34 148.738C303.469 148.723 304.459 148.633 304.539 148.538C304.619 148.443 303.888 147.753 302.915 147.005L301.147 145.646L301.814 144.696L302.481 143.746L304.519 145.197Z" fill="#283593"/>
<path d="M178 141C186.285 141 193 147.716 193 156C193 164.284 186.285 171 178 171C169.715 171 163 164.284 163 156C163 147.716 169.715 141 178 141Z" fill="#EFC75E"/>
<path d="M178 143.812C171.269 143.812 165.812 149.269 165.812 156C165.812 162.731 171.269 168.187 178 168.187C184.731 168.187 190.187 162.731 190.187 156C190.187 149.269 184.731 143.812 178 143.812ZM178 166.312C172.305 166.312 167.687 161.695 167.687 156C167.687 150.305 172.305 145.687 178 145.687C183.695 145.687 188.312 150.305 188.312 156C188.312 161.695 183.696 166.312 178 166.312ZM179.247 155.217C178.686 154.982 176.626 154.657 176.626 153.756C176.626 153.091 177.396 152.899 177.859 152.899C178.279 152.899 178.784 153.032 179.05 153.297C179.219 153.459 179.288 153.577 179.344 153.741C179.414 153.933 179.456 154.139 179.722 154.139H181.096C181.418 154.139 181.503 154.08 181.503 153.726C181.503 152.205 180.311 151.348 178.952 151.053V149.872C178.952 149.606 178.867 149.443 178.545 149.443H177.451C177.128 149.443 177.044 149.605 177.044 149.872V151.008C175.586 151.288 174.367 152.204 174.367 153.858C174.367 155.733 175.671 156.323 177.086 156.795C178.278 157.194 179.525 157.209 179.525 158.035C179.525 158.862 178.91 159.04 178.152 159.04C177.633 159.04 177.059 158.905 176.778 158.552C176.596 158.331 176.526 158.139 176.512 157.946C176.484 157.577 176.331 157.533 176.007 157.533H174.648C174.325 157.533 174.241 157.608 174.241 157.946C174.241 159.629 175.587 160.649 177.044 160.974V162.126C177.044 162.391 177.128 162.554 177.451 162.554H178.545C178.867 162.554 178.952 162.391 178.952 162.126V161.005C180.606 160.752 181.741 159.749 181.741 157.977C181.743 155.97 180.257 155.542 179.247 155.217Z" fill="#CC9933"/>
</g>
<defs>
<clipPath id="clip0">
<rect width="300" height="200" fill="white"/>
</clipPath>
</defs>
</svg>
